<svg width="95" height="144" viewBox="0 0 95 144" fill="none" xmlns="http://www.w3.org/2000/svg">
<mask id="mask0" mask-type="alpha" maskUnits="userSpaceOnUse" x="0" y="0" width="95" height="144">
<rect x="0.316528" width="94" height="144" fill="#C4C4C4"/>
</mask>
<g mask="url(#mask0)">
<path d="M16.2832 73.8645C13.9094 74.3643 7.49648 76.6081 6.42057 77.2716C-0.561702 81.5439 19.8202 98.8236 19.8202 98.8236L31.1219 94.9413L34.4684 71.0873C34.4684 71.0873 16.5633 73.804 16.2832 73.8645Z" fill="url(#paint0_linear)"/>
<path d="M19.7709 99.0769L19.6745 98.9939C19.0446 98.4605 4.26417 85.852 4.74833 79.5736C4.7784 79.0617 4.93608 78.5655 5.207 78.1301C5.47792 77.6948 5.85348 77.3341 6.29945 77.0811C7.45606 76.3705 13.9586 74.1245 16.2382 73.6448C16.5252 73.5843 33.7018 70.9775 34.4325 70.8654L34.7306 70.8206L31.3235 95.1094L19.7709 99.0769ZM16.3301 74.0842C13.9026 74.593 7.5771 76.8233 6.53256 77.4621C6.14515 77.6766 5.81852 77.9859 5.58329 78.3611C5.34806 78.7363 5.21194 79.1651 5.18766 79.6072C4.73936 85.4037 18.5604 97.4518 19.8605 98.5703L30.9111 94.7754L34.1971 71.354C27.9658 72.3022 16.5969 74.0304 16.3301 74.0842Z" fill="black"/>
<path d="M73.4189 90.0908C69.4626 86.473 64.4731 82.6311 59.2975 80.4523C58.7864 80.2416 58.2731 80.0421 57.762 79.8673C57.6813 79.8337 57.6006 79.809 57.5244 79.7843C57.508 79.7763 57.4907 79.7703 57.4729 79.7664C56.9932 79.6028 26.6568 72.7057 29.8442 74.8956C39.2159 81.3377 41.4394 89.0507 42.7955 91.931L59.3445 92.5273C59.3445 92.5049 59.3288 92.4824 59.3221 92.46L61.317 93.7041L61.8797 94.0537L62.8435 94.6544L63.3434 94.966L64.2893 95.5533L65.1276 96.0756L67.777 96.1518L65.2442 112.938C65.2442 112.938 73.7618 117.184 77.5724 112.976C78.5273 111.925 79.0182 110.336 79.5203 108.626C82.8332 97.3084 78.5474 94.7867 73.4189 90.0908Z" fill="url(#paint1_linear)"/>
<path d="M72.6928 115.081C69.0772 115.081 65.3698 113.263 65.1367 113.147L64.991 113.075L67.5104 96.3759L65.0448 96.3086L61.0706 93.843L59.3491 92.7693H59.3178L42.6343 92.1663L42.576 92.0431C42.3944 91.662 42.2017 91.2003 41.9798 90.6668C40.5138 87.17 37.7882 80.6607 29.6986 75.1018C29.591 75.0256 29.2503 74.7992 29.4005 74.519C29.5507 74.2388 29.8241 73.674 43.6093 76.5162C50.3338 77.9014 57.2556 79.4817 57.5268 79.5736C57.5485 79.5788 57.5695 79.5863 57.5896 79.596C57.6658 79.6184 57.742 79.6431 57.8137 79.6745C58.2822 79.8359 58.7888 80.0286 59.3514 80.2617C63.7783 82.1199 68.555 85.3768 73.5446 89.9383C73.9704 90.3283 74.3896 90.7026 74.7998 91.059C79.2626 95.0377 82.7863 98.1803 79.702 108.697C79.1528 110.569 78.6574 112.087 77.7048 113.136C76.4047 114.59 74.56 115.081 72.6928 115.081ZM65.4841 112.815C66.6049 113.342 74.0018 116.572 77.3977 112.835C78.2943 111.856 78.765 110.387 79.2962 108.576C82.3021 98.3327 79.0407 95.4255 74.5263 91.3997C74.1161 91.0344 73.6947 90.6578 73.2666 90.2678C68.3151 85.74 63.5833 82.5122 59.2034 80.6719C58.6498 80.4478 58.1522 80.255 57.6792 80.0914C57.6127 80.0643 57.5445 80.0411 57.4752 80.0219L57.4058 79.995C57.1435 79.9121 50.54 78.3968 43.8425 77.0138C33.2872 74.8306 30.5974 74.6289 29.9452 74.7118L29.9676 74.7252C38.1647 80.3604 40.924 86.9481 42.4057 90.4875C42.6029 90.9582 42.7777 91.3729 42.9369 91.7225L59.0331 92.3031L59.0062 92.2157L59.394 92.2538L59.4388 92.2807L61.5436 93.5942L65.1927 95.8648L68.0349 95.9455L65.4841 112.815Z" fill="black"/>
<path d="M59.6025 135.719C60.2294 135.605 60.8194 135.342 61.3217 134.95C61.3449 134.931 61.3715 134.918 61.4 134.91C61.4285 134.902 61.4583 134.899 61.4877 134.903C61.5171 134.906 61.5454 134.916 61.5712 134.93C61.597 134.945 61.6196 134.964 61.6378 134.988C62.3304 135.862 64.1034 138.662 70.931 135.781C78.1038 132.762 77.8259 117.323 77.8169 116.908C77.8146 116.902 77.8146 116.896 77.8169 116.89L77.8998 116.285L77.9245 116.117C77.9286 116.093 77.9249 116.068 77.9141 116.046C77.9032 116.024 77.8856 116.007 77.864 115.996C77.66 115.892 77.0682 115.583 76.203 115.171C73.4348 113.844 67.9095 111.423 63.7806 111.123C63.4213 111.094 63.0606 111.085 62.7002 111.096C62.4001 111.102 62.1007 111.127 61.8036 111.17C61.649 111.192 61.5033 111.221 61.3553 111.253C60.9898 111.363 60.6551 111.557 60.378 111.82C60.1591 112.015 59.9525 112.224 59.7594 112.445C58.6386 113.694 57.4955 115.655 56.702 117.076L56.5271 117.385C51.3358 126.737 58.0334 127.288 58.8224 127.006C58.8454 126.998 58.8703 126.996 58.8939 127.003C58.9175 127.009 58.9387 127.022 58.9547 127.04C58.9707 127.059 58.9807 127.082 58.9835 127.106C58.9863 127.13 58.9817 127.155 58.9704 127.176L58.9233 127.273C58.7417 127.64 58.4638 128.196 58.1724 128.842C58.1542 128.874 58.1377 128.908 58.1231 128.942C57.6053 130.081 57.0472 131.439 56.8701 132.41C56.3725 135.194 58.6991 135.88 59.6025 135.719Z" fill="white"/>
<path d="M65.7711 137.272C63.1261 137.272 62.0681 135.9 61.5638 135.255L61.4719 135.138C60.9407 135.552 60.3168 135.831 59.654 135.95C59.2365 135.997 58.8136 135.95 58.4165 135.813C58.0193 135.676 57.6579 135.451 57.3587 135.156C56.897 134.694 56.4016 133.836 56.6639 132.37C56.8096 131.559 57.2242 130.406 57.9326 128.851C57.9482 128.815 57.9662 128.775 57.9863 128.739C58.2396 128.192 58.4795 127.703 58.6588 127.345L58.6924 127.277C57.9886 127.367 56.2895 127.165 55.2338 125.919C54.2206 124.724 53.593 122.256 56.3545 117.287C56.4083 117.188 56.4711 117.081 56.5316 116.975C57.7375 114.81 58.7462 113.284 59.6137 112.309C59.813 112.08 60.0263 111.865 60.2525 111.663C60.557 111.375 60.9259 111.164 61.3284 111.047C61.4778 111.012 61.6273 110.983 61.7767 110.959C62.0828 110.916 62.3912 110.891 62.7002 110.883C63.068 110.872 63.4362 110.881 63.803 110.91C67.9207 111.212 73.4034 113.6 76.3039 114.98C77.0592 115.339 77.6062 115.621 77.8729 115.756L77.9715 115.805C78.0355 115.839 78.0873 115.891 78.1199 115.955C78.1525 116.02 78.1641 116.093 78.1531 116.164L78.0478 116.928C78.0612 117.744 78.2495 132.957 71.0229 135.999C68.7881 136.927 67.0779 137.272 65.7711 137.272ZM61.4696 134.681H61.5122C61.6317 134.697 61.7402 134.759 61.8148 134.854L61.9067 134.972C62.6688 135.959 64.4531 138.27 70.8458 135.578C77.8348 132.634 77.6062 117.556 77.5927 116.915C77.5916 116.898 77.5916 116.88 77.5927 116.863L77.6891 116.162L77.66 116.146C77.3977 116.011 76.853 115.734 76.1044 115.375C73.2308 113.999 67.8108 111.645 63.7627 111.34C63.4107 111.313 63.0575 111.305 62.7047 111.316C62.4137 111.323 62.1233 111.347 61.835 111.387C61.6915 111.41 61.5481 111.439 61.4113 111.468C61.082 111.57 60.7811 111.747 60.5327 111.986C60.3234 112.175 60.1265 112.378 59.9432 112.593C59.0959 113.546 58.1074 115.045 56.9149 117.186C56.8521 117.291 56.7939 117.397 56.7378 117.493C54.651 121.25 54.2453 124.058 55.5655 125.616C56.6056 126.845 58.41 126.919 58.7529 126.795C58.8179 126.772 58.8884 126.768 58.9554 126.785C59.0224 126.802 59.0827 126.839 59.1286 126.891C59.1744 126.942 59.2038 127.007 59.2127 127.075C59.2217 127.144 59.2099 127.213 59.1788 127.275L59.0511 127.533C58.874 127.889 58.6341 128.38 58.3786 128.925L58.3652 128.949C58.3526 128.973 58.3414 128.997 58.3315 129.021C57.6367 130.548 57.2332 131.664 57.0942 132.439C56.9104 133.462 57.0942 134.266 57.6658 134.827C57.9142 135.07 58.2125 135.255 58.54 135.372C58.8674 135.488 59.2162 135.531 59.5621 135.499C60.1523 135.396 60.7076 135.148 61.1782 134.777C61.2574 134.713 61.3563 134.677 61.4584 134.676L61.4696 134.681Z" fill="black"/>
<path d="M78.1171 116.583C78.1129 116.585 78.1083 116.586 78.1036 116.586C78.099 116.586 78.0944 116.585 78.0902 116.583C77.94 116.612 77.4177 116.381 76.696 116.027C76.4248 115.893 76.1311 115.745 75.8151 115.579C75.499 115.413 75.0978 115.207 74.7235 115.005C73.3943 114.299 72.009 113.553 71.2402 113.198C69.8684 112.573 63.0385 113.824 59.9273 113.763C59.1137 113.748 58.551 113.644 58.4098 113.389C58.2516 113.117 58.1345 112.823 58.0624 112.517C57.5401 110.334 60.0663 109.094 61.0234 108.505C61.1355 108.435 61.2476 108.37 61.3641 108.312C65.3742 106.225 71.9261 108.984 75.8644 111.401C76.2432 111.625 76.5996 111.849 76.9224 112.073C77.2451 112.297 77.5455 112.501 77.819 112.701C78.5407 113.25 79.0204 113.705 79.1527 113.974C79.9439 115.608 78.4376 116.368 78.1171 116.583Z" fill="white"/>
<path d="M78.0656 116.816C77.8795 116.816 77.5321 116.697 76.5952 116.236C76.3239 116.099 76.0281 115.951 75.712 115.787C75.396 115.624 74.9925 115.413 74.6182 115.211L74.0309 114.9C72.881 114.288 71.7894 113.709 71.1461 113.411C70.3974 113.071 67.6897 113.351 65.0716 113.622C63.1798 113.819 61.2275 114.021 59.9162 113.996C58.8985 113.976 58.3875 113.831 58.2082 113.508C58.0399 113.216 57.9145 112.902 57.8361 112.575C57.325 110.432 59.4612 109.173 60.6088 108.496L60.9002 108.323C61.0168 108.251 61.1356 108.184 61.2544 108.121C65.1052 106.12 71.3837 108.408 75.9765 111.217C76.4114 111.486 76.7521 111.706 77.0435 111.907C77.4133 112.156 77.698 112.356 77.9401 112.542C78.4735 112.947 79.1505 113.51 79.3388 113.887C80.1681 115.559 78.7829 116.422 78.3279 116.706L78.2449 116.758C78.2038 116.788 78.1546 116.805 78.1037 116.807L78.0656 116.816ZM69.8057 112.808C70.4893 112.808 71.0228 112.864 71.3276 113.003C72.0001 113.308 73.0827 113.889 74.2416 114.503L74.8289 114.815C75.2032 115.019 75.5731 115.209 75.9182 115.391C76.2634 115.572 76.5257 115.7 76.7947 115.839C77.6711 116.272 77.9513 116.357 78.0387 116.37L78.0947 116.337C78.7918 115.902 79.5158 115.256 78.9398 114.095C78.8972 114.008 78.682 113.669 77.6711 112.903C77.4469 112.723 77.16 112.526 76.7969 112.282C76.51 112.082 76.176 111.867 75.7479 111.609C71.2649 108.863 65.1546 106.611 61.4673 108.529C61.3575 108.585 61.2432 108.648 61.14 108.713L60.8419 108.892C59.7951 109.509 57.845 110.659 58.2799 112.479C58.3463 112.763 58.4535 113.035 58.5982 113.288C58.6206 113.328 58.7865 113.526 59.9251 113.548C61.1938 113.57 63.1395 113.371 65.0178 113.176C66.829 112.99 68.5684 112.808 69.8057 112.808Z" fill="black"/>
<path d="M56.8633 132.141C57.1529 132.259 57.4668 132.304 57.7778 132.273C58.0845 132.249 58.3862 132.182 58.6744 132.074C58.9603 131.967 59.2363 131.835 59.4993 131.679C59.7632 131.526 60.0103 131.346 60.2367 131.142C61.1826 130.323 62.0949 129.427 62.9915 128.53C63.8881 127.634 64.7646 126.71 65.6253 125.773C66.486 124.836 67.3311 123.886 68.1425 122.9C67.4305 123.961 66.6636 124.984 65.845 125.966C65.0313 126.95 64.1773 127.9 63.2941 128.826C62.4124 129.757 61.4824 130.642 60.508 131.476C60.2579 131.695 59.986 131.888 59.6965 132.052C59.4009 132.204 59.0898 132.324 58.7686 132.41C58.4441 132.495 58.1074 132.523 57.7733 132.493C57.4427 132.465 57.127 132.343 56.8633 132.141Z" fill="black"/>
<path d="M61.4807 117.242C61.3681 118.008 61.1727 118.76 60.898 119.483C60.6321 120.212 60.3222 120.924 59.97 121.615L59.7055 122.133L59.423 122.639C59.2348 122.98 59.0345 123.315 58.8223 123.644C58.7192 123.803 58.5982 123.978 58.4951 124.13L58.1499 124.599C57.9257 124.908 57.7016 125.217 57.4572 125.522C57.3564 125.648 57.2331 125.804 57.1188 125.941C57.0045 126.078 56.8946 126.224 56.7624 126.363C56.8498 126.201 56.9372 126.04 57.0291 125.883C57.121 125.726 57.2062 125.576 57.3093 125.399C57.4998 125.065 57.6971 124.726 57.8966 124.401L58.197 123.908C58.3001 123.745 58.3897 123.59 58.4861 123.422L59.0465 122.433L59.5867 121.422C59.9386 120.75 60.2815 120.06 60.6043 119.367C60.9271 118.674 61.2185 117.97 61.4807 117.242Z" fill="black"/>
<path d="M78.4288 173.764C78.3772 173.663 78.3189 173.56 78.2584 173.45C78.1777 173.297 78.097 173.138 78.0118 172.963C77.1377 171.17 69.8124 135.815 69.4829 127.421C71.3882 124.312 72.8855 118.6 72.4619 111.708C72.1637 106.197 70.5619 100.836 67.7884 96.0643C67.7884 96.0643 60.8397 84.3121 56.9821 80.8041L56.8566 80.6808L56.7961 80.7369C56.5876 80.9274 56.2245 81.2793 56.0922 81.4093C56.0798 81.4217 56.0663 81.4329 56.0519 81.443L55.895 81.5886C55.6955 81.7657 55.4736 81.9383 55.2405 82.1132L55.0611 82.2432L54.7832 82.4404C54.9849 82.8304 58.522 89.7163 59.3447 92.4599L42.7957 91.8637C41.4396 89.0013 39.1868 81.5842 29.8129 75.1757C28.6092 74.3531 22.9293 72.0533 22.9293 72.0533C22.8217 72.0242 16.2899 73.8712 16.2899 73.8712C18.8646 74.4355 21.1595 75.8856 22.7746 77.9686C27.1366 83.5119 27.7171 90.3708 23.79 94.8314C20.8648 98.1556 19.0358 97.6781 19.0358 97.6781C18.5001 98.4963 15.548 104.813 15.3799 110.775C15.0952 120.898 23.2251 135.187 23.2251 135.187C23.1175 146.278 16.5724 171.412 15.5189 174.324C15.3664 174.748 15.2208 175.138 15.0885 175.492C14.8419 176.164 14.6402 176.686 14.4878 177.061C14.4878 177.088 14.4676 177.108 14.4586 177.13C14.4497 177.153 14.6268 177.13 14.9249 177.13C15.2813 177.13 15.8215 177.155 16.5074 177.209L16.922 177.245L17.3703 177.287L17.7873 177.339C18.1713 177.384 18.5763 177.442 19.0022 177.514L19.4034 177.581L19.8113 177.657C20.8517 177.852 21.8795 178.11 22.8889 178.428L23.2745 178.549C23.4538 178.607 23.6309 178.672 23.8079 178.737L24.115 178.847C24.4019 178.955 24.6888 179.071 24.9735 179.188L25.3882 179.367C25.4801 179.408 25.5742 179.45 25.6661 179.495C25.8186 179.565 25.971 179.636 26.1144 179.719C27.5508 180.414 28.8837 181.305 30.0752 182.366C30.2052 182.485 30.3352 182.604 30.4585 182.727C30.5817 182.851 30.7207 182.983 30.8462 183.115C30.9718 183.247 31.0704 183.357 31.1914 183.485C31.3125 183.613 31.4559 183.788 31.5859 183.933C31.7159 184.079 31.7921 184.187 31.8908 184.319C31.9894 184.451 32.1463 184.659 32.2696 184.834C33.2334 186.217 34.9302 186.753 36.4298 186.827C37.6088 186.89 38.6713 186.663 39.1622 186.329C39.1608 186.303 39.1608 186.276 39.1622 186.249C39.1593 186.227 39.1593 186.205 39.1622 186.184C39.1622 186.137 39.1622 186.078 39.1756 186.009C39.1756 185.975 39.1756 185.937 39.1756 185.899C39.1756 185.861 39.1756 185.825 39.1868 185.787C39.1981 185.749 39.1868 185.682 39.2003 185.626C39.2137 185.57 39.2003 185.518 39.2137 185.462C39.2272 185.406 39.2272 185.292 39.2339 185.197C39.2519 185.036 39.2653 184.861 39.2832 184.668C39.3213 184.243 39.3639 183.743 39.4155 183.178C39.4267 183.059 39.4379 182.94 39.4513 182.815C39.4513 182.795 39.4513 182.772 39.4513 182.747C39.4648 182.64 39.476 182.523 39.4827 182.422C39.4827 182.402 39.4827 182.375 39.4827 182.351C39.5007 182.192 39.5119 182.03 39.5298 181.864C39.597 181.192 39.6688 180.472 39.7539 179.695C39.7719 179.533 39.7898 179.363 39.8077 179.192C39.884 178.466 39.9691 177.702 40.0588 176.904C40.1216 176.355 40.1888 175.797 40.256 175.221C40.2852 174.996 40.3121 174.759 40.3412 174.523C40.3816 174.174 40.4242 173.815 40.4735 173.459C40.4892 173.338 40.5026 173.219 40.5183 173.1C40.5497 172.856 40.5788 172.614 40.6102 172.369C40.7537 171.275 40.9038 170.148 41.0697 169.007C41.1056 168.754 41.1437 168.498 41.1818 168.247C41.4059 166.678 43.8133 148.654 44.8466 141.282C46.3619 141.257 47.795 141.182 49.1458 141.058C53.1805 153.406 54.5008 183.593 54.9199 183.909C61.2768 187.547 69.7587 177.857 78.8479 175.167H78.8614L79.238 175.059C78.9328 174.65 78.6621 174.217 78.4288 173.764Z" fill="url(#paint2_linear)"/>
<path d="M36.831 187.06C36.6942 187.06 36.5575 187.06 36.4208 187.06C34.5267 186.968 32.9487 186.206 32.088 184.971C31.9759 184.812 31.8481 184.633 31.7181 184.467C31.6195 184.337 31.5186 184.214 31.42 184.092C31.2877 183.929 31.1555 183.779 31.0255 183.631C30.8955 183.483 30.8013 183.386 30.6893 183.27C30.5413 183.113 30.4203 182.994 30.3082 182.889C30.1961 182.783 30.0527 182.644 29.9249 182.528C28.7502 181.481 27.4352 180.603 26.018 179.919C25.8656 179.843 25.7176 179.771 25.5697 179.695C25.4733 179.648 25.3836 179.607 25.2917 179.567L24.9017 179.399H24.8793C24.5767 179.267 24.2674 179.15 24.032 179.063L23.7272 178.953C23.5523 178.888 23.3775 178.825 23.2027 178.769L23.1152 178.74L22.8194 178.648C21.818 178.331 20.7985 178.075 19.7664 177.881L19.3562 177.805L18.9819 177.742C18.5336 177.668 18.1346 177.61 17.7558 177.565L17.3367 177.516C17.1842 177.498 17.0385 177.487 16.8884 177.473L16.4714 177.435C15.7698 177.381 15.2319 177.364 14.9024 177.359C14.5729 177.355 14.4541 177.359 14.4541 177.359C14.416 177.36 14.3784 177.351 14.3446 177.334C14.3109 177.316 14.2822 177.29 14.2613 177.258C14.2389 177.226 14.2254 177.188 14.2222 177.148C14.2191 177.109 14.2264 177.07 14.2434 177.034L14.2658 176.978C14.4182 176.592 14.6222 176.081 14.8665 175.409C15.001 175.052 15.1445 174.662 15.2969 174.241C15.3015 174.228 15.3075 174.215 15.3148 174.203C16.3302 171.332 22.8642 146.346 22.992 135.239C22.4495 134.268 14.88 120.521 15.1467 110.762C15.3238 104.517 18.4283 98.1781 18.8385 97.537C18.8642 97.4977 18.9016 97.4674 18.9454 97.4506C18.9893 97.4337 19.0373 97.431 19.0828 97.4429C19.0985 97.4429 20.8424 97.815 23.6128 94.6657C27.4077 90.353 26.9975 83.6823 22.5907 78.0786C21.0111 76.0612 18.7869 74.6473 16.2899 74.073C16.2316 74.073 16.05 74.0237 16.0657 73.8332C16.0673 73.7855 16.084 73.7396 16.1134 73.7022C16.1429 73.6647 16.1835 73.6375 16.2294 73.6247C22.8149 71.7643 22.9068 71.7867 22.9875 71.8091H23.0121C23.2363 71.9032 28.7302 74.1268 29.9406 74.9472C38.214 80.6047 40.9688 87.0266 42.4482 90.4785C42.632 90.9044 42.7911 91.2787 42.9413 91.5993L59.0352 92.1798C58.0669 89.2659 54.7293 82.7835 54.5836 82.4988C54.5576 82.4487 54.5515 82.3906 54.5665 82.3362C54.5814 82.2817 54.6164 82.2349 54.6643 82.2052L54.7764 82.1267L54.9378 82.0124L55.0387 81.9384L55.1104 81.8869C55.3345 81.7165 55.5587 81.5484 55.747 81.3736L55.8254 81.3018L55.9061 81.2301C55.9125 81.2222 55.9201 81.2154 55.9285 81.2099C55.9935 81.1517 56.0809 81.0665 56.1818 80.9701L56.6458 80.533L56.6861 80.4971L56.7041 80.4814C56.7459 80.441 56.8017 80.4185 56.8599 80.4185C56.918 80.4185 56.9739 80.441 57.0157 80.4814L57.056 80.5196C57.0807 80.5464 57.1076 80.5733 57.1344 80.598C60.9809 84.088 67.6986 95.4278 67.9833 95.9097C70.7202 100.541 72.3475 105.996 72.6904 111.654C73.1387 118.93 71.4532 124.565 69.7137 127.441C70.0881 136.223 77.4223 171.199 78.218 172.824C78.3009 172.997 78.3816 173.154 78.4601 173.304C78.5206 173.409 78.5766 173.515 78.6304 173.616C78.8704 174.055 79.1463 174.474 79.4553 174.869C79.4795 174.897 79.496 174.932 79.5035 174.969C79.5109 175.005 79.509 175.044 79.4979 175.079C79.4868 175.115 79.4668 175.148 79.4398 175.174C79.4128 175.201 79.3795 175.22 79.3432 175.23L78.9756 175.337H78.9375C75.5192 176.348 72.213 178.348 68.9965 180.282C63.8096 183.42 58.9097 186.365 54.8526 184.05C54.806 184.024 54.769 183.984 54.7473 183.936C54.6262 183.68 54.5366 182.748 54.1734 178.217C53.445 169.155 51.9319 150.356 49.018 141.233C47.7896 141.345 46.4649 141.414 45.0729 141.441C44.4476 145.913 43.338 154.146 42.5244 160.18C41.9662 164.322 41.5247 167.595 41.4328 168.22L41.3229 168.978C41.175 170 41.0248 171.101 40.8746 172.34C40.8567 172.466 40.841 172.589 40.8253 172.712C40.8096 172.836 40.7962 172.952 40.7805 173.071C40.7805 173.132 40.7648 173.192 40.7581 173.25C40.7513 173.309 40.7446 173.371 40.7357 173.43C40.6863 173.786 40.6438 174.142 40.6034 174.492L40.4622 175.68C40.4151 176.084 40.368 176.48 40.3232 176.873C40.2313 177.668 40.1461 178.442 40.0699 179.157L40.0184 179.661C39.9354 180.437 39.8637 181.163 39.7942 181.826C39.7942 181.905 39.7785 181.981 39.7718 182.05C39.7651 182.12 39.7561 182.225 39.7449 182.313C39.7469 182.325 39.7469 182.338 39.7449 182.351C39.7449 182.351 39.7449 182.371 39.7449 182.375C39.7449 182.49 39.7247 182.6 39.7135 182.709C39.7135 182.709 39.7135 182.732 39.7135 182.75C39.7135 182.768 39.7135 182.77 39.7135 182.774L39.6777 183.138L39.5252 184.848C39.5252 184.958 39.5073 185.072 39.4961 185.159L39.4782 185.417C39.4782 185.473 39.467 185.523 39.4647 185.567C39.4625 185.612 39.4535 185.684 39.4513 185.731C39.4525 185.739 39.4525 185.747 39.4513 185.756C39.4513 185.771 39.4513 185.785 39.4513 185.8C39.4513 185.816 39.4513 185.839 39.4513 185.857C39.4513 185.874 39.4513 185.895 39.4513 185.915V186.007C39.4513 186.056 39.4513 186.099 39.4513 186.132C39.4513 186.166 39.4513 186.157 39.4513 186.17C39.4503 186.179 39.4503 186.187 39.4513 186.195C39.4498 186.223 39.4498 186.252 39.4513 186.28C39.4499 186.315 39.4403 186.35 39.4231 186.381C39.406 186.411 39.3818 186.438 39.3527 186.457C38.7878 186.856 37.8508 187.06 36.831 187.06ZM14.7724 176.897H14.9158C15.2453 176.897 15.7923 176.92 16.5095 176.976L16.9265 177.014C17.0766 177.027 17.2268 177.038 17.386 177.056L17.8074 177.108C18.1929 177.153 18.6053 177.211 19.0335 177.285C19.1769 177.307 19.3047 177.328 19.4369 177.352L19.8449 177.429C20.8979 177.625 21.9377 177.886 22.9583 178.211L23.2587 178.305L23.3461 178.332C23.5254 178.39 23.707 178.455 23.8885 178.522L24.1934 178.632C24.4355 178.722 24.7538 178.843 25.0653 178.98L25.48 179.159C25.5764 179.199 25.6728 179.242 25.7669 179.289C25.9171 179.356 26.0718 179.43 26.2264 179.513C27.6815 180.219 29.0312 181.124 30.2365 182.203C30.371 182.326 30.501 182.447 30.6287 182.573C30.7565 182.698 30.8686 182.797 31.021 182.965C31.1376 183.084 31.2564 183.209 31.3707 183.342C31.485 183.474 31.6397 183.646 31.7697 183.808C31.8997 183.969 31.9938 184.068 32.0812 184.2C32.2157 184.37 32.348 184.556 32.4645 184.72C33.5718 186.314 35.6228 186.578 36.4522 186.619C37.5953 186.679 38.5188 186.462 38.9581 186.215C38.9572 186.202 38.9572 186.19 38.9581 186.177C38.9581 186.137 38.9581 186.092 38.9694 186.04V186.004C38.9694 185.993 38.9694 185.973 38.9694 185.951C38.9694 185.928 38.9694 185.919 38.9694 185.904C38.9683 185.894 38.9683 185.884 38.9694 185.874C38.9694 185.874 38.9694 185.85 38.9694 185.836C38.9694 185.823 38.9694 185.798 38.9694 185.78C38.9694 185.727 38.9694 185.67 38.985 185.614C39.0007 185.558 38.985 185.511 38.9985 185.451L39.0164 185.193C39.0276 185.09 39.0366 184.989 39.0456 184.884L39.2338 182.806C39.2338 182.806 39.2338 182.786 39.2338 182.77C39.2338 182.754 39.2338 182.741 39.2338 182.734C39.2451 182.631 39.2563 182.528 39.263 182.418C39.263 182.418 39.263 182.393 39.263 182.373C39.2619 182.361 39.2619 182.349 39.263 182.337C39.263 182.254 39.2787 182.169 39.2876 182.084C39.2966 181.999 39.3011 181.929 39.3101 181.86C39.3751 181.187 39.4468 180.47 39.5342 179.692L39.5858 179.188C39.662 178.462 39.7472 177.697 39.8391 176.899C39.8839 176.507 39.931 176.11 39.978 175.707L40.1192 174.519C40.1596 174.167 40.2044 173.808 40.2537 173.448L40.2739 173.277C40.2739 173.214 40.2896 173.152 40.2986 173.089C40.3142 172.972 40.3277 172.865 40.3434 172.735L40.3905 172.36C40.5518 171.121 40.702 170.018 40.85 168.998L40.962 168.241C41.0517 167.617 41.4933 164.347 42.0514 160.205C42.8763 154.083 44.006 145.7 44.6269 141.275C44.6345 141.222 44.6614 141.172 44.7027 141.137C44.7439 141.101 44.7966 141.082 44.851 141.083C46.3685 141.058 47.8098 140.979 49.1323 140.858C49.1812 140.856 49.2296 140.869 49.27 140.897C49.3105 140.924 49.3409 140.964 49.3565 141.011C52.3556 150.08 53.891 169.101 54.615 178.231C54.8392 181.069 55.0252 183.335 55.1283 183.743C58.9389 185.866 63.7155 182.992 68.7611 179.948C71.9911 178 75.3332 175.985 78.8075 174.956C78.8259 174.948 78.8456 174.942 78.8658 174.94H78.9016C78.6587 174.601 78.4342 174.248 78.2292 173.885C78.1776 173.788 78.1216 173.685 78.0611 173.578C77.9759 173.421 77.893 173.257 77.8078 173.08C77.0053 171.441 69.5972 136.147 69.2565 127.448C69.255 127.403 69.2667 127.36 69.2901 127.322C71.0048 124.525 72.6792 118.961 72.2377 111.739C71.8947 106.135 70.2876 100.756 67.5888 96.1943C67.5193 96.0778 60.6402 84.478 56.8453 81.0082L56.4822 81.3511L56.2379 81.5753L56.1975 81.6089L56.1213 81.6784L56.0361 81.7569C55.8321 81.9384 55.6035 82.1133 55.3637 82.2926L55.2852 82.3486L55.1844 82.4226L55.0543 82.5145C55.6394 83.6554 58.773 89.8307 59.5373 92.3972C59.5478 92.4315 59.5498 92.4678 59.5433 92.5031C59.5368 92.5383 59.522 92.5715 59.5 92.5998C59.4781 92.6281 59.4497 92.6508 59.4172 92.6658C59.3846 92.6809 59.349 92.688 59.3132 92.6864L42.7664 92.0902C42.7254 92.0888 42.6854 92.0762 42.651 92.0536C42.6166 92.0311 42.5891 91.9995 42.5714 91.9624C42.4033 91.606 42.2218 91.1868 42.0155 90.7027C40.5518 87.2934 37.8307 80.9477 29.6649 75.3641C28.5576 74.6065 23.4716 72.5286 22.8776 72.2865C22.4293 72.3784 19.4795 73.2011 17.1327 73.8556C19.4238 74.5581 21.446 75.943 22.9292 77.8253C27.4749 83.6039 27.8784 90.4965 23.9356 94.975C21.4229 97.8306 19.6768 97.9584 19.1276 97.9158C18.3991 99.1643 15.7385 105.223 15.5816 110.778C15.3014 120.721 23.3102 134.93 23.3909 135.073C23.4118 135.107 23.4219 135.146 23.4201 135.185C23.3147 146.361 16.6777 171.704 15.7026 174.396C15.698 174.409 15.692 174.422 15.6847 174.434C15.5367 174.844 15.3955 175.221 15.2655 175.568C15.0839 176.099 14.9114 176.545 14.7724 176.897Z" fill="black"/>
<path d="M30.0639 58.2704C29.3062 54.5203 24.4938 52.382 19.3047 53.4915C14.1156 54.601 10.5449 58.5416 11.3025 62.2916C11.706 64.2843 13.2594 65.813 15.4 66.6513C15.6913 68.2424 16.593 69.6566 17.9127 70.5919C20.6025 72.4972 24.2113 71.9121 25.9821 69.2851C26.403 68.6553 26.695 67.9483 26.8412 67.205C26.9874 66.4617 26.9849 65.6968 26.8339 64.9545C29.2345 63.1882 30.5525 60.6912 30.0639 58.2704Z" fill="#4C1A01"/>
<path d="M21.3713 71.9369C20.084 71.9336 18.8299 71.5276 17.7849 70.7758C16.4505 69.8327 15.5274 68.4148 15.205 66.8128C12.9769 65.9162 11.4796 64.2822 11.0851 62.3298C10.305 58.4655 13.9721 54.3994 19.2598 53.2652C22.3195 52.6107 25.4396 53.0657 27.6072 54.4846C29.0507 55.4305 29.9742 56.7261 30.2768 58.2189C30.7609 60.6151 29.5685 63.1502 27.0804 65.0443C27.3549 66.5606 27.0285 68.1242 26.1704 69.404C25.7441 70.0386 25.1943 70.5808 24.5539 70.9983C23.9134 71.4158 23.1954 71.6999 22.4428 71.8338C22.0894 71.8999 21.7308 71.9344 21.3713 71.9369ZM22.0236 53.4266C21.1322 53.4287 20.2434 53.5241 19.3719 53.7113C14.3218 54.7939 10.8094 58.6224 11.5423 62.2469C11.9122 64.0737 13.3557 65.6092 15.5008 66.443C15.5364 66.4569 15.5678 66.4796 15.5921 66.509C15.6165 66.5384 15.6329 66.5736 15.6398 66.6111C15.9173 68.1466 16.7877 69.5112 18.0629 70.4104C18.6792 70.8566 19.3791 71.1741 20.1208 71.3439C20.8626 71.5138 21.6309 71.5325 22.38 71.3989C23.074 71.2755 23.736 71.0134 24.3265 70.6283C24.9169 70.2431 25.4235 69.7429 25.8162 69.1574C26.2207 68.5521 26.5013 67.8725 26.6418 67.1581C26.7822 66.4436 26.7797 65.7085 26.6343 64.995C26.6261 64.9532 26.63 64.9099 26.6454 64.8702C26.6609 64.8305 26.6874 64.796 26.7218 64.7708C29.1403 62.9776 30.3082 60.568 29.8599 58.3108C29.5819 56.9346 28.7257 55.7421 27.383 54.8612C25.926 53.922 24.0342 53.4266 22.0236 53.4266Z" fill="black"/>
<path d="M67.4319 73.3893C66.6125 74.2568 65.6991 75.0304 64.7085 75.6958C63.3155 76.6223 61.8087 77.3652 60.2255 77.9059C59.9646 77.9974 59.7113 78.109 59.4679 78.2399C58.4592 78.7644 57.594 79.5668 56.7781 80.3446C56.3908 80.707 55.9781 81.0411 55.543 81.3443C53.3015 82.9291 49.7151 84.3748 45.7678 84.061C41.2848 83.7136 37.1672 81.499 35.105 79.8156C34.0425 78.9415 32.5654 77.7288 31.2945 77.1527C22.6512 73.257 14.2165 65.9923 16.0769 55.8047C12.6474 54.4598 9.59227 51.2007 8.53877 47.7353C7.2656 43.5347 7.80355 38.9262 11.1008 36.5457C12.169 35.7929 13.3961 35.2959 14.6872 35.0933C16.6889 34.7458 18.63 35.5416 20.2484 37.0254C20.5285 36.7116 20.9522 36.2566 21.5395 35.7052L22.1335 35.1695C24.3667 33.2672 26.8272 31.6492 29.4587 30.3525C29.4587 30.3525 29.4587 30.3525 29.4766 30.3525C29.5954 30.3144 29.7142 30.2696 29.8308 30.2292C53.3127 22.0881 63.3053 25.8695 67.5395 30.9375C69.0899 32.9612 70.1066 35.3421 70.496 37.8615C70.5095 37.9646 70.5252 38.0588 70.5296 38.1529C70.6104 38.7413 70.6538 39.3343 70.6597 39.9282V40.3092C70.6843 42.5956 69.6263 50.9003 70.4041 53.0656C72.6479 59.2925 72.7577 67.7407 67.4319 73.3893Z" fill="#FCBD9A"/>
<path d="M46.8168 84.3302C46.4559 84.3302 46.1017 84.3145 45.7476 84.2876C41.2399 83.938 37.1201 81.7547 34.9615 79.9907C33.8945 79.1143 32.442 77.9218 31.1935 77.3592C27.7752 75.8148 22.9829 73.1003 19.5691 68.9782C16.2786 64.9951 15.0189 60.6107 15.8236 55.9461C12.3806 54.5273 9.37927 51.2726 8.32352 47.7916C7.18036 44.0124 7.27226 39.0228 10.9707 36.3599C12.0712 35.5846 13.335 35.0724 14.6647 34.8626C16.5386 34.5376 18.5134 35.1921 20.2483 36.7006C20.6025 36.3128 20.9902 35.9206 21.4027 35.5328L21.9989 34.9948C24.2434 33.0833 26.715 31.4556 29.3577 30.1487L29.4071 30.1241L29.5953 30.0591L29.7478 30.0075C53.6758 21.714 63.5944 25.863 67.7098 30.7943C69.2825 32.8516 70.3157 35.2696 70.7156 37.8281V37.8752C70.7291 37.9671 70.7425 38.0522 70.747 38.1397C70.8277 38.7341 70.8711 39.333 70.877 39.9329V40.3139C70.877 41.0424 70.7851 42.3671 70.6686 43.9003C70.4242 47.1326 70.0903 51.5573 70.608 52.9986C72.789 59.0663 73.1409 67.6535 67.582 73.5509C66.7507 74.4305 65.8246 75.2153 64.8205 75.891C63.4106 76.8282 61.8867 77.5814 60.286 78.1325C60.0355 78.2193 59.7926 78.3265 59.5597 78.453C58.6071 78.9484 57.8001 79.6814 56.917 80.5197C56.5224 80.8905 56.1014 81.2321 55.6573 81.5418C53.057 83.3372 49.9766 84.3088 46.8168 84.3302ZM15.6353 35.2257C15.3347 35.2263 15.0348 35.2525 14.7387 35.3042C13.4799 35.503 12.2831 35.9868 11.2397 36.7186C7.73401 39.2492 7.65331 44.0303 8.76061 47.6616C9.79619 51.0754 12.7707 54.265 16.1576 55.5965L16.3302 55.6637L16.2965 55.8453C14.1066 67.7611 26.1143 74.5752 31.3796 76.9512C32.6796 77.5362 34.159 78.7444 35.2394 79.641C37.3532 81.367 41.3789 83.5009 45.7745 83.8438C49.1937 84.064 52.5867 83.1207 55.4017 81.1675C55.8285 80.87 56.233 80.5419 56.6121 80.1857C57.5199 79.3227 58.3515 78.5673 59.3557 78.0473C59.609 77.9106 59.8729 77.7944 60.1447 77.6999C61.7086 77.1624 63.1977 76.428 64.5762 75.5144C65.554 74.8576 66.4561 74.0946 67.266 73.2393C72.6837 67.4898 72.3317 59.0887 70.1934 53.1443C69.6442 51.6156 69.9692 47.3164 70.2315 43.8622C70.3458 42.338 70.4556 41.0245 70.4377 40.3139V39.9351C70.4317 39.3495 70.389 38.7648 70.3099 38.1845C70.3099 38.0948 70.292 38.0186 70.2808 37.9379V37.8931C69.892 35.4138 68.8904 33.0709 67.3668 31.0767C63.3523 26.262 53.5883 22.234 29.8979 30.4334L29.75 30.4849C29.685 30.5074 29.62 30.532 29.5528 30.5522C26.9434 31.8398 24.5027 33.4441 22.2858 35.3288L21.6941 35.8623C21.2458 36.2927 20.7975 36.732 20.4209 37.1646L20.2707 37.335L20.1026 37.1825C19.0827 36.2501 17.5271 35.2257 15.6353 35.2257Z" fill="black"/>
<path d="M70.0298 53.3884C53.2186 44.2498 19.4907 47.6121 19.4907 47.6121L21.6403 37.0972C22.8933 35.8218 25.424 33.5982 29.6178 31.4016C38.1355 28.4517 44.8824 27.071 50.2172 26.746L60.889 27.8667C63.8701 28.8732 65.9234 30.4265 67.3355 32.1256C68.4292 33.449 69.2455 34.9791 69.7357 36.6245C70.2259 38.27 70.3801 39.9972 70.1889 41.7035C69.9939 45.8727 69.3192 50.0329 70.0298 53.3884Z" fill="url(#paint3_linear)"/>
<path d="M13.7683 39.2312C14.2119 39.3088 14.6467 39.4304 15.0661 39.5943C15.4861 39.7632 15.8936 39.9617 16.2855 40.1883C17.0723 40.6485 17.7918 41.215 18.4239 41.8717C18.7433 42.206 19.0252 42.5743 19.2645 42.97C19.4926 43.3655 19.6889 43.7785 19.8517 44.2051C19.9375 44.4229 20.0035 44.6479 20.049 44.8775C20.1152 45.1249 20.1019 45.3868 20.0109 45.6262C19.9798 45.6903 19.9363 45.7475 19.8827 45.7944C19.8292 45.8414 19.7669 45.8772 19.6993 45.8997C19.5836 45.9341 19.4636 45.9522 19.3429 45.9535C19.2411 45.9454 19.1387 45.9591 19.0426 45.9938C18.9731 46.0386 19.0022 46.1776 19.0426 46.2762C19.0111 46.2291 18.9848 46.1788 18.9641 46.126C18.9503 46.095 18.9455 46.0606 18.9502 46.0269C18.955 45.9932 18.9691 45.9616 18.991 45.9355C19.0893 45.8619 19.2053 45.8155 19.3272 45.801C19.5514 45.7607 19.7374 45.68 19.7755 45.5253C19.8093 45.3343 19.7915 45.1378 19.724 44.956C19.6609 44.7523 19.5861 44.5525 19.4998 44.3575C19.4124 44.1603 19.3115 43.9652 19.2107 43.7702C19.1098 43.5752 19.0067 43.3735 18.8969 43.1987C18.6699 42.8318 18.4087 42.4874 18.1168 42.1698C17.8184 41.8509 17.5034 41.5479 17.1731 41.262C16.8392 40.9796 16.5007 40.7106 16.1286 40.4595C15.7668 40.2115 15.3927 39.9818 15.0079 39.7714C14.6073 39.5636 14.1932 39.3832 13.7683 39.2312Z" fill="black"/>
<path d="M15.9245 43.4698C16.371 43.4174 16.8216 43.4106 17.2694 43.4496C17.7226 43.4915 18.172 43.5664 18.6143 43.6737C19.4997 43.8904 20.3506 44.2291 21.1427 44.6802C21.5454 44.9088 21.9213 45.1817 22.2635 45.4938C22.595 45.8081 22.9008 46.1484 23.178 46.5115C23.3209 46.6952 23.4476 46.8909 23.5568 47.0965C23.6902 47.315 23.7521 47.5697 23.7339 47.825C23.722 47.8954 23.6961 47.9627 23.6576 48.0228C23.619 48.0828 23.5688 48.1345 23.5097 48.1747C23.4096 48.2428 23.2991 48.2943 23.1825 48.3271C23.0834 48.3488 22.9901 48.3916 22.909 48.4526C22.853 48.5154 22.9225 48.6409 22.9852 48.7261C22.9405 48.6896 22.8999 48.6482 22.8642 48.6028C22.8426 48.5766 22.8285 48.5451 22.8234 48.5115C22.8183 48.478 22.8223 48.4437 22.835 48.4123C22.9092 48.3135 23.0082 48.2362 23.122 48.1881C23.3192 48.0873 23.4806 47.964 23.4739 47.7959C23.4471 47.6028 23.3698 47.4203 23.2497 47.2669C23.1283 47.0903 22.9973 46.9204 22.8575 46.758C22.7162 46.5944 22.5638 46.4353 22.4092 46.2784C22.2545 46.1215 22.1021 45.9556 21.9452 45.8189C21.6239 45.5322 21.2764 45.2763 20.9074 45.0545C20.53 44.834 20.1417 44.6328 19.744 44.4515C19.3405 44.2767 18.9326 44.1153 18.5134 43.9786C18.0935 43.8443 17.6671 43.7313 17.2358 43.6401C16.8029 43.5544 16.3649 43.4975 15.9245 43.4698Z" fill="black"/>
<path d="M71.2222 63.5961C71.0994 64.5369 70.6973 65.4192 70.068 66.1293C69.4387 66.8393 68.611 67.3443 67.6918 67.5793C67.6403 67.8176 67.5722 68.052 67.4879 68.2808C67.0987 69.3413 66.3485 70.2308 65.3688 70.7932C64.3891 71.3556 63.2427 71.5549 62.1307 71.3562C61.9886 71.6265 61.8197 71.8819 61.6263 72.1183C60.9678 72.9259 60.078 73.5128 59.0765 73.8005C58.0749 74.0881 57.0093 74.0627 56.0226 73.7277C55.0988 73.409 54.2906 72.8231 53.7004 72.0443C52.9702 72.7613 52.0558 73.2623 51.0584 73.4918C50.0611 73.7212 49.0197 73.6702 48.0496 73.3444C47.1996 73.0696 46.4361 72.5776 45.8346 71.9171C45.2331 71.2567 44.8144 70.4506 44.6201 69.5787C43.255 70.1609 41.7226 70.2168 40.3187 69.7356C37.5952 68.8031 36.0733 66.1626 36.6852 63.6073C36.0038 63.6013 35.3284 63.4793 34.688 63.2464C31.9198 62.2602 30.4942 59.5188 31.4737 57.1473C32.0879 55.6657 33.5785 53.1014 33.6816 53.1933C35.8021 55.2131 38.3217 56.7669 41.0785 57.7548C43.2122 58.5113 45.4506 58.931 47.7134 58.9988C47.7134 59.0795 47.7134 59.1647 47.7134 59.2476C47.7873 65.006 53.3843 69.6011 60.2187 69.5204C65.0648 69.4621 69.2385 67.0503 71.2222 63.5961Z" fill="black"/>
<path d="M67.6717 48.6074C67.2727 52.7945 64.6882 55.9326 61.9021 55.621C61.8415 55.621 61.7765 55.6053 61.716 55.5941C60.7012 55.3921 59.7986 54.8181 59.1854 53.9847C57.9839 52.4672 57.3317 50.0711 57.5782 47.4709C57.639 46.8041 57.762 46.1445 57.9458 45.5006C58.1012 44.9401 58.3068 44.3947 58.56 43.8711C59.6449 41.6296 61.4493 40.2488 63.3523 40.4617C66.1363 40.7733 68.0707 44.4225 67.6717 48.6074Z" fill="white"/>
<path d="M62.2855 55.8655C62.1492 55.8658 62.013 55.8583 61.8775 55.8431C61.8148 55.8431 61.7453 55.8274 61.678 55.8162C60.6738 55.6458 59.7526 55.0608 59.0106 54.1239C57.7308 52.5055 57.1121 50.0107 57.3564 47.4487C57.4175 46.766 57.5428 46.0905 57.7307 45.4313C57.8898 44.8585 58.0998 44.3012 58.3584 43.7659C59.5217 41.372 61.4427 40.0136 63.3771 40.2311C66.2776 40.5583 68.3084 44.3218 67.8959 48.6232C67.6471 51.2211 66.551 53.5433 64.9596 54.8322C64.2158 55.4776 63.27 55.843 62.2855 55.8655ZM62.9736 40.6637C61.3553 40.6637 59.7683 41.8987 58.7618 43.9699C58.5152 44.4817 58.3142 45.0142 58.1611 45.5613C57.981 46.1919 57.8609 46.8381 57.8025 47.4913C57.5783 49.9412 58.1522 52.3172 59.3603 53.8459C59.9398 54.635 60.7925 55.18 61.752 55.3746C61.808 55.3746 61.8663 55.3926 61.9246 55.397C62.866 55.5024 63.8187 55.1908 64.6771 54.5004C66.1767 53.2833 67.2123 51.0777 67.4499 48.5963C67.8354 44.537 65.9862 40.9909 63.3255 40.6928C63.2089 40.6763 63.0914 40.6666 62.9736 40.6637Z" fill="black"/>
<path d="M65.1679 49.5958C65.085 52.4851 63.6325 54.8858 61.716 55.5941C60.7012 55.3921 59.7986 54.8181 59.1854 53.9847C57.9839 52.4672 57.3317 50.071 57.5782 47.4709C57.639 46.8041 57.762 46.1445 57.9458 45.5006C58.1012 44.9401 58.3068 44.3947 58.56 43.8711C59.1996 43.3721 59.9904 43.1064 60.8015 43.1179C63.3165 43.1896 65.2666 46.0924 65.1679 49.5958Z" fill="#008BD9"/>
<path d="M61.7363 55.8247H61.678C60.6738 55.6544 59.7526 55.0694 59.0106 54.1324C57.7308 52.514 57.1121 50.0193 57.3564 47.4572C57.4175 46.7745 57.5428 46.0991 57.7307 45.4399C57.8898 44.8671 58.0998 44.3097 58.3584 43.7744L58.383 43.7274L58.4256 43.6937C59.1085 43.1654 59.9518 42.8869 60.8151 42.9047C62.1017 42.9428 63.2807 43.6713 64.1526 44.9557C65.0356 46.3428 65.4685 47.9688 65.3922 49.6113C65.3093 52.5118 63.8231 55.0626 61.7923 55.8158L61.7363 55.8247ZM58.7372 44.0255C58.5014 44.5221 58.3087 45.0381 58.1611 45.5676C57.981 46.1982 57.8609 46.8444 57.8025 47.4976C57.5783 49.9475 58.1522 52.3235 59.3603 53.8522C59.9285 54.6241 60.7577 55.1634 61.6937 55.3697C63.534 54.6524 64.8677 52.2899 64.9439 49.5956C65.0183 48.0463 64.612 46.5118 63.7805 45.2023C62.9983 44.0389 61.9403 43.3822 60.8016 43.3486C60.0575 43.3395 59.3314 43.5776 58.7372 44.0255Z" fill="black"/>
<path d="M62.9937 49.6654C62.9242 52.1064 61.2363 54.043 59.2235 53.9848H59.1854C57.9839 52.4673 57.3317 50.0711 57.5782 47.471C57.639 46.8042 57.762 46.1445 57.9458 45.5007C58.4168 45.2513 58.944 45.127 59.4768 45.1398C61.4896 45.1981 63.0632 47.2222 62.9937 49.6654Z" fill="black"/>
<path d="M59.311 54.211H59.0868L59.0218 54.1281C57.7419 52.5097 57.1233 50.015 57.3676 47.4529C57.4287 46.7702 57.554 46.0948 57.7419 45.4356L57.7688 45.3437L57.854 45.2988C58.3583 45.0324 58.9224 44.8997 59.4925 44.9133C61.6264 44.9738 63.3031 47.1077 63.2291 49.6698C63.1462 52.1982 61.4023 54.211 59.311 54.211ZM59.2975 53.7627H59.311C61.1602 53.7627 62.7046 51.9426 62.7696 49.6608C62.8346 47.379 61.3552 45.4176 59.4701 45.3706C59.0045 45.3569 58.5427 45.4577 58.1252 45.6642C57.9614 46.2645 57.8504 46.8781 57.7935 47.4977C57.5738 49.8962 58.1319 52.2318 59.2975 53.7627Z" fill="black"/>
<path d="M48.7893 47.2197C48.3276 51.4046 45.2029 54.5292 41.7891 54.1975C41.7129 54.1975 41.6345 54.1818 41.565 54.1706C40.3769 53.9916 39.2836 53.4185 38.4605 52.5432C36.9856 51.0168 36.1719 48.6184 36.4566 46.016C36.5286 45.3467 36.6744 44.6874 36.8914 44.0502C37.0815 43.4842 37.3302 42.9395 37.6334 42.4251C38.9424 40.1971 41.1391 38.8185 43.4613 39.0427C46.8661 39.3767 49.2511 43.037 48.7893 47.2197Z" fill="white"/>
<path d="M42.2801 54.4464C42.1097 54.4464 41.9394 54.4464 41.7668 54.4217C41.6906 54.4217 41.6076 54.4038 41.5292 54.3926C40.2933 54.2062 39.1559 53.6102 38.2992 52.7003C36.7301 51.0729 35.9523 48.5647 36.2348 45.9937C36.3071 45.3064 36.4575 44.6296 36.6831 43.9764C36.8766 43.3959 37.1313 42.8376 37.4429 42.3109C38.8416 39.9327 41.1571 38.5945 43.495 38.8209C44.2474 38.9043 44.9756 39.1374 45.6366 39.5066C46.2976 39.8758 46.878 40.3735 47.3436 40.9705C48.6706 42.6046 49.2825 44.8909 49.0247 47.2467C48.563 51.3352 45.5975 54.4464 42.2801 54.4464ZM42.9749 39.2468C40.9822 39.2468 39.0411 40.4751 37.8195 42.5396C37.5247 43.0414 37.2828 43.5725 37.0977 44.1243C36.8845 44.746 36.7417 45.3895 36.6718 46.043C36.4051 48.4818 37.1313 50.8555 38.6152 52.3887C39.4023 53.2286 40.4478 53.781 41.5852 53.9578C41.6547 53.969 41.7309 53.9779 41.8094 53.9846C45.0819 54.3029 48.1214 51.2612 48.5697 47.2041C48.8163 44.9626 48.238 42.8063 46.9872 41.2664C46.562 40.7122 46.0286 40.2502 45.4195 39.9084C44.8103 39.5666 44.138 39.3522 43.4434 39.2782C43.2879 39.2598 43.1315 39.2493 42.9749 39.2468Z" fill="black"/>
<path d="M45.7386 48.1926C45.6557 51.0819 43.8961 53.4758 41.5605 54.1707C40.3741 53.9907 39.2824 53.4177 38.4605 52.5434C36.9856 51.0169 36.1719 48.6185 36.4566 46.0161C36.5286 45.3468 36.6744 44.6875 36.8914 44.0503C37.0815 43.4843 37.3302 42.9396 37.6334 42.4252C38.4542 41.9157 39.4067 41.6584 40.3725 41.6855C43.4366 41.7842 45.8373 44.6981 45.7386 48.1926Z" fill="#008BD9"/>
<path d="M41.5762 54.3992H41.5269C40.292 54.2122 39.1554 53.6163 38.2992 52.7069C36.7301 51.0795 35.9523 48.5713 36.2348 46.0003C36.3071 45.313 36.4575 44.6362 36.6831 43.983C36.8766 43.4025 37.1313 42.8442 37.4429 42.3175L37.4698 42.2682L37.5281 42.2323C38.3874 41.7035 39.3818 41.4357 40.3905 41.4613C41.1715 41.4914 41.9366 41.6906 42.6332 42.045C43.3297 42.3995 43.9411 42.9009 44.4252 43.5145C45.4908 44.8366 46.0411 46.5002 45.9741 48.197C45.8911 51.1109 44.1069 53.6461 41.6345 54.3835L41.5762 54.3992ZM37.7971 42.5887C37.5155 43.0761 37.2834 43.5905 37.1044 44.1242C36.8912 44.7458 36.7484 45.3894 36.6786 46.0429C36.4118 48.4816 37.1381 50.8554 38.6219 52.3886C39.3967 53.2118 40.4205 53.7576 41.5359 53.9419C43.7998 53.2403 45.4316 50.8823 45.5078 48.1858C45.5741 46.5984 45.0628 45.0408 44.0688 43.8014C43.625 43.2373 43.0641 42.7762 42.4248 42.45C41.7855 42.1237 41.083 41.9401 40.3658 41.9118C39.4627 41.8888 38.5716 42.1236 37.7971 42.5887Z" fill="black"/>
<path d="M43.0825 48.2509C43.0639 48.8332 42.9309 49.406 42.6909 49.9369C42.451 50.4677 42.1088 50.9461 41.684 51.3447C41.2592 51.7432 40.76 52.0543 40.215 52.2599C39.67 52.4656 39.0898 52.5619 38.5076 52.5434H38.4605C36.9856 51.0169 36.1719 48.6185 36.4566 46.0161C36.5286 45.3468 36.6744 44.6876 36.8914 44.0504C37.4815 43.801 38.1182 43.681 38.7586 43.6984C39.3416 43.713 39.916 43.8423 40.4489 44.079C40.9819 44.3158 41.4629 44.6553 41.8645 45.0781C42.2661 45.501 42.5804 45.9988 42.7894 46.5433C42.9984 47.0877 43.098 47.668 43.0825 48.2509Z" fill="black"/>
<path d="M38.6488 52.7675H38.3731L38.3103 52.7002C36.7413 51.0729 35.9635 48.5647 36.2459 45.9937C36.3183 45.3064 36.4687 44.6296 36.6942 43.9763L36.7278 43.8822L36.8197 43.8418C37.6957 43.4732 38.6629 43.3791 39.5934 43.572C40.524 43.7649 41.3741 44.2357 42.0312 44.9222C42.4527 45.3648 42.7825 45.8865 43.0014 46.4571C43.2203 47.0277 43.3242 47.6361 43.3069 48.247C43.2896 48.858 43.1515 49.4594 42.9006 50.0168C42.6498 50.5741 42.2911 51.0763 41.8452 51.4943C40.9811 52.3109 39.8377 52.7664 38.6488 52.7675ZM38.5704 52.3192C39.6754 52.3421 40.7453 51.93 41.5493 51.1715C41.9531 50.795 42.2778 50.3419 42.5045 49.8385C42.7312 49.3351 42.8553 48.7915 42.8695 48.2397C42.8872 47.6872 42.7944 47.1367 42.5965 46.6206C42.3987 46.1044 42.0998 45.633 41.7174 45.2338C41.1322 44.6237 40.3787 44.2016 39.5528 44.0212C38.7269 43.8407 37.866 43.9102 37.0798 44.2206C36.8869 44.8131 36.7555 45.4237 36.6875 46.043C36.4073 48.4481 37.1179 50.7882 38.5591 52.3192H38.5704Z" fill="black"/>
<path d="M35.6272 35.1202C35.6272 35.1202 43.1183 29.5545 48.9126 38.525C48.9126 38.525 48.6884 33.2911 46.1219 30.3278C43.7661 27.6156 37.4988 26.4949 35.6272 35.1202Z" fill="black"/>
<path d="M68.3912 37.7496C68.3912 37.7496 63.7423 31.4106 58.903 39.2581C58.903 39.2581 59.4387 34.5106 61.5143 31.953C63.4129 29.6039 67.665 29.799 68.3912 37.7496Z" fill="black"/>
<path d="M27.5378 40.2152C26.8116 39.4508 25.8724 39.081 25.906 38.023C25.9441 36.761 26.3296 33.6274 26.426 32.677C26.5224 31.7266 25.321 32.8429 24.3728 33.1948C22.1134 34.0309 20.2238 35.1584 19.724 38.1261C19.3026 40.6343 18.982 45.346 19.0806 48.372C19.1277 49.8379 20.708 51.0439 22.3667 49.1789C22.7298 48.7687 23.7631 47.3857 24.2899 47.5269C24.5723 47.6051 24.8643 47.6428 25.1573 47.639C27.1747 47.6121 28.7751 45.6822 28.7437 43.3309C28.7476 42.1777 28.317 41.0653 27.5378 40.2152Z" fill="#4C1A01"/>
<path d="M20.6608 50.3579C20.4706 50.3582 20.2817 50.3256 20.1026 50.2615C19.7324 50.1061 19.4165 49.8446 19.1947 49.5099C18.9729 49.1752 18.8552 48.7824 18.8564 48.3809C18.76 45.4535 19.0559 40.7396 19.5019 38.0901C19.9995 35.1426 21.777 33.9187 24.2942 32.9862C24.6048 32.8571 24.9046 32.7034 25.1908 32.5267C25.7602 32.2017 26.1704 31.9664 26.4573 32.1524C26.5381 32.2162 26.5989 32.3019 26.6323 32.3993C26.6657 32.4967 26.6703 32.6016 26.6456 32.7016C26.6209 32.9257 26.5806 33.2978 26.5313 33.7349C26.3811 35.0798 26.1525 37.0972 26.1256 38.0319C26.1054 38.6909 26.5223 39.0383 27.0535 39.4799C27.2784 39.6623 27.4931 39.8569 27.6968 40.0627C28.5131 40.9546 28.9664 42.1195 28.9678 43.3285C28.9969 45.7942 27.2866 47.8362 25.1572 47.8653C24.8422 47.8697 24.5282 47.8289 24.2248 47.7443C24.0253 47.6905 23.5277 48.1343 22.7521 49.0668C22.6647 49.1721 22.5885 49.264 22.5279 49.329C21.8084 50.1449 21.1494 50.3579 20.6608 50.3579ZM26.204 32.5357C25.9268 32.6291 25.6624 32.7571 25.4172 32.9168C25.1086 33.1056 24.7856 33.2697 24.4512 33.4076C22.0796 34.2841 20.4052 35.425 19.9457 38.1641C19.4974 40.7911 19.2083 45.4624 19.3047 48.3674C19.3004 48.6792 19.3883 48.9853 19.5574 49.2473C19.7265 49.5093 19.9692 49.7155 20.2551 49.8401C20.8535 50.0642 21.5439 49.7683 22.1984 49.0309C22.2545 48.9681 22.3285 48.8807 22.4114 48.7798C23.1264 47.9213 23.8101 47.1637 24.3503 47.3139C24.6123 47.386 24.8832 47.4207 25.155 47.417C27.0378 47.3924 28.5508 45.5611 28.5172 43.3352C28.5187 42.2387 28.1092 41.1815 27.3696 40.372C27.1776 40.1784 26.9748 39.9958 26.7621 39.8251C26.2152 39.3768 25.6414 38.8948 25.675 38.0319C25.7041 37.068 25.9328 35.0372 26.083 33.6946C26.1323 33.262 26.1726 32.8988 26.1973 32.668C26.2052 32.6243 26.2075 32.5799 26.204 32.5357Z" fill="black"/>
<path d="M52.3758 74.9584C46.7048 74.9584 43.9903 71.6993 43.9567 71.6589C43.9193 71.6126 43.9018 71.5532 43.9081 71.4939C43.9144 71.4347 43.944 71.3803 43.9903 71.3429C44.0367 71.3054 44.096 71.2879 44.1553 71.2942C44.2146 71.3005 44.2689 71.3301 44.3064 71.3765C44.3445 71.4236 48.238 76.0836 56.5225 73.9609C56.5802 73.9467 56.6412 73.956 56.692 73.9866C56.7429 74.0173 56.7795 74.0669 56.7938 74.1246C56.8081 74.1819 56.7991 74.2426 56.7689 74.2934C56.7387 74.3442 56.6896 74.381 56.6324 74.3958C55.2425 74.76 53.8125 74.949 52.3758 74.9584Z" fill="black"/>
<path d="M16.2965 55.8498L15.8482 55.7647C15.8773 55.61 16.6103 51.9182 19.4346 49.5848L19.7215 49.93C17.025 52.1626 16.3032 55.8117 16.2965 55.8498Z" fill="black"/>
<path d="M60.2083 69.5227C67.0413 69.438 72.5226 64.7032 72.4513 58.9472C72.38 53.1912 66.7829 48.5937 59.95 48.6783C53.1171 48.763 47.6357 53.4978 47.707 59.2538C47.7784 65.0098 53.3754 69.6074 60.2083 69.5227Z" fill="#FCBD9A"/>
<path d="M60.0215 69.7448C56.7333 69.7448 53.6355 68.6846 51.2797 66.7502C48.8656 64.7664 47.5185 62.1058 47.4826 59.2546C47.4467 56.4034 48.7289 53.7069 51.0914 51.6671C53.454 49.6273 56.5809 48.4909 59.9431 48.4506H60.1336C63.4197 48.4506 66.5174 49.5108 68.8755 51.4474C71.2873 53.4289 72.6367 56.0918 72.6726 58.943C72.7084 61.7942 71.4263 64.4885 69.0615 66.5305C66.6967 68.5725 63.5654 69.7045 60.2076 69.747L60.0215 69.7448ZM60.1381 48.8989H59.9431C56.6907 48.9392 53.649 50.042 51.3761 52.0056C49.1032 53.9691 47.8883 56.5312 47.9219 59.2479C47.9556 61.9646 49.2467 64.5064 51.5554 66.4027C53.8642 68.299 56.8297 69.2965 60.0126 69.2965H60.1964C63.4488 69.2561 66.4928 68.1533 68.7634 66.1898C71.034 64.2262 72.2534 61.6642 72.2198 58.9475C72.1862 56.2286 70.8951 53.6889 68.5863 51.7926C66.2776 49.8963 63.321 48.8966 60.1381 48.8966V48.8989Z" fill="black"/>
<path d="M76.7991 27.3423C76.7991 27.3423 78.6932 7.67091 64.0831 2.74185C52.7568 -1.08215 37.8374 1.71748 23.1152 17.6904C19.2352 21.8999 19.2464 22.2272 15.4941 23.7088C7.55476 26.8469 6.91817 35.275 9.2314 38.4489C9.2314 38.4489 12.9299 32.9931 18.3319 36.8171C18.8452 37.1802 19.818 38.4691 19.818 38.4691C19.818 38.4691 34.6993 22.485 76.7991 27.3423Z" fill="url(#paint4_linear)"/>
<path d="M19.8203 38.6931C19.788 38.6914 19.7564 38.6827 19.7278 38.6676C19.6992 38.6525 19.6741 38.6314 19.6544 38.6057C19.3877 38.2538 18.6121 37.281 18.2154 37.0008C16.671 35.907 15.1244 35.49 13.6181 35.7613C11.0538 36.2253 9.44665 38.5519 9.43096 38.5743C9.41083 38.6041 9.38383 38.6287 9.35223 38.6458C9.32063 38.663 9.28536 38.6723 9.2494 38.673C9.21441 38.6727 9.17997 38.6643 9.14883 38.6483C9.11769 38.6323 9.09073 38.6093 9.07008 38.5811C7.80812 36.8529 7.50103 33.8381 8.29901 31.0788C9.3032 27.6112 11.8361 24.9191 15.4292 23.5003C18.6996 22.2092 19.0492 21.8259 21.7682 18.8447C22.1223 18.4547 22.5168 18.022 22.9629 17.5379C29.8981 10.0132 37.2524 4.98549 44.8175 2.57812C51.3896 0.491281 58.0804 0.473351 64.1684 2.52881C70.2204 4.57081 74.3627 9.5178 76.1514 16.8363C76.9737 20.2836 77.2759 23.8346 77.048 27.3713C77.0453 27.4014 77.0366 27.4305 77.0223 27.4571C77.0081 27.4837 76.9886 27.5071 76.9651 27.526C76.9419 27.5444 76.9153 27.558 76.8868 27.5661C76.8584 27.5742 76.8286 27.5766 76.7992 27.5731C55.1172 25.0716 40.8321 28.2141 32.6641 31.2895C23.8191 34.6203 20.0489 38.5923 20.0131 38.6326C19.9879 38.6571 19.9574 38.6753 19.9239 38.6858C19.8904 38.6963 19.8549 38.6988 19.8203 38.6931ZM14.5102 35.2323C15.8215 35.2323 17.1462 35.7007 18.462 36.6332C18.8766 36.9268 19.5401 37.754 19.8427 38.1328C20.7057 37.3012 24.6059 33.8313 32.4422 30.8748C40.6304 27.7838 54.9289 24.6277 76.5997 27.0934C76.7917 23.681 76.4897 20.2587 75.7031 16.9327C74.4815 11.9431 71.4599 5.46741 64.0137 2.95245C56.3186 0.356793 40.7963 -1.16294 23.2812 17.8427C22.8329 18.3246 22.4406 18.7573 22.0842 19.1473C19.3653 22.1285 18.9461 22.588 15.5839 23.9172C12.123 25.2845 9.6865 27.8734 8.72041 31.2043C7.99641 33.7036 8.21383 36.4068 9.2494 38.061C9.76719 37.4065 11.2824 35.7299 13.5307 35.3219C13.8545 35.2622 14.1831 35.2322 14.5124 35.2323H14.5102Z" fill="black"/>
<path d="M70.7493 40.4884C70.7493 40.4884 72.3879 15.9104 25.6481 34.2997C25.6481 34.2997 40.6348 21.2541 60.4093 21.7899C79.5046 22.3054 92.7384 37.5902 70.7493 40.4884Z" fill="#008BD9"/>
<path d="M70.7494 40.7128C70.6927 40.7126 70.6383 40.691 70.5969 40.6523C70.5727 40.6299 70.5537 40.6024 70.5413 40.5717C70.5289 40.5411 70.5234 40.5082 70.5252 40.4752C70.5252 40.4169 70.8525 34.5173 65.7418 30.7874C62.6553 28.5325 58.2373 27.5036 52.5999 27.7255C45.4989 28.0057 36.4612 30.2876 25.7356 34.5083C25.687 34.5247 25.6343 34.5239 25.5863 34.5061C25.5382 34.4883 25.4977 34.4546 25.4715 34.4105C25.4453 34.3665 25.4349 34.3148 25.4422 34.2641C25.4495 34.2133 25.4739 34.1666 25.5114 34.1317C25.5495 34.0981 29.3511 30.8143 35.522 27.6448C41.2198 24.7174 50.1634 21.2857 60.4272 21.5659C66.0131 21.7161 71.4599 23.1349 75.7613 25.5468C79.8431 27.8376 82.2617 30.6821 82.4029 33.3517C82.5172 35.5147 81.1566 39.3455 70.7852 40.7128H70.7494ZM54.0726 27.2481C59.1115 27.2481 63.1215 28.3151 66.0131 30.4288C70.6821 33.8426 70.978 38.998 70.978 40.2331C78.1306 39.2446 82.125 36.7498 81.9501 33.3764C81.6901 28.3845 72.2243 22.3325 60.4093 22.0142C50.2531 21.7407 41.379 25.1366 35.7327 28.0371C32.641 29.6172 29.6947 31.4669 26.9281 33.5646C37.1134 29.6622 45.741 27.5462 52.591 27.2772C53.0961 27.2578 53.5899 27.2481 54.0726 27.2481Z" fill="black"/>
<path d="M46.4336 141.264C43.8668 141.282 41.3241 140.769 38.9649 139.758C38.9384 139.745 38.9147 139.727 38.8952 139.705C38.8757 139.683 38.8607 139.657 38.8512 139.629C38.8416 139.601 38.8376 139.572 38.8394 139.542C38.8412 139.513 38.8489 139.484 38.8618 139.457C38.8748 139.431 38.8928 139.407 38.9149 139.388C38.937 139.368 38.9627 139.353 38.9906 139.344C39.0185 139.334 39.048 139.33 39.0775 139.332C39.1069 139.334 39.1357 139.341 39.1622 139.354C39.2384 139.392 46.7608 143.008 54.8527 138.727C54.9051 138.701 54.9656 138.696 55.0213 138.714C55.077 138.732 55.1234 138.771 55.1507 138.823C55.1779 138.875 55.1838 138.936 55.167 138.992C55.1503 139.048 55.1123 139.095 55.0611 139.123C52.4055 140.537 49.4418 141.272 46.4336 141.264Z" fill="black"/>
<path d="M38.5994 101.475C38.5764 101.48 38.5529 101.48 38.5299 101.475L29.2165 98.4404C29.1801 98.4284 29.1474 98.4073 29.1215 98.379C29.0956 98.3508 29.0774 98.3163 29.0686 98.279L26.177 86.0248C26.1633 85.9668 26.1733 85.9058 26.2046 85.8551C26.2359 85.8045 26.2861 85.7683 26.344 85.7547C26.402 85.741 26.463 85.7509 26.5136 85.7822C26.5643 85.8135 26.6004 85.8637 26.6141 85.9216L29.4765 98.0459L38.5523 101.005L43.9499 96.5038C43.7974 95.903 43.1609 93.4486 42.5803 91.9423C42.5671 91.9145 42.5597 91.8842 42.5587 91.8534C42.5577 91.8225 42.5631 91.7918 42.5745 91.7632C42.5859 91.7345 42.6031 91.7086 42.625 91.6869C42.6469 91.6652 42.6731 91.6482 42.7019 91.6371C42.7306 91.6259 42.7614 91.6209 42.7922 91.6222C42.823 91.6235 42.8532 91.6311 42.8809 91.6446C42.9086 91.6581 42.9333 91.6772 42.9533 91.7006C42.9733 91.7241 42.9883 91.7514 42.9972 91.7809C43.6697 93.5248 44.4116 96.5015 44.4206 96.5329C44.4303 96.5734 44.4286 96.6159 44.4155 96.6555C44.4024 96.6951 44.3786 96.7303 44.3466 96.7571L38.7429 101.428C38.7019 101.46 38.6512 101.477 38.5994 101.475Z" fill="black"/>
<path d="M67.4341 100.85C67.4031 100.85 67.3724 100.843 67.3444 100.83L60.6446 97.9158C60.6142 97.9023 60.5871 97.8823 60.5654 97.8571C60.5437 97.8319 60.5279 97.8021 60.5191 97.7701L59.1204 92.5182C59.1116 92.4895 59.1086 92.4592 59.1117 92.4293C59.1149 92.3994 59.124 92.3704 59.1385 92.3441C59.1531 92.3178 59.1728 92.2946 59.1965 92.2761C59.2201 92.2575 59.2473 92.2439 59.2764 92.2361C59.3054 92.2283 59.3357 92.2264 59.3655 92.2305C59.3953 92.2347 59.424 92.2448 59.4498 92.2602C59.4756 92.2757 59.4981 92.2961 59.5158 92.3205C59.5335 92.3448 59.5462 92.3724 59.553 92.4017L60.9248 97.5571L67.3041 100.339L68.2231 97.8194C68.2331 97.7915 68.2486 97.7658 68.2686 97.7439C68.2886 97.722 68.3127 97.7043 68.3396 97.6917C68.3665 97.6792 68.3956 97.6722 68.4252 97.671C68.4549 97.6698 68.4845 97.6746 68.5123 97.6849C68.5677 97.7056 68.6127 97.7473 68.6375 97.8011C68.6623 97.8548 68.6648 97.9162 68.6445 97.9718L67.6426 100.718C67.6323 100.746 67.6163 100.773 67.5955 100.795C67.5746 100.817 67.5495 100.835 67.5215 100.848C67.4928 100.854 67.4631 100.854 67.4341 100.85Z" fill="black"/>
<path d="M66.8244 130.7C66.7814 130.698 66.7397 130.685 66.7043 130.66C66.6689 130.636 66.6413 130.602 66.6248 130.562C66.6082 130.522 66.6035 130.479 66.611 130.436C66.6186 130.394 66.6382 130.355 66.6675 130.323C68.8036 128.34 69.2698 127.351 69.2743 127.34C69.2852 127.311 69.3017 127.285 69.323 127.263C69.3443 127.241 69.3699 127.224 69.3982 127.212C69.4264 127.2 69.4568 127.195 69.4874 127.195C69.518 127.195 69.5481 127.202 69.576 127.215C69.6039 127.227 69.629 127.245 69.6496 127.268C69.6702 127.291 69.686 127.317 69.6959 127.346C69.7059 127.375 69.7098 127.406 69.7075 127.436C69.7051 127.467 69.6965 127.497 69.6823 127.524C69.6643 127.566 69.1959 128.586 66.9723 130.65C66.9305 130.684 66.878 130.702 66.8244 130.7Z" fill="black"/>
<path d="M40.8086 94.7449C41.154 92.4446 39.466 90.2843 37.0384 89.9198C34.6108 89.5552 32.3628 91.1245 32.0174 93.4248C31.6719 95.7251 33.3599 97.8854 35.7875 98.2499C38.2151 98.6145 40.4631 97.0452 40.8086 94.7449Z" fill="url(#paint5_linear)"/>
<path d="M36.4858 98.5185C36.2389 98.5187 35.9924 98.5 35.7484 98.4625C34.5373 98.2908 33.4386 97.66 32.6797 96.7007C32.3108 96.2402 32.0411 95.7084 31.8875 95.1387C31.734 94.5689 31.6999 93.9736 31.7875 93.3901C31.8751 92.8066 32.0824 92.2475 32.3964 91.7479C32.7104 91.2484 33.1243 90.8191 33.6122 90.4872C34.6223 89.797 35.8561 89.5144 37.0659 89.6961C38.2758 89.8778 39.3721 90.5103 40.135 91.4668C40.5032 91.9273 40.7723 92.459 40.9255 93.0285C41.0786 93.5979 41.1125 94.1928 41.025 94.776C40.9374 95.3591 40.7304 95.9179 40.4167 96.4173C40.1031 96.9166 39.6898 97.3458 39.2025 97.678C38.4047 98.2305 37.4562 98.524 36.4858 98.5185ZM36.3267 90.0815C35.4455 90.0772 34.5844 90.3449 33.861 90.8481C33.4236 91.1454 33.0525 91.5299 32.7709 91.9775C32.4893 92.4252 32.3034 92.9262 32.2249 93.4492C32.1464 93.9721 32.1769 94.5057 32.3146 95.0163C32.4523 95.5269 32.6941 96.0034 33.0249 96.416C33.7162 97.2831 34.7094 97.8571 35.8057 98.0234C36.9021 98.1896 38.0208 97.9358 38.938 97.3126C39.3754 97.0154 39.7465 96.6308 40.0281 96.1832C40.3097 95.7356 40.4956 95.2345 40.5741 94.7116C40.6526 94.1886 40.6221 93.6551 40.4844 93.1445C40.3467 92.6339 40.1049 92.1573 39.7741 91.7447C39.0867 90.8735 38.0909 90.2997 36.9924 90.1421C36.7722 90.1057 36.5498 90.0854 36.3267 90.0815Z" fill="black"/>
<path d="M67.1371 97.6405C68.1241 96.9202 67.9937 95.0612 66.8458 93.4882C65.6979 91.9152 63.9673 91.2239 62.9803 91.9442C61.9933 92.6644 62.1237 94.5235 63.2716 96.0964C64.4195 97.6694 66.1502 98.3607 67.1371 97.6405Z" fill="url(#paint6_linear)"/>
<path d="M66.2058 98.1535C65.8524 98.1446 65.504 98.0685 65.1791 97.9293C64.3483 97.548 63.6291 96.96 63.0903 96.2214C62.5514 95.4828 62.211 94.6185 62.1016 93.7108C62.041 92.8456 62.3055 92.153 62.848 91.7585C63.9329 90.965 65.8068 91.68 67.0261 93.3499C68.2433 95.0199 68.3531 97.0238 67.2682 97.815C66.9598 98.0393 66.5871 98.158 66.2058 98.1535ZM63.9194 91.8773C63.631 91.8708 63.3481 91.9572 63.1125 92.1238C62.7001 92.4242 62.4983 92.9801 62.5476 93.6929C62.6509 94.5168 62.9621 95.3009 63.4518 95.9714C63.9416 96.6419 64.5938 97.1768 65.3473 97.5259C66.0018 97.7881 66.5913 97.7679 67.0037 97.4653C67.9003 96.8198 67.7367 95.0983 66.663 93.6279C65.8673 92.534 64.7869 91.8818 63.9194 91.8818V91.8773Z" fill="black"/>
<path d="M63.1552 3.98118C51.9993 0.170633 37.3085 2.97026 22.8082 18.9477C18.9842 23.1572 18.9977 23.4889 15.3037 24.9728C12.0087 26.2908 9.9891 28.5592 8.92887 30.9643C8.70416 31.7417 8.56658 32.5416 8.51868 33.3493C9.44442 30.5945 11.5402 27.9002 15.2634 26.4006C16.0889 26.0848 16.8937 25.7172 17.673 25.3001C17.673 25.3001 17.673 25.3001 17.673 25.2866C32.0522 9.70148 52.0643 1.62537 63.1126 5.40901C74.3201 9.24646 74.8267 20.3508 75.7278 25.2687C75.5597 19.461 73.8539 7.64603 63.1552 3.98118Z" fill="url(#paint7_linear)"/>
<path d="M75.7545 25.4212L75.7276 25.271C75.7276 25.3226 75.7276 25.3696 75.7276 25.4189L75.7545 25.4212Z" fill="url(#paint8_linear)"/>
<path d="M26.6837 14.1689C25.5786 15.3502 24.4982 16.5472 23.4066 17.7352L20.1497 21.3216C19.0807 22.5082 18.1801 23.8365 17.4734 25.2688C16.7579 26.7095 16.1583 28.2048 15.6802 29.7406C15.9952 28.1473 16.4932 26.5956 17.164 25.1164C17.8311 23.6181 18.7272 22.2328 19.8202 21.01C20.9096 19.8175 22.0147 18.6407 23.1556 17.4931C24.2965 16.3454 25.4576 15.2247 26.6837 14.1689Z" fill="black"/>
<path d="M60.4764 67.4659C66.5703 67.3904 71.4612 63.3564 71.4005 58.4558C71.3397 53.5551 66.3504 49.6436 60.2565 49.7191C54.1625 49.7946 49.2716 53.8286 49.3324 58.7292C49.3931 63.6299 54.3825 67.5414 60.4764 67.4659Z" fill="url(#paint9_linear)"/>
<path d="M16.2989 53.6642C16.0972 54.182 15.9335 54.6482 15.9335 54.6482L15.9044 54.776C12.7192 53.3123 9.94875 50.2415 8.95576 46.9778C8.46223 45.4085 8.25495 43.7632 8.34383 42.1205C8.48075 41.4123 8.68259 40.7183 8.94679 40.0471C8.66995 42.0153 8.84159 44.0206 9.44889 45.9131C10.4307 49.1521 13.1518 52.1938 16.2989 53.6642Z" fill="url(#paint10_linear)"/>
<path d="M69.8527 68.4893C69.137 70.2305 68.1083 71.8258 66.8178 73.1964C65.9985 74.0647 65.085 74.8391 64.0943 75.5052C62.9964 76.1355 61.8413 76.6609 60.6447 77.0742C60.0004 77.3082 59.3957 77.6393 58.8515 78.056C58.2686 78.5032 57.7145 78.9868 57.1928 79.504C56.5014 80.1398 55.7405 80.6955 54.9244 81.1605C52.2787 82.6964 49.235 83.4082 46.1825 83.2047C41.6995 82.855 37.5819 80.6516 35.5197 78.9705C34.4572 78.1008 32.9801 76.8927 31.7092 76.3211C23.3775 72.571 15.2207 65.6919 16.3392 56.105C16.3483 56.0719 16.3551 56.0382 16.3594 56.0041C16.4042 55.6051 16.7539 54.8498 16.9825 54.3163C15.3395 64.2887 23.651 71.4212 32.1978 75.2653C33.4732 75.8347 34.9504 77.0451 36.0084 77.9148C38.0728 79.5959 42.1882 81.7993 46.6712 82.149C49.7236 82.353 52.7675 81.6412 55.413 80.1047C56.2291 79.6398 56.9901 79.0841 57.6814 78.4483C58.2042 77.9321 58.7581 77.4485 59.3401 77.0002C59.885 76.5845 60.4895 76.2535 61.1333 76.0185C62.3307 75.6051 63.4865 75.0798 64.5852 74.4494C65.575 73.7822 66.4883 73.0079 67.3086 72.1407C68.33 71.054 69.1871 69.8239 69.8527 68.4893Z" fill="url(#paint11_linear)"/>
<path d="M67.7883 8.88344L65.3226 12.8688L63.321 16.2042C63.2014 16.4303 63.0152 16.6143 62.7875 16.7309C62.5804 16.8474 62.3514 16.9199 62.115 16.9439H62.0097C61.7271 16.951 61.4475 16.8846 61.1983 16.7511C60.9627 16.6349 60.7675 16.4506 60.6379 16.2221L62.1038 13.5816L64.2691 9.88763C64.6434 9.2488 65.011 8.84085 65.3764 8.66153C65.7919 8.47422 66.2524 8.40967 66.7034 8.47548C67.097 8.50306 67.474 8.64484 67.7883 8.88344Z" fill="white"/>
<path d="M68.3845 10.2642L68.1895 17.1232C68.1911 17.5481 68.0354 17.9585 67.7524 18.2753C67.616 18.4271 67.45 18.5493 67.2646 18.6345C67.0791 18.7197 66.8782 18.7661 66.6742 18.7707C66.4742 18.7845 66.2736 18.7528 66.0876 18.6779C65.9016 18.6029 65.7351 18.4868 65.6005 18.3381C65.455 18.1777 65.3433 17.9897 65.272 17.7852C65.2008 17.5807 65.1715 17.3639 65.1859 17.1479L65.3271 12.889L67.7927 8.89465C67.8571 8.94308 67.9171 8.99708 67.9721 9.05604C68.1183 9.21951 68.2301 9.4107 68.301 9.61824C68.3718 9.82579 68.4002 10.0455 68.3845 10.2642Z" fill="white"/>
<path d="M58.4412 17.2914C58.4385 17.5437 58.3848 17.7928 58.2835 18.0239C58.1822 18.255 58.0354 18.4633 57.8517 18.6363C57.4725 19.0049 56.9682 19.2169 56.4396 19.2303C56.1836 19.2513 55.926 19.22 55.6824 19.1383C55.4389 19.0566 55.2145 18.9262 55.023 18.7551C54.8374 18.589 54.6915 18.3833 54.5961 18.1532C54.5006 17.9232 54.4581 17.6746 54.4716 17.4259L54.6957 9.556C54.6901 9.25384 54.753 8.95434 54.8795 8.67991C55.006 8.40547 55.193 8.16321 55.4264 7.97126C55.6009 7.82948 55.7989 7.71947 56.0115 7.64624L58.5466 12.6448L58.4412 17.2914Z" fill="white"/>
<path d="M62.1017 13.5952L60.6357 16.2312L58.5467 12.6448L56.0093 7.64626C56.3882 7.51769 56.7914 7.47707 57.1883 7.52746C57.7882 7.56038 58.3694 7.74719 58.8761 8.0699C59.2811 8.35682 59.6898 8.90374 60.1023 9.71068L60.5169 10.5131L61.6713 12.7546L62.1017 13.5952Z" fill="white"/>
</g>
<defs>
<linearGradient id="paint0_linear" x1="4.83718" y1="84.3253" x2="34.0749" y2="85.1471" gradientUnits="userSpaceOnUse">
<stop stop-color="#D19600"/>
<stop offset="0.53" stop-color="#FFE500"/>
<stop offset="0.99" stop-color="#D19600"/>
</linearGradient>
<linearGradient id="paint1_linear" x1="22900.2" y1="18365.7" x2="34710.7" y2="18365.7" gradientUnits="userSpaceOnUse">
<stop stop-color="#D19600"/>
<stop offset="0.53" stop-color="#FFE500"/>
<stop offset="0.99" stop-color="#D19600"/>
</linearGradient>
<linearGradient id="paint2_linear" x1="33.1795" y1="129.532" x2="98.9707" y2="131.381" gradientUnits="userSpaceOnUse">
<stop stop-color="#0088D4"/>
<stop offset="1" stop-color="#003CAE"/>
</linearGradient>
<linearGradient id="paint3_linear" x1="45.4298" y1="26.6104" x2="44.6972" y2="52.6732" gradientUnits="userSpaceOnUse">
<stop offset="0.39" stop-color="#EDA162"/>
<stop offset="1" stop-color="#FCBD9A" stop-opacity="0"/>
</linearGradient>
<linearGradient id="paint4_linear" x1="43.2872" y1="0.879439" x2="42.2053" y2="39.3732" gradientUnits="userSpaceOnUse">
<stop stop-color="#92D8FF"/>
<stop offset="0.1" stop-color="#6AC3F5"/>
<stop offset="0.22" stop-color="#44AFEB"/>
<stop offset="0.33" stop-color="#269FE3"/>
<stop offset="0.44" stop-color="#1194DD"/>
<stop offset="0.55" stop-color="#048DDA"/>
<stop offset="0.66" stop-color="#008BD9"/>
</linearGradient>
<linearGradient id="paint5_linear" x1="3798.25" y1="4226.9" x2="4132.03" y2="4236.34" gradientUnits="userSpaceOnUse">
<stop stop-color="#D19600"/>
<stop offset="0.53" stop-color="#FFE500"/>
<stop offset="0.99" stop-color="#D19600"/>
</linearGradient>
<linearGradient id="paint6_linear" x1="2609.7" y1="3359.85" x2="2719.3" y2="3362.93" gradientUnits="userSpaceOnUse">
<stop stop-color="#D19600"/>
<stop offset="0.53" stop-color="#FFE500"/>
<stop offset="0.99" stop-color="#D19600"/>
</linearGradient>
<linearGradient id="paint7_linear" x1="33473.3" y1="1286.65" x2="33473.3" y2="5719.24" gradientUnits="userSpaceOnUse">
<stop stop-color="#008BD9" stop-opacity="0"/>
<stop offset="1" stop-color="#004DFF"/>
</linearGradient>
<linearGradient id="paint8_linear" x1="93.1396" y1="46.3938" x2="93.1396" y2="46.4929" gradientUnits="userSpaceOnUse">
<stop stop-color="#008BD9" stop-opacity="0"/>
<stop offset="1" stop-color="#004DFF"/>
</linearGradient>
<linearGradient id="paint9_linear" x1="60.241" y1="67.3821" x2="60.7287" y2="49.7054" gradientUnits="userSpaceOnUse">
<stop stop-color="#EDA162"/>
<stop offset="1" stop-color="#FCBD9A"/>
</linearGradient>
<linearGradient id="paint10_linear" x1="2821" y1="4305.83" x2="2847.81" y2="3351.78" gradientUnits="userSpaceOnUse">
<stop stop-color="#EDA162"/>
<stop offset="1" stop-color="#FCBD9A"/>
</linearGradient>
<linearGradient id="paint11_linear" x1="26817.4" y1="12686.5" x2="26919.2" y2="9064.24" gradientUnits="userSpaceOnUse">
<stop stop-color="#EDA162"/>
<stop offset="1" stop-color="#FCBD9A"/>
</linearGradient>
</defs>
</svg>
