<svg width="52" height="78" viewBox="0 0 52 78" fill="none" xmlns="http://www.w3.org/2000/svg">
<path d="M31.4076 1.12194C26.1939 0.433796 20.6798 5.12077 19.6263 6.36256C19.3387 6.65399 19.0671 6.96078 18.8126 7.28158L6.5763 22.9205L2.28384 28.4077L1.66294 29.1945C-0.632354 32.1331 0.114066 35.7419 1.94761 39.0571C4.73155 44.1072 14.964 54.1737 15.1321 53.7254L16.0287 54.7296L16.9791 55.7854L17.6784 56.5587L18.6849 57.6794L21.0698 60.3311C22.4258 61.8071 24.2744 62.7366 26.2679 62.9447C27.7517 63.1141 29.2542 62.9035 30.6343 62.3328C30.93 62.2145 31.2176 62.0767 31.495 61.9203C31.7263 61.798 31.9508 61.6634 32.1675 61.5169C32.4806 61.3059 32.7801 61.0753 33.0641 60.8265C34.1393 59.8755 34.9254 58.6412 35.3325 57.2647C35.7945 55.6808 35.6801 53.9845 35.0097 52.4769C34.7674 51.932 34.4595 51.4186 34.0929 50.9482L31.4928 47.6241L30.3721 46.1985L29.8834 45.5709L29.406 44.9477L28.8456 44.2349L28.3547 43.6073C28.3547 43.6073 23.9367 36.6587 21.1819 34.4485C21.1662 34.3253 32.9655 24.1982 37.8318 20.1433C40.1674 18.1977 42.1175 15.0506 41.9337 12.1837C41.528 5.75511 37.2176 1.89077 31.4076 1.12194Z" fill="url(#paint0_linear)"/>
<path d="M27.2674 63.2135C26.9336 63.2165 26.5999 63.2015 26.2677 63.1686H26.2386C24.1964 62.9578 22.3012 62.0094 20.9083 60.5012L15.0199 53.9516C13.6884 53.3935 4.28984 43.7864 1.75022 39.1801C-0.491277 35.1163 -0.580936 31.7137 1.48797 29.0665L2.10662 28.2797L18.6466 7.14237C18.9053 6.81475 19.1822 6.50194 19.476 6.20542C20.8209 4.63637 26.3776 0.227351 31.4456 0.8998C37.7644 1.73364 41.7722 5.94765 42.1712 12.1701C42.3662 15.2252 40.2099 18.4642 37.9885 20.3157C33.3419 24.1867 22.9301 33.1191 21.5247 34.4371C24.2728 36.7839 28.3703 43.2148 28.5473 43.4927L34.2744 50.8112C34.6516 51.2943 34.9692 51.8211 35.2203 52.3803L35.2337 52.4162C35.9035 53.9621 36.0137 55.6932 35.5453 57.3116C35.1264 58.7296 34.317 60.0011 33.2097 60.9809C32.9206 61.2368 32.6151 61.4734 32.2951 61.6892C32.0753 61.8403 31.847 61.9787 31.6115 62.1039C31.3266 62.2643 31.0316 62.4058 30.7283 62.5276C29.6311 62.9818 28.455 63.2149 27.2674 63.2135ZM26.2677 62.7203H26.2969C27.7441 62.8849 29.2094 62.6798 30.5557 62.1241C30.8437 62.0089 31.1237 61.8749 31.394 61.7229C31.6168 61.6029 31.833 61.4712 32.0418 61.3284C32.3459 61.1232 32.6364 60.8985 32.9115 60.6559C33.9539 59.7321 34.7164 58.5347 35.1127 57.1995C35.5632 55.6715 35.4552 54.0331 34.8078 52.5775L34.7922 52.5394C34.5604 52.0225 34.2669 51.5355 33.918 51.0892L28.1797 43.7528C28.1237 43.6653 23.7393 36.7862 21.054 34.6321L20.9823 34.5738L20.9711 34.4842C20.9509 34.3228 20.9442 34.2735 27.5409 28.6092C31.4568 25.247 35.4444 21.8578 37.6971 19.9794C39.8333 18.1997 41.9067 15.1064 41.7318 12.2059C41.3485 6.21439 37.4864 2.15728 31.3963 1.35258C26.1108 0.653233 20.608 5.58005 19.8167 6.50803C19.5293 6.79598 19.2591 7.10061 19.0075 7.42032L2.46302 28.5464L1.8354 29.3332C-0.112462 31.8235 -0.00935226 35.0602 2.138 38.9515C4.65969 43.5264 13.5584 52.4431 14.9952 53.4383L15.0602 53.306L21.2513 60.1942C22.562 61.6163 24.3447 62.514 26.2677 62.7203Z" fill="black"/>
<path opacity="0.5" d="M34.6173 2.23584C34.6173 2.23584 43.8433 7.75665 37.3766 15.3127C30.9099 22.8688 18.2992 33.8634 18.2992 33.8634L30.0558 49.4642L30.8068 48.7626L19.745 34.3162C19.745 34.3162 37.5178 17.6887 38.8201 15.8731C40.1224 14.0575 44.5808 7.4675 34.6173 2.23584Z" fill="url(#paint1_linear)"/>
<path d="M35.8345 50.168C35.8346 50.1731 35.8337 50.178 35.8318 50.1827C35.8298 50.1873 35.827 50.1915 35.8233 50.1949C35.7583 50.3205 35.2629 50.5984 34.5546 50.957C34.2857 51.0893 33.9943 51.235 33.6782 51.3874C33.3622 51.5398 32.9542 51.7326 32.5709 51.9097C31.226 52.544 29.8027 53.1985 29.0652 53.5953C27.7539 54.3036 24.7481 60.1292 22.8719 62.4514C22.3811 63.0566 21.9753 63.4287 21.6795 63.4018C21.3685 63.3782 21.0623 63.3118 20.7694 63.2046C18.7005 62.4492 19.1824 59.8872 19.2699 58.8516C19.2811 58.7306 19.2945 58.6095 19.3147 58.4907C19.9871 54.3596 26.0706 50.8584 30.3317 49.1482C30.7418 48.9845 31.1319 48.8343 31.504 48.6999C31.876 48.5654 32.2145 48.4533 32.5306 48.3614C33.4003 48.1036 34.0481 47.9803 34.3417 48.0229C36.1304 48.265 35.848 49.8049 35.8345 50.168Z" fill="white"/>
<path d="M21.7086 63.6172H21.6592C21.3284 63.591 21.0027 63.5201 20.6909 63.4065C18.6467 62.6601 18.8977 60.2796 19.0165 59.1342C19.0277 59.0199 19.0389 58.9101 19.0479 58.8226C19.0479 58.6971 19.0726 58.5693 19.0927 58.4461C19.7405 54.4719 25.2793 50.9258 30.2487 48.9309C30.7239 48.7404 31.1004 48.5992 31.4322 48.4826C31.8513 48.3324 32.1808 48.2248 32.4678 48.1397C33.1088 47.9491 33.9584 47.7339 34.373 47.7945C35.5991 47.9626 36.1662 48.7269 36.0631 50.0696C36.0631 50.1032 36.0631 50.1324 36.0631 50.157C36.063 50.2083 36.0474 50.2583 36.0183 50.3005C35.9488 50.4237 35.7628 50.5874 34.6599 51.1433C34.391 51.2777 34.0973 51.4235 33.779 51.5759C33.4607 51.7283 33.0528 51.9233 32.6695 52.1004L32.0643 52.3828C30.8987 52.9297 29.7981 53.4453 29.175 53.7793C28.46 54.1648 27.0949 56.3615 25.7769 58.4864C24.822 60.0196 23.8357 61.6066 23.0512 62.5771C22.4707 63.2967 22.0538 63.6172 21.7086 63.6172ZM34.2161 48.2338C34.0278 48.2338 33.5751 48.2809 32.5955 48.5723C32.3153 48.6552 31.9926 48.7605 31.5801 48.9062C31.2529 49.0183 30.883 49.1573 30.4145 49.3545C25.5617 51.3024 20.153 54.7342 19.5365 58.5245C19.5186 58.6388 19.5029 58.7487 19.494 58.8675C19.485 58.9863 19.4738 59.0692 19.4626 59.188C19.3371 60.376 19.1286 62.3664 20.8456 62.9985C21.1206 63.0984 21.4079 63.1603 21.6996 63.1824C21.7668 63.1824 22.0269 63.1442 22.6993 62.3149C23.4659 61.3645 24.4454 59.7887 25.3891 58.2667C26.8012 55.9939 28.1349 53.8465 28.9553 53.4027C29.5897 53.062 30.697 52.5442 31.8693 51.995L32.4745 51.7126C32.8578 51.5355 33.2299 51.3562 33.5773 51.1903C33.9247 51.0245 34.1847 50.8945 34.4515 50.76C34.8587 50.5801 35.2469 50.3601 35.6103 50.1032C35.6103 50.0875 35.6103 50.0696 35.6103 50.0516C35.6731 49.2604 35.5655 48.4288 34.3058 48.2585C34.2764 48.2491 34.2465 48.2416 34.2161 48.236V48.2338Z" fill="black"/>
<path d="M49.3552 71.4913C48.6709 71.7101 47.9462 71.7721 47.2347 71.6729C47.1697 71.661 47.1026 71.6749 47.0478 71.7117C46.9929 71.7486 46.9546 71.8054 46.9411 71.8701C46.717 73.0178 46.4525 76.463 38.1096 77.3439C29.3678 78.2674 21.4037 64.0989 21.1908 63.7178C21.1899 63.7149 21.1885 63.7122 21.1865 63.7099C21.1846 63.7076 21.1822 63.7057 21.1796 63.7044L20.7739 63.1955L20.6618 63.0566C20.6454 63.0362 20.6365 63.0109 20.6365 62.9848C20.6365 62.9587 20.6454 62.9334 20.6618 62.9131C20.8097 62.7158 21.2356 62.1331 21.8767 61.3149C23.9254 58.6946 28.1529 53.6647 32.0845 51.2864C32.4409 51.0623 32.7973 50.8763 33.1447 50.7081C33.4481 50.5634 33.7585 50.4339 34.0749 50.3204C34.2408 50.2621 34.4022 50.2128 34.5613 50.1702C34.9817 50.0815 35.4164 50.0869 35.8345 50.1859C36.1564 50.2487 36.4739 50.3326 36.7849 50.4369C38.5579 51.0018 40.7523 52.1943 42.2967 53.0796L42.6374 53.2702C52.8071 59.1138 46.43 63.0319 45.4909 63.1821C45.4659 63.1849 45.4423 63.1953 45.4234 63.2118C45.4045 63.2284 45.3911 63.2503 45.385 63.2747C45.3789 63.2991 45.3804 63.3248 45.3893 63.3483C45.3982 63.3718 45.4141 63.392 45.4348 63.4062L45.5335 63.469C45.91 63.7111 46.4838 64.0742 47.1025 64.5023C47.1382 64.5219 47.1726 64.5436 47.2056 64.5673C48.3264 65.3362 49.6085 66.2843 50.3011 67.0778C52.2871 69.3641 50.337 71.1775 49.3552 71.4913Z" fill="white"/>
<path d="M37.278 77.6108C28.8253 77.6108 21.4059 64.5698 20.998 63.8391L20.4824 63.1957C20.4348 63.1367 20.4088 63.0632 20.4088 62.9873C20.4088 62.9114 20.4348 62.8378 20.4824 62.7788L20.5519 62.6847C20.7424 62.4269 21.1369 61.8912 21.6973 61.1784C23.8424 58.4326 28.0296 53.4721 31.9679 51.0917C32.3243 50.8675 32.6874 50.677 33.046 50.5044C33.3559 50.356 33.6731 50.2236 33.9964 50.1076C34.1511 50.0538 34.3102 50.0045 34.4985 49.9507C34.9526 49.8544 35.4223 49.8582 35.8748 49.9619C36.2057 50.0282 36.5321 50.115 36.8521 50.222C38.2306 50.6703 40.0485 51.5332 42.4065 52.8826L42.7472 53.0754C46.9837 55.5074 48.9158 57.9036 48.4922 60.1966C48.1717 61.9383 46.4928 63.0635 45.7419 63.3347L45.8046 63.3773C46.1745 63.6015 46.6788 63.9354 47.2257 64.3075C47.2659 64.3308 47.3048 64.3563 47.3423 64.3837C48.8732 65.4328 49.8999 66.2666 50.4804 66.9278C51.4846 68.08 51.4824 69.0797 51.3053 69.7163C51.1639 70.1668 50.9219 70.5793 50.5976 70.9225C50.2734 71.2658 49.8754 71.5309 49.4336 71.6977C48.7164 71.9286 47.9561 71.9938 47.2101 71.8883C47.2029 71.887 47.1955 71.8877 47.1887 71.8905C47.1819 71.8933 47.1761 71.898 47.172 71.904L47.1451 72.0586C46.9209 73.3273 46.3045 76.6985 38.1454 77.5593C37.8574 77.5915 37.5678 77.6087 37.278 77.6108ZM21.3813 63.6171C21.7108 64.2067 29.5157 78.0345 38.0827 77.1289C45.9077 76.304 46.4547 73.2847 46.6878 71.9936L46.7169 71.8345C46.7419 71.7134 46.8129 71.6068 46.9149 71.537C47.0169 71.4671 47.142 71.4396 47.2639 71.4601C47.9407 71.5552 48.6303 71.4962 49.2812 71.2875C49.6508 71.1422 49.9834 70.9163 50.2549 70.6262C50.5263 70.3362 50.7297 69.9894 50.8503 69.6109C51.0744 68.8398 50.8211 68.0419 50.1218 67.2372C49.5681 66.6051 48.5707 65.7981 47.0666 64.7715C47.0415 64.7521 47.0153 64.7341 46.9881 64.7177L46.9657 64.7043C46.4188 64.3344 45.9145 64.0094 45.5446 63.7741L45.3922 63.6754L45.3429 63.644L45.3003 63.6171C45.2388 63.5805 45.1903 63.5256 45.1614 63.4602C45.1325 63.3947 45.1246 63.3219 45.1389 63.2518C45.1548 63.1808 45.1918 63.1163 45.245 63.0667C45.2982 63.0171 45.3651 62.9847 45.437 62.9738C45.8741 62.9044 47.7166 61.8531 48.0349 60.1316C48.4137 58.0739 46.5017 55.7741 42.5052 53.4789L42.1689 53.2906C39.8355 51.9457 38.0468 51.0939 36.6974 50.6635C36.3942 50.5631 36.085 50.4815 35.7717 50.4192C35.387 50.3278 34.987 50.3209 34.5994 50.399C34.4223 50.4484 34.2721 50.4954 34.1287 50.5447C33.8235 50.6554 33.5242 50.7819 33.2321 50.9235C32.8846 51.0917 32.535 51.2822 32.1898 51.4906C28.3142 53.833 24.1675 58.7464 22.0425 61.4675C21.4866 62.1759 21.0921 62.7093 20.9016 62.9649L20.8814 62.9918L21.3499 63.5768C21.3616 63.5916 21.3721 63.6074 21.3813 63.6239V63.6171Z" fill="black"/>
<path d="M46.2641 73.9617C45.8889 74.4318 45.4626 74.8588 44.9932 75.2349C44.5217 75.6247 43.9981 75.9469 43.4376 76.192C43.1499 76.315 42.8491 76.4045 42.541 76.4587C42.2276 76.5045 41.9096 76.5091 41.595 76.4722C40.9864 76.4057 40.3858 76.2796 39.8018 76.0956C39.2259 75.9207 38.6595 75.7157 38.105 75.4814C37.5491 75.2573 37.0067 74.995 36.4732 74.7238C35.4081 74.1796 34.378 73.5695 33.3889 72.897C34.4581 73.4282 35.5251 73.955 36.6122 74.4324C37.6943 74.9163 38.8061 75.3311 39.9408 75.6742C40.4985 75.8413 41.069 75.962 41.6466 76.0351C41.9241 76.071 42.2051 76.071 42.4827 76.0351C42.7619 75.9942 43.0361 75.9243 43.3008 75.8266C43.8449 75.6176 44.3644 75.3492 44.8497 75.0264C45.3427 74.701 45.815 74.3454 46.2641 73.9617Z" fill="black"/>
<path d="M50.2518 70.7899C50.0419 71.0897 49.7545 71.3268 49.4202 71.4758C49.0851 71.6281 48.728 71.7265 48.3622 71.7672C48.1809 71.791 47.9981 71.8015 47.8153 71.7985H47.5396L47.2684 71.7784C47.0822 71.7643 46.8976 71.7336 46.717 71.6865C46.5399 71.6439 46.3673 71.5946 46.1969 71.5408C44.8452 71.1069 43.5164 70.6041 42.216 70.0345C40.916 69.4741 39.6353 68.8711 38.3741 68.2256C37.1132 67.5825 35.8856 66.8763 34.6958 66.1096C35.9488 66.7664 37.2197 67.3761 38.5063 67.9633C39.793 68.5506 41.0818 69.111 42.3841 69.6445C43.6864 70.1779 45 70.6957 46.3292 71.1238C46.651 71.2319 46.9829 71.307 47.3199 71.348C47.6575 71.398 47.9987 71.419 48.3398 71.4108C48.6801 71.4048 49.0182 71.3559 49.3462 71.2651C49.6804 71.178 49.9902 71.0154 50.2518 70.7899Z" fill="black"/>
<path d="M39.5554 58.076C40.1114 58.6888 40.6987 59.2724 41.315 59.8244C41.9269 60.3803 42.5568 60.9115 43.1934 61.4383L44.1595 62.2116C44.4852 62.4671 44.8117 62.7189 45.139 62.967C45.464 63.2136 45.8114 63.4422 46.1454 63.6865C46.4794 63.9308 46.8179 64.1752 47.1519 64.424C47.3312 64.554 47.4791 64.6616 47.6405 64.7849C47.8019 64.9081 47.9588 65.0292 48.1157 65.1524C47.9386 65.0605 47.7593 64.9709 47.5822 64.8767C47.4051 64.7826 47.2191 64.6817 47.0622 64.5966C46.6991 64.3926 46.3404 64.1819 45.984 63.9689C45.6276 63.756 45.2668 63.5475 44.9193 63.2965C44.5719 63.0454 44.2334 62.8168 43.9039 62.5613C43.5744 62.3057 43.2449 62.048 42.9266 61.7768C42.6083 61.5055 42.2923 61.2343 41.9897 60.9452C41.6871 60.656 41.3867 60.3669 41.0931 60.0486C40.5098 59.4494 39.9941 58.7879 39.5554 58.076Z" fill="black"/>
<path d="M40.0664 67.0309C40.0664 67.0309 45.836 70.2296 48.0439 70.1489C49.3372 70.1018 51.182 67.6249 42.6329 63.9063C33.9516 60.1338 40.0664 67.0309 40.0664 67.0309Z" fill="url(#paint2_linear)"/>
<path d="M44.991 61.2926C43.2808 60.3758 40.8891 57.0651 38.6229 56.5855C37.7151 56.3927 36.2358 54.7273 36.5316 53.5213C37.9057 53.9696 38.7866 52.015 42.6061 54.6757C44.926 56.2896 46.0602 57.2377 46.5534 58.3652C47.5419 60.6358 45.6949 61.6692 44.991 61.2926Z" fill="url(#paint3_linear)"/>
<path d="M34.5903 71.5881C34.5903 71.5881 40.3286 75.4748 42.4804 74.9683C43.6527 74.6948 45.762 72.8702 44.1593 71.9736C42.9646 71.3012 40.4048 70.6489 37.0044 68.6562C28.8364 63.8706 34.5903 71.5881 34.5903 71.5881Z" fill="url(#paint4_linear)"/>
<path d="M20.9532 58.0895C20.9532 58.0895 20.3256 59.9118 20.8949 60.0329C21.4642 60.1539 24.033 56.5899 25.5124 54.8774C26.8999 53.2703 30.0447 50.8091 31.3134 50.6186C31.4411 50.5984 31.7617 49.9237 30.7799 50.0851C28.6662 50.4415 23.8021 52.4947 20.9532 58.0895Z" fill="url(#paint5_linear)"/>
<path d="M30.8651 73.7551C30.8651 73.7551 33.7947 75.5326 35.8883 76.4135C36.675 76.7453 37.6815 76.5233 37.4349 76.2252C36.1034 74.6562 30.5983 72.2847 30.5983 72.2847L30.8651 73.7551Z" fill="url(#paint6_linear)"/>
<defs>
<linearGradient id="paint0_linear" x1="-2.05333" y1="15.6845" x2="35.2571" y2="38.1408" gradientUnits="userSpaceOnUse">
<stop offset="0.26" stop-color="#FFE500"/>
<stop offset="1" stop-color="#D1AD00"/>
</linearGradient>
<linearGradient id="paint1_linear" x1="16.4911" y1="12.3547" x2="35.5204" y2="28.214" gradientUnits="userSpaceOnUse">
<stop stop-color="#FFE500"/>
<stop offset="0.99" stop-color="#FFEC42"/>
</linearGradient>
<linearGradient id="paint2_linear" x1="38.6094" y1="67.2904" x2="48.5858" y2="65.5761" gradientUnits="userSpaceOnUse">
<stop stop-color="white" stop-opacity="0"/>
<stop offset="1" stop-color="#A4C5DF"/>
</linearGradient>
<linearGradient id="paint3_linear" x1="5660.53" y1="5879.73" x2="6087.74" y2="5812.15" gradientUnits="userSpaceOnUse">
<stop stop-color="white" stop-opacity="0"/>
<stop offset="1" stop-color="#A4C5DF"/>
</linearGradient>
<linearGradient id="paint4_linear" x1="6187.82" y1="6107.41" x2="6787.37" y2="6014.81" gradientUnits="userSpaceOnUse">
<stop stop-color="white" stop-opacity="0"/>
<stop offset="1" stop-color="#A4C5DF"/>
</linearGradient>
<linearGradient id="paint5_linear" x1="5207.81" y1="7086.84" x2="5292.04" y2="7204.66" gradientUnits="userSpaceOnUse">
<stop stop-color="white" stop-opacity="0"/>
<stop offset="1" stop-color="#A4C5DF"/>
</linearGradient>
<linearGradient id="paint6_linear" x1="2532.45" y1="3165.16" x2="2746.64" y2="3171.18" gradientUnits="userSpaceOnUse">
<stop stop-color="white" stop-opacity="0"/>
<stop offset="1" stop-color="#A4C5DF"/>
</linearGradient>
</defs>
</svg>
