<svg width="84" height="125" viewBox="0 0 84 125" fill="none" xmlns="http://www.w3.org/2000/svg">
<path d="M50.9501 0.864551C42.4923 -0.251771 33.5472 7.35158 31.8381 9.36605C31.3716 9.83882 30.9309 10.3365 30.5182 10.8569L10.668 36.2269L3.70465 45.1283L2.69742 46.4047C-1.02608 51.1717 0.184786 57.0261 3.15922 62.4041C7.67541 70.5965 24.2748 86.9268 24.5475 86.1995L26.002 87.8285L27.5438 89.5412L28.6783 90.7957L30.3109 92.6138L34.1799 96.9155C36.3796 99.3098 39.3785 100.818 42.6123 101.155V101.155C45.0194 101.43 47.4568 101.088 49.6957 100.163C50.1754 99.9708 50.6419 99.7473 51.092 99.4936C51.4671 99.2952 51.8312 99.0767 52.1828 98.839C52.6908 98.4967 53.1766 98.1227 53.6373 97.7191C55.3816 96.1763 56.6568 94.1741 57.3172 91.9411C58.0667 89.3717 57.8812 86.6197 56.7936 84.1741V84.1741C56.4005 83.2901 55.9011 82.4573 55.3064 81.6942L51.0883 76.3017L49.2702 73.9891L48.4775 72.9709L47.703 71.9601L46.7939 70.8037L45.9976 69.7856C45.9976 69.7856 38.8306 58.5133 34.3617 54.928C34.3362 54.728 53.4773 38.2995 61.3716 31.7216C65.1605 28.5653 68.324 23.4601 68.0259 18.8093C67.3677 8.38063 60.3752 2.11178 50.9501 0.864551Z" fill="url(#paint0_linear)"/>
<path d="M44.2341 101.592C43.6926 101.597 43.1512 101.572 42.6123 101.519H42.565C39.2522 101.177 36.1777 99.6385 33.9181 97.1919L24.3657 86.5669C22.2058 85.6614 6.95911 70.0766 2.83926 62.6041C-0.796964 56.0116 -0.942413 50.4919 2.41382 46.1975L3.41743 44.9211L30.2491 10.6315C30.6688 10.1001 31.1179 9.59261 31.5946 9.11159C33.7763 6.56623 42.7905 -0.586221 51.012 0.504647C61.2625 1.85732 67.7641 8.69343 68.4113 18.7876C68.7277 23.7438 65.2296 28.9981 61.6261 32.0016C54.0882 38.2814 37.198 52.7718 34.9181 54.9099C39.3761 58.717 46.0231 69.1493 46.3104 69.6002L55.6009 81.4725C56.2129 82.2562 56.7281 83.1108 57.1354 84.0179L57.1572 84.0761C58.2438 86.584 58.4225 89.3921 57.6627 92.0176C56.9831 94.3179 55.6701 96.3806 53.8737 97.9701C53.4048 98.3851 52.9092 98.7689 52.3901 99.1191C52.0335 99.3641 51.6632 99.5887 51.2811 99.7918C50.819 100.052 50.3404 100.282 49.8484 100.479C48.0685 101.216 46.1605 101.594 44.2341 101.592V101.592ZM42.6123 100.792H42.6596C45.0073 101.059 47.3843 100.726 49.5684 99.8246C50.0355 99.6377 50.4898 99.4202 50.9284 99.1737C51.2897 98.979 51.6405 98.7654 51.9792 98.5337C52.4725 98.2008 52.9438 97.8364 53.3901 97.4428C55.081 95.9443 56.3181 94.0018 56.9609 91.8358C57.6917 89.357 57.5164 86.6991 56.4663 84.3379L56.4409 84.276C56.065 83.4374 55.5888 82.6474 55.0228 81.9234L45.714 70.022C45.6231 69.8802 38.5106 58.7206 34.1544 55.2262L34.0381 55.1317L34.0199 54.9862C33.9872 54.7244 33.9763 54.6444 44.6777 45.4557C51.0302 40.0013 57.499 34.5034 61.1534 31.4562C64.6188 28.569 67.9823 23.5511 67.6986 18.8458C67.0768 9.12614 60.8116 2.54457 50.932 1.23916C42.3578 0.104658 33.4308 8.09708 32.1473 9.60248C31.681 10.0696 31.2427 10.5638 30.8346 11.0824L3.99559 45.3539L2.97744 46.6302C-0.18244 50.67 -0.0151715 55.9207 3.46833 62.2332C7.55909 69.6548 21.9949 84.1197 24.3257 85.7342L24.4312 85.5196L34.4744 96.6937C36.6008 99.0008 39.4927 100.457 42.6123 100.792Z" fill="#0F0F0F"/>
<path opacity="0.5" d="M56.1573 2.67177C56.1573 2.67177 71.124 11.6278 60.6335 23.8855C50.143 36.1432 29.6855 53.9789 29.6855 53.9789L48.7576 79.2871L49.9757 78.1489L32.0309 54.7135C32.0309 54.7135 60.8626 27.7399 62.9752 24.7946C65.0878 21.8492 72.3203 11.1587 56.1573 2.67177Z" fill="url(#paint1_linear)"/>
<path d="M58.1318 80.4288C58.132 80.437 58.1304 80.4451 58.1273 80.4526C58.1242 80.4601 58.1195 80.4669 58.1136 80.4725C58.0081 80.6761 57.2045 81.127 56.0555 81.7088C55.6191 81.9233 55.1464 82.1597 54.6337 82.4069C54.121 82.6542 53.4592 82.9669 52.8374 83.2542C50.6557 84.2832 48.3467 85.345 47.1504 85.9886C45.0232 87.1377 40.147 96.5882 37.1035 100.355C36.3071 101.337 35.649 101.941 35.169 101.897C34.6645 101.859 34.1678 101.751 33.6927 101.577C30.3365 100.352 31.1182 96.1955 31.2601 94.5156C31.2782 94.3192 31.3001 94.1229 31.3328 93.9301C32.4237 87.2286 42.2924 81.5488 49.2048 78.7744C49.8703 78.5089 50.503 78.2653 51.1066 78.0471C51.7102 77.8289 52.2593 77.6471 52.772 77.498C54.1828 77.0799 55.2337 76.8799 55.71 76.949C58.6118 77.3417 58.1536 79.8398 58.1318 80.4288Z" fill="white"/>
<path d="M35.2162 102.246H35.1362C34.5995 102.204 34.0711 102.089 33.5653 101.904C30.2491 100.694 30.6563 96.8319 30.8491 94.9738C30.8672 94.7884 30.8854 94.6102 30.9 94.4684C30.9 94.2647 30.94 94.0575 30.9727 93.8575C32.0236 87.4104 41.0087 81.6579 49.0702 78.4217C49.8411 78.1126 50.452 77.8835 50.9901 77.6944C51.6701 77.4508 52.2046 77.2763 52.6701 77.1381C53.71 76.829 55.0881 76.4799 55.7608 76.5781C57.7499 76.8508 58.6698 78.0908 58.5026 80.2689C58.5026 80.3234 58.5026 80.3707 58.5026 80.4107C58.5024 80.4939 58.4771 80.575 58.4298 80.6434C58.3171 80.8434 58.0153 81.1089 56.2263 82.0106C55.7899 82.2288 55.3136 82.4652 54.7972 82.7125C54.2809 82.9597 53.6191 83.2761 52.9973 83.5633L52.0155 84.0215C50.1247 84.9087 48.3393 85.7451 47.3284 86.2869C46.1685 86.9123 43.954 90.4758 41.8159 93.9229C40.2669 96.4101 38.6669 98.9846 37.3943 100.559C36.4525 101.726 35.7761 102.246 35.2162 102.246ZM55.5063 77.2908C55.2009 77.2908 54.4664 77.3672 52.8773 77.8399C52.4228 77.9744 51.8992 78.1453 51.2301 78.3817C50.6992 78.5635 50.0992 78.789 49.3393 79.1089C41.4668 82.2688 32.6926 87.8359 31.6927 93.9848C31.6636 94.1702 31.6381 94.3484 31.6236 94.5411C31.609 94.7338 31.5909 94.8683 31.5727 95.0611C31.369 96.9883 31.0309 100.217 33.8162 101.243C34.2623 101.405 34.7284 101.505 35.2016 101.541C35.3107 101.541 35.7325 101.479 36.8234 100.134C38.067 98.5918 39.656 96.0356 41.1868 93.5666C43.4777 89.8795 45.6412 86.3959 46.9721 85.676C48.0011 85.1233 49.7974 84.2833 51.6992 83.3924L52.681 82.9343C53.3028 82.647 53.9064 82.3561 54.47 82.087C55.0336 81.8179 55.4554 81.607 55.8881 81.3889C56.5486 81.0971 57.1784 80.7402 57.768 80.3235C57.768 80.298 57.768 80.2689 57.768 80.2398C57.8699 78.9562 57.6953 77.6072 55.6518 77.3308C55.6041 77.3156 55.5555 77.3035 55.5063 77.2945V77.2908Z" fill="#0F0F0F"/>
<path d="M80.0654 115.02C78.9554 115.375 77.7798 115.476 76.6256 115.315C76.5201 115.296 76.4113 115.318 76.3223 115.378C76.2333 115.438 76.1712 115.53 76.1492 115.635C75.7856 117.497 75.3565 123.086 61.8225 124.515C47.6412 126.013 34.7217 103.028 34.3763 102.41C34.3748 102.405 34.3725 102.401 34.3694 102.397C34.3662 102.393 34.3624 102.39 34.3581 102.388L33.6999 101.563L33.5181 101.337C33.4915 101.304 33.4771 101.263 33.4771 101.221C33.4771 101.179 33.4915 101.137 33.5181 101.105C33.7581 100.785 34.449 99.8391 35.4889 98.5119C38.8124 94.2611 45.6704 86.1014 52.0483 82.2434C52.6265 81.8798 53.2046 81.578 53.7682 81.3053C54.2604 81.0704 54.764 80.8604 55.2773 80.6762C55.5464 80.5816 55.8082 80.5017 56.0663 80.4326C56.7483 80.2887 57.4536 80.2974 58.1317 80.458C58.654 80.56 59.169 80.696 59.6735 80.8653C62.5497 81.7816 66.1096 83.7161 68.615 85.1524L69.1677 85.4615C85.6652 94.9411 75.3202 101.297 73.7966 101.541C73.7561 101.545 73.7179 101.562 73.6872 101.589C73.6565 101.616 73.6347 101.652 73.6249 101.691C73.615 101.731 73.6174 101.772 73.6318 101.81C73.6463 101.849 73.6721 101.881 73.7057 101.904L73.8657 102.006C74.4766 102.399 75.4074 102.988 76.411 103.683C76.4689 103.714 76.5248 103.75 76.5783 103.788C78.3964 105.035 80.4763 106.573 81.5999 107.861C84.8216 111.57 81.6581 114.511 80.0654 115.02Z" fill="white"/>
<path d="M60.4734 124.947C46.7612 124.947 34.7253 103.792 34.0635 102.606L33.2272 101.563C33.1499 101.467 33.1077 101.348 33.1077 101.224C33.1077 101.101 33.1499 100.982 33.2272 100.886L33.3399 100.734C33.649 100.315 34.289 99.4463 35.198 98.29C38.6779 93.8356 45.4704 85.7887 51.8592 81.927C52.4374 81.5634 53.0264 81.2543 53.6082 80.9743C54.1109 80.7337 54.6255 80.5188 55.15 80.3307C55.4009 80.2434 55.6591 80.1634 55.9645 80.0762C56.7012 79.9199 57.4631 79.9261 58.1972 80.0944C58.7339 80.2018 59.2634 80.3427 59.7826 80.5161C62.0188 81.2434 64.9678 82.6433 68.7931 84.8323L69.3458 85.1451C76.2183 89.0904 79.3527 92.9775 78.6655 96.6974C78.1455 99.5227 75.422 101.348 74.2038 101.788L74.3056 101.857C74.9056 102.221 75.7238 102.763 76.611 103.366C76.6762 103.404 76.7393 103.445 76.8001 103.49C79.2836 105.192 80.949 106.544 81.8908 107.617C83.5198 109.486 83.5162 111.108 83.2289 112.14C82.9995 112.871 82.607 113.54 82.081 114.097C81.555 114.654 80.9093 115.084 80.1927 115.355V115.355C79.0292 115.729 77.7958 115.835 76.5856 115.664C76.5739 115.662 76.5619 115.663 76.5509 115.668C76.5399 115.672 76.5305 115.68 76.5237 115.689L76.4801 115.94C76.1165 117.998 75.1165 123.467 61.8807 124.864C61.4133 124.916 60.9436 124.944 60.4734 124.947V124.947ZM34.6853 102.246C35.2198 103.203 47.8812 125.634 61.7788 124.165C74.4729 122.827 75.3602 117.929 75.7383 115.835L75.7856 115.577C75.8261 115.38 75.9412 115.207 76.1067 115.094C76.2722 114.981 76.4751 114.936 76.6728 114.969C77.7709 115.124 78.8895 115.028 79.9454 114.689C80.5451 114.454 81.0846 114.087 81.5249 113.617C81.9652 113.146 82.2952 112.583 82.4908 111.97C82.8544 110.719 82.4435 109.424 81.309 108.119C80.4109 107.093 78.7927 105.784 76.3528 104.119C76.3122 104.087 76.2697 104.058 76.2256 104.032L76.1892 104.01C75.302 103.41 74.4838 102.883 73.8838 102.501L73.6366 102.341L73.5566 102.29L73.4875 102.246C73.3878 102.187 73.3091 102.098 73.2622 101.992C73.2153 101.885 73.2025 101.767 73.2257 101.654C73.2515 101.538 73.3114 101.434 73.3977 101.353C73.484 101.273 73.5926 101.22 73.7093 101.203C74.4184 101.09 77.4073 99.3845 77.9237 96.5919C78.5382 93.2539 75.4365 89.5231 68.9531 85.7996L68.4077 85.4941C64.6224 83.3124 61.7207 81.9306 59.5317 81.2325C59.0397 81.0695 58.5382 80.9371 58.0299 80.8361C57.4058 80.6879 56.757 80.6767 56.1282 80.8034C55.8409 80.8834 55.5973 80.9598 55.3645 81.0398C54.8694 81.2193 54.3839 81.4245 53.91 81.6543C53.3464 81.927 52.7792 82.2361 52.2192 82.5743C45.9322 86.3741 39.2051 94.3447 35.758 98.7591C34.8562 99.9081 34.2162 100.774 33.9072 101.188L33.8744 101.232L34.6344 102.181C34.6535 102.205 34.6705 102.23 34.6853 102.257V102.246Z" fill="#0F0F0F"/>
<path d="M75.051 119.027C74.4423 119.79 73.7509 120.483 72.9893 121.093C72.2245 121.725 71.3751 122.248 70.4658 122.645C69.9991 122.845 69.5111 122.99 69.0113 123.078C68.5029 123.153 67.987 123.16 67.4768 123.1C66.4894 122.992 65.5151 122.788 64.5678 122.489C63.6334 122.205 62.7146 121.873 61.8152 121.493C60.9134 121.129 60.0334 120.704 59.168 120.264C57.4402 119.381 55.7691 118.391 54.1646 117.3C55.899 118.162 57.6299 119.017 59.3934 119.791C61.149 120.576 62.9525 121.249 64.7932 121.806C65.6979 122.077 66.6235 122.272 67.5604 122.391C68.0106 122.449 68.4665 122.449 68.9167 122.391C69.3697 122.325 69.8145 122.211 70.2439 122.053C71.1266 121.714 71.9693 121.278 72.7566 120.755C73.5563 120.227 74.3226 119.65 75.051 119.027V119.027Z" fill="#0F0F0F"/>
<path d="M81.52 113.882C81.1795 114.369 80.7132 114.753 80.1709 114.995C79.6273 115.242 79.0481 115.401 78.4546 115.468C78.1605 115.506 77.864 115.523 77.5674 115.518H77.1201L76.6801 115.486C76.3781 115.463 76.0787 115.413 75.7856 115.337C75.4984 115.268 75.2184 115.188 74.942 115.1C72.7491 114.396 70.5937 113.581 68.4841 112.657C66.3751 111.748 64.2976 110.77 62.2516 109.722C60.2062 108.679 58.2146 107.533 56.2845 106.29C58.3172 107.355 60.3789 108.344 62.4661 109.297C64.5533 110.25 66.6442 111.159 68.7568 112.024C70.8694 112.889 73.0003 113.729 75.1566 114.424C75.6786 114.599 76.2171 114.721 76.7638 114.788C77.3114 114.869 77.8649 114.903 78.4183 114.889C78.9703 114.88 79.5188 114.8 80.0509 114.653C80.5931 114.512 81.0956 114.248 81.52 113.882V113.882Z" fill="#0F0F0F"/>
<path d="M64.1678 93.2574C65.0697 94.2515 66.0225 95.1982 67.0223 96.0937C68.015 96.9955 69.0368 97.8573 70.0694 98.7118L71.6367 99.9663C72.1651 100.381 72.6948 100.789 73.2257 101.192C73.7529 101.592 74.3166 101.963 74.8584 102.359C75.4001 102.755 75.9492 103.152 76.491 103.555C76.7819 103.766 77.0219 103.941 77.2837 104.141C77.5455 104.341 77.8001 104.537 78.0546 104.737C77.7673 104.588 77.4764 104.442 77.1892 104.29C76.9019 104.137 76.6001 103.973 76.3456 103.835C75.7565 103.504 75.1747 103.163 74.5965 102.817C74.0184 102.472 73.433 102.133 72.8693 101.726C72.3057 101.319 71.7567 100.948 71.2221 100.534C70.6876 100.119 70.1531 99.7008 69.6367 99.2608C69.1204 98.8209 68.6077 98.3809 68.1168 97.9118C67.6259 97.4427 67.1386 96.9737 66.6623 96.4573C65.716 95.4854 64.8795 94.4123 64.1678 93.2574Z" fill="#0F0F0F"/>
<path d="M64.9969 107.784C64.9969 107.784 74.3566 112.973 77.9383 112.842C80.0364 112.766 83.029 108.748 69.1604 102.715C55.0773 96.5956 64.9969 107.784 64.9969 107.784Z" fill="url(#paint2_linear)"/>
<path d="M72.9857 98.4755C70.2113 96.9883 66.3314 91.6176 62.6552 90.8394C61.1825 90.5267 58.7826 87.825 59.2626 85.8687C61.4916 86.596 62.9206 83.4252 69.1168 87.7414C72.8803 90.3595 74.7202 91.8976 75.5202 93.7266C77.1237 97.4101 74.1275 99.0864 72.9857 98.4755Z" fill="url(#paint3_linear)"/>
<path d="M56.1136 115.177C56.1136 115.177 65.4224 121.482 68.9132 120.66C70.8149 120.216 74.2366 117.257 71.6367 115.802C69.6986 114.711 65.546 113.653 60.0299 110.42C46.7794 102.657 56.1136 115.177 56.1136 115.177Z" fill="url(#paint4_linear)"/>
<path d="M33.9908 93.2793C33.9908 93.2793 32.9726 96.2355 33.8962 96.4319C34.8198 96.6283 38.987 90.8467 41.3869 88.0686C43.6377 85.4614 48.7393 81.4688 50.7974 81.1597C51.0047 81.127 51.5247 80.0325 49.932 80.2943C46.503 80.8725 38.6124 84.2033 33.9908 93.2793Z" fill="url(#paint5_linear)"/>
<path d="M50.0702 118.693C50.0702 118.693 54.8227 121.576 58.2189 123.005C59.4953 123.544 61.1279 123.184 60.7279 122.7C58.568 120.155 49.6375 116.307 49.6375 116.307L50.0702 118.693Z" fill="url(#paint6_linear)"/>
<defs>
<linearGradient id="paint0_linear" x1="-3.33123" y1="24.4883" x2="57.1949" y2="60.9176" gradientUnits="userSpaceOnUse">
<stop offset="0.26" stop-color="#FFE500"/>
<stop offset="1" stop-color="#FFBD01"/>
</linearGradient>
<linearGradient id="paint1_linear" x1="26.7523" y1="19.0869" x2="57.6223" y2="44.8143" gradientUnits="userSpaceOnUse">
<stop stop-color="#FFE500"/>
<stop offset="0.99" stop-color="#FFEC42"/>
</linearGradient>
<linearGradient id="paint2_linear" x1="62.6333" y1="108.205" x2="78.8174" y2="105.424" gradientUnits="userSpaceOnUse">
<stop stop-color="white" stop-opacity="0"/>
<stop offset="1" stop-color="#A4C5DF"/>
</linearGradient>
<linearGradient id="paint3_linear" x1="9182.69" y1="9537.33" x2="9875.72" y2="9427.68" gradientUnits="userSpaceOnUse">
<stop stop-color="white" stop-opacity="0"/>
<stop offset="1" stop-color="#A4C5DF"/>
</linearGradient>
<linearGradient id="paint4_linear" x1="10038.1" y1="9906.68" x2="11010.7" y2="9756.46" gradientUnits="userSpaceOnUse">
<stop stop-color="white" stop-opacity="0"/>
<stop offset="1" stop-color="#A4C5DF"/>
</linearGradient>
<linearGradient id="paint5_linear" x1="8448.27" y1="11495.5" x2="8584.91" y2="11686.7" gradientUnits="userSpaceOnUse">
<stop stop-color="white" stop-opacity="0"/>
<stop offset="1" stop-color="#A4C5DF"/>
</linearGradient>
<linearGradient id="paint6_linear" x1="4108.21" y1="5133.66" x2="4455.68" y2="5143.42" gradientUnits="userSpaceOnUse">
<stop stop-color="white" stop-opacity="0"/>
<stop offset="1" stop-color="#A4C5DF"/>
</linearGradient>
</defs>
</svg>
