<svg width="84" height="120" viewBox="0 0 84 120" fill="none" xmlns="http://www.w3.org/2000/svg">
<path d="M42 0C53.1391 0 63.822 4.42499 71.6985 12.3015C79.575 20.178 84 30.8609 84 42C84 56.28 76.86 68.82 66 76.44V90C66 91.5913 65.3679 93.1174 64.2426 94.2426C63.1174 95.3679 61.5913 96 60 96H24C22.4087 96 20.8826 95.3679 19.7574 94.2426C18.6321 93.1174 18 91.5913 18 90V76.44C7.14 68.82 0 56.28 0 42C0 30.8609 4.42499 20.178 12.3015 12.3015C20.178 4.42499 30.8609 0 42 0ZM24 114V108H60V114C60 115.591 59.3679 117.117 58.2426 118.243C57.1174 119.368 55.5913 120 54 120H30C28.4087 120 26.8826 119.368 25.7574 118.243C24.6321 117.117 24 115.591 24 114ZM42 12C34.0435 12 26.4129 15.1607 20.7868 20.7868C15.1607 26.4129 12 34.0435 12 42C12 54.3 19.38 64.86 30 69.48V84H54V69.48C64.62 64.86 72 54.3 72 42C72 34.0435 68.8393 26.4129 63.2132 20.7868C57.5871 15.1607 49.9565 12 42 12Z" fill="#6A6A6A"/>
</svg>
