<svg width="29" height="40" viewBox="0 0 29 40" fill="none" xmlns="http://www.w3.org/2000/svg">
<path d="M14.0541 0C17.7814 0 21.3561 1.475 23.9918 4.1005C26.6274 6.72601 28.1081 10.287 28.1081 14C28.1081 18.76 25.7189 22.94 22.0849 25.48V30C22.0849 30.5304 21.8734 31.0391 21.4969 31.4142C21.1204 31.7893 20.6097 32 20.0772 32H8.03089C7.49841 32 6.98774 31.7893 6.61122 31.4142C6.23469 31.0391 6.02317 30.5304 6.02317 30V25.48C2.38919 22.94 0 18.76 0 14C0 10.287 1.48069 6.72601 4.11634 4.1005C6.75198 1.475 10.3267 0 14.0541 0ZM8.03089 38V36H20.0772V38C20.0772 38.5304 19.8657 39.0391 19.4892 39.4142C19.1127 39.7893 18.602 40 18.0695 40H10.0386C9.50613 40 8.99546 39.7893 8.61894 39.4142C8.24242 39.0391 8.03089 38.5304 8.03089 38ZM14.0541 4C11.3917 4 8.83829 5.05357 6.95569 6.92893C5.07308 8.8043 4.01544 11.3478 4.01544 14C4.01544 18.1 6.48494 21.62 10.0386 23.16V28H18.0695V23.16C21.6232 21.62 24.0927 18.1 24.0927 14C24.0927 11.3478 23.035 8.8043 21.1524 6.92893C19.2698 5.05357 16.7165 4 14.0541 4Z" fill="#0F0F0F"/>
</svg>
