<svg width="159" height="327" viewBox="0 0 159 327" fill="none" xmlns="http://www.w3.org/2000/svg">
<path d="M27.2374 118.203C23.3866 119.014 12.9834 122.654 11.238 123.73C-0.0888387 130.661 32.9754 158.692 32.9754 158.692L51.3092 152.394L56.7381 113.698C56.7381 113.698 27.6919 118.105 27.2374 118.203Z" fill="url(#paint0_linear)"/>
<path d="M32.8953 159.103L32.739 158.969C31.7172 158.103 7.73992 137.65 8.52535 127.464C8.57413 126.634 8.82992 125.829 9.26942 125.123C9.70892 124.417 10.3181 123.832 11.0416 123.421C12.9179 122.268 23.4666 118.625 27.1646 117.847C27.6301 117.748 55.4945 113.52 56.6799 113.338L57.1635 113.265L51.6365 152.667L32.8953 159.103ZM27.3137 118.559C23.3757 119.385 13.1143 123.003 11.4198 124.039C10.7913 124.387 10.2614 124.889 9.87985 125.498C9.49825 126.106 9.27743 126.802 9.23805 127.519C8.5108 136.922 30.9318 156.467 33.0408 158.281L50.9674 152.125L56.2981 114.13C46.1894 115.669 27.7464 118.472 27.3137 118.559Z" fill="#0F0F0F"/>
<path d="M119.925 144.526C113.507 138.657 105.413 132.424 97.0166 128.89C96.1875 128.548 95.3548 128.224 94.5258 127.941C94.3949 127.886 94.2639 127.846 94.1403 127.806C94.1137 127.793 94.0856 127.783 94.0567 127.777C93.2785 127.512 44.0658 116.323 49.2365 119.876C64.4396 130.326 68.0467 142.838 70.2467 147.511L97.0929 148.478C97.0929 148.442 97.0675 148.406 97.0566 148.369L100.293 150.387L101.206 150.955L102.769 151.929L103.58 152.434L105.114 153.387L106.474 154.234L110.772 154.358L106.663 181.59C106.663 181.59 120.481 188.477 126.663 181.652C128.212 179.946 129.008 177.368 129.823 174.594C135.197 156.234 128.244 152.144 119.925 144.526Z" fill="url(#paint1_linear)"/>
<path d="M118.747 185.066C112.881 185.066 106.867 182.117 106.489 181.928L106.253 181.812L110.34 154.722L106.34 154.613L99.8929 150.613L97.1002 148.871H97.0493L69.9849 147.893L69.8903 147.693C69.5958 147.075 69.2831 146.326 68.9231 145.46C66.545 139.788 62.1234 129.228 49.0002 120.21C48.8257 120.087 48.273 119.719 48.5166 119.265C48.7602 118.81 49.2039 117.894 71.5667 122.505C82.4753 124.752 93.704 127.315 94.144 127.464C94.1791 127.473 94.2133 127.485 94.2458 127.501V127.501C94.3694 127.537 94.4931 127.577 94.6094 127.628C95.3694 127.89 96.1912 128.203 97.1039 128.581C104.285 131.595 112.034 136.879 120.128 144.278C120.819 144.911 121.499 145.518 122.165 146.097C129.404 152.551 135.121 157.649 130.117 174.71C129.226 177.746 128.423 180.208 126.877 181.91C124.768 184.27 121.776 185.066 118.747 185.066ZM107.053 181.39C108.871 182.244 120.87 187.484 126.379 181.422C127.834 179.833 128.597 177.452 129.459 174.514C134.335 157.896 129.044 153.18 121.721 146.649C121.056 146.057 120.372 145.446 119.678 144.813C111.645 137.468 103.969 132.232 96.8639 129.246C95.9657 128.883 95.1585 128.57 94.3913 128.304C94.2833 128.26 94.1728 128.223 94.0603 128.192L93.9476 128.148C93.5222 128.014 82.8099 125.555 71.9448 123.312C54.8218 119.77 50.4584 119.443 49.4002 119.578L49.4366 119.599C62.7343 128.741 67.2105 139.428 69.614 145.169C69.934 145.933 70.2176 146.606 70.4758 147.173L96.5875 148.115L96.5439 147.973L97.173 148.035L97.2457 148.078L100.66 150.209L106.58 153.893L111.191 154.023L107.053 181.39Z" fill="#0F0F0F"/>
<path d="M57.3381 312.879C57.3381 312.879 5.12555 315.268 5.11464 316.152C5.09282 317.541 4.6892 321.192 6.62003 322.555C10.0744 325.002 17.6669 325.97 26.1211 325.828C34.7499 325.679 43.6041 323.57 49.9602 321.635C53.011 321.719 60.8907 321.704 63.2943 319.432C64.1924 318.581 64.1524 315.621 64.4288 314.705L64.5415 311.872L57.3381 312.879Z" fill="url(#paint2_linear)"/>
<path d="M24.5284 326.199C18.9068 326.199 10.4198 325.682 6.41635 322.85C4.55097 321.53 4.6746 318.388 4.74006 316.701C4.74006 316.49 4.74006 316.301 4.74006 316.141C4.74006 315.69 4.74006 315.505 13.2416 314.901C17.5759 314.596 23.6157 314.228 31.2009 313.81C43.8913 313.119 56.749 312.53 57.2908 312.505L64.4796 311.501C64.5324 311.494 64.5861 311.498 64.637 311.514C64.6879 311.53 64.7347 311.556 64.7742 311.592C64.8137 311.628 64.8449 311.672 64.8657 311.721C64.8864 311.77 64.8961 311.823 64.8942 311.876L64.7814 314.708C64.7852 314.739 64.7852 314.769 64.7814 314.799C64.6895 315.224 64.6251 315.654 64.5887 316.086C64.4433 317.388 64.2615 318.995 63.5524 319.675C61.0798 322.014 53.3128 322.068 50.0183 321.981C43.9895 323.799 34.9716 326.021 26.132 326.173C25.6338 326.192 25.0956 326.199 24.5284 326.199ZM5.47821 316.381C5.47821 316.49 5.47821 316.606 5.47821 316.745C5.42003 318.294 5.30731 321.177 6.8527 322.272C9.94713 324.453 16.976 325.628 26.1247 325.472C34.9062 325.323 43.884 323.115 49.8656 321.294C49.9042 321.288 49.9434 321.288 49.982 321.294C52.4546 321.363 60.7016 321.41 63.0724 319.188C63.5887 318.697 63.7597 317.166 63.8833 316.047C63.9237 315.586 63.993 315.128 64.0906 314.676L64.1851 312.323L57.4108 313.268H57.3781C37.6806 314.152 8.14356 315.697 5.47821 316.377V316.381Z" fill="#0F0F0F"/>
<path d="M66.0069 314.93C65.0542 317.475 62.5525 318.083 56.8109 318.057C53.9346 318.057 40.7606 320.33 35.9789 321.33C24.8157 323.675 11.0635 322.835 5.12555 316.214C-0.557874 309.879 0.347548 300.898 6.28551 294.262C9.67447 290.455 14.7252 287.422 21.1395 286.084C25.8048 285.109 34.9826 284.571 40.6951 286.448C46.4076 288.324 52.9856 287.902 57.3672 291.306C65.0251 297.273 68.5559 308.105 66.0069 314.93Z" fill="url(#paint3_linear)"/>
<path d="M24.5648 322.908C16.6196 322.908 8.97265 321.09 4.84554 316.472C-0.7288 310.261 -0.245192 301.032 6.00548 294.036C9.69262 289.902 14.8961 287.033 21.0558 285.746C25.7829 284.76 35.0262 284.222 40.8005 286.109C42.9091 286.737 45.06 287.212 47.2367 287.531C51.0947 288.189 54.7382 288.811 57.5854 291.026C65.0142 296.807 69.0286 307.774 66.3668 315.025V315.116L66.3159 315.166C65.2251 317.974 62.2252 318.479 56.8036 318.439H56.7709C53.8619 318.439 40.5896 320.755 36.0444 321.712C32.2684 322.499 28.422 322.9 24.5648 322.908V322.908ZM30.8809 285.571C27.6346 285.556 24.3944 285.853 21.2049 286.458C15.1979 287.713 10.129 290.517 6.54729 294.516C0.547513 301.229 0.0711664 310.058 5.38733 315.97C11.3362 322.606 24.9975 323.264 35.8953 320.974C40.5896 319.988 53.7455 317.701 56.7672 317.701H57.0799C62.7452 317.701 64.8396 316.974 65.6614 314.792L65.6942 314.708C68.2395 307.749 64.3342 297.171 57.1381 291.567C54.4328 289.466 50.8802 288.858 47.1167 288.218C44.9025 287.893 42.715 287.407 40.5715 286.764C37.8479 285.906 34.3208 285.571 30.8809 285.571Z" fill="#0F0F0F"/>
<path d="M108.031 309.305L108.074 307.825L89.7406 306.232L89.606 310.901C89.5733 312.159 90.2242 313.196 91.0605 313.221L104.551 313.708C105.391 313.734 106.889 313.883 108.234 313.065C108.234 313.065 109.583 314.628 115.711 314.647L144.033 315.737C152.804 316.046 153 313.697 153.033 312.527L153.116 309.563L108.031 309.305Z" fill="url(#paint4_linear)"/>
<path d="M145.557 316.116C145.069 316.116 144.557 316.116 144.018 316.086L115.696 314.996C110.736 314.996 108.787 313.941 108.194 313.49C106.947 314.152 105.609 314.101 104.794 314.068L91.0459 313.57C89.995 313.541 89.2023 312.356 89.2278 310.876L89.3623 306.207C89.3621 306.157 89.3724 306.107 89.3925 306.061C89.4126 306.014 89.442 305.973 89.4789 305.939C89.5158 305.905 89.5594 305.879 89.6069 305.862C89.6545 305.846 89.7049 305.839 89.755 305.843L108.089 307.439C108.18 307.447 108.265 307.488 108.327 307.556C108.389 307.623 108.424 307.712 108.423 307.803L108.391 308.894L153.116 309.138C153.165 309.138 153.214 309.148 153.259 309.167C153.304 309.187 153.344 309.215 153.378 309.25C153.412 309.285 153.438 309.326 153.455 309.371C153.473 309.416 153.481 309.464 153.48 309.512L153.396 312.476C153.411 312.853 153.346 313.229 153.204 313.579C153.062 313.929 152.848 314.244 152.574 314.505C151.458 315.606 149.153 316.116 145.557 316.116ZM108.245 312.697C108.297 312.697 108.349 312.708 108.397 312.729C108.445 312.751 108.487 312.782 108.522 312.821C108.522 312.821 109.925 314.276 115.725 314.276L144.058 315.366C148.28 315.516 150.967 315.065 152.087 314.028C152.29 313.834 152.448 313.597 152.55 313.335C152.653 313.074 152.697 312.793 152.68 312.512L152.753 309.919L108.027 309.676C107.978 309.676 107.93 309.666 107.885 309.646C107.84 309.627 107.799 309.599 107.765 309.563C107.732 309.528 107.706 309.487 107.688 309.442C107.671 309.397 107.662 309.349 107.663 309.301L107.696 308.167L90.0896 306.636L89.9659 310.919C89.9368 311.956 90.4423 312.847 91.0568 312.865L104.809 313.363C105.645 313.396 106.907 313.447 108.031 312.759C108.094 312.717 108.169 312.695 108.245 312.697V312.697Z" fill="#0F0F0F"/>
<path d="M155.396 309.079C150.935 314.41 140.739 311.872 118.267 310.727C99.6566 309.781 88.1624 310.825 86.7807 307.181C86.7588 307.132 86.7418 307.081 86.7298 307.029C81.5045 292.484 118.125 281.644 136.997 282.175C142.473 282.328 146.964 283.829 150.4 286.12C158.982 291.815 161.003 302.396 155.396 309.079Z" fill="url(#paint5_linear)"/>
<path d="M144.775 312.698C141.444 312.698 137.339 312.388 132.266 312.003C128.197 311.698 123.583 311.348 118.249 311.076C113.245 310.821 108.794 310.712 104.842 310.614C93.6822 310.341 87.537 310.189 86.4389 307.298C86.4145 307.234 86.3938 307.168 86.377 307.101C85.3371 304.247 85.8498 301.349 87.8824 298.516C95.6131 287.851 122.561 281.393 137.001 281.79C142.182 281.935 146.88 283.32 150.593 285.789C155.069 288.757 158.036 293.244 158.738 298.102C159.054 300.077 158.943 302.096 158.414 304.025C157.884 305.953 156.949 307.746 155.669 309.283C153.505 311.908 150.142 312.698 144.775 312.698ZM135.648 282.517C128.226 282.517 118.481 284.135 109.813 286.833C99.3657 290.084 91.7878 294.389 88.4788 298.956C86.588 301.563 86.1152 304.24 87.0716 306.901C87.0841 306.951 87.0999 306.999 87.1188 307.047C88.0424 309.483 94.7331 309.65 104.86 309.898C108.805 309.996 113.274 310.105 118.285 310.359C123.63 310.632 128.245 310.981 132.321 311.29C145.317 312.272 151.836 312.763 155.12 308.843C156.333 307.385 157.22 305.684 157.722 303.854C158.223 302.025 158.328 300.109 158.029 298.236C157.353 293.582 154.502 289.277 150.196 286.426C146.597 284.022 142.029 282.68 136.986 282.539C136.55 282.517 136.102 282.517 135.648 282.517Z" fill="#0F0F0F"/>
<path d="M61.0507 314.236C58.1744 314.214 45.004 316.417 40.2224 317.403C29.0592 319.672 15.307 318.857 9.36536 312.403C4.22374 306.821 4.46009 299.149 8.95446 292.964C9.63652 292.228 10.3653 291.537 11.1362 290.895C9.61958 291.915 8.22611 293.107 6.98363 294.447C2.49289 300.629 2.25653 308.309 7.39452 313.887C13.3398 320.334 27.1029 321.159 38.2625 318.879C43.0477 317.905 56.2181 315.69 59.0908 315.712C62.9052 315.73 65.2723 315.472 66.7268 314.577C66.825 314.319 66.8977 314.047 66.9814 313.774C65.5669 314.127 63.6469 314.247 61.0507 314.236Z" fill="url(#paint6_linear)"/>
<path d="M151.767 287.971C151.531 287.822 151.276 287.684 151.04 287.542C156.251 293.189 156.858 300.996 152.175 306.251C147.655 311.341 137.306 308.905 114.511 307.77C101.551 307.13 92.0023 307.407 86.8315 306.483C86.9175 306.967 87.049 307.442 87.2243 307.901C91.7841 309.287 102.067 308.865 116.656 309.589C139.451 310.723 149.8 313.17 154.32 308.069C159.371 302.345 158.265 293.651 151.767 287.971Z" fill="url(#paint7_linear)"/>
<path d="M97.511 218.545C98.5281 218.361 99.4852 217.933 100.3 217.297C100.338 217.268 100.381 217.246 100.427 217.233C100.473 217.219 100.522 217.216 100.569 217.221C100.617 217.227 100.663 217.242 100.705 217.266C100.747 217.29 100.783 217.321 100.813 217.359C101.936 218.777 104.813 223.319 115.889 218.646C127.524 213.748 127.074 188.702 127.059 188.029C127.055 188.02 127.055 188.01 127.059 188L127.194 187.019L127.234 186.746C127.24 186.707 127.234 186.667 127.217 186.632C127.199 186.596 127.171 186.567 127.135 186.549C126.805 186.382 125.845 185.88 124.441 185.211C119.95 183.059 110.987 179.132 104.289 178.644C103.706 178.598 103.121 178.583 102.536 178.601C102.05 178.612 101.564 178.652 101.082 178.721C100.831 178.757 100.595 178.804 100.355 178.855C99.7615 179.034 99.2186 179.349 98.7692 179.775C98.4141 180.092 98.0789 180.431 97.7656 180.79C95.9475 182.815 94.093 185.997 92.8058 188.302L92.5222 188.804C84.1007 203.974 94.9657 204.869 96.2456 204.411C96.2829 204.397 96.3233 204.395 96.3616 204.405C96.3999 204.415 96.4342 204.437 96.4602 204.467C96.4861 204.497 96.5024 204.534 96.507 204.573C96.5115 204.612 96.5041 204.652 96.4856 204.687L96.4093 204.843C96.1147 205.44 95.6638 206.341 95.1911 207.389C95.1616 207.442 95.1349 207.496 95.1111 207.552C94.2712 209.4 93.3657 211.603 93.0785 213.178C92.2712 217.694 96.0456 218.806 97.511 218.545Z" fill="white"/>
<path d="M107.518 221.065C103.227 221.065 101.511 218.839 100.693 217.792L100.544 217.603C99.682 218.274 98.67 218.726 97.5948 218.919V218.919C96.9175 218.996 96.2315 218.92 95.5873 218.697C94.943 218.475 94.3567 218.111 93.8713 217.632C93.1222 216.883 92.3186 215.49 92.7441 213.112C92.9804 211.796 93.6532 209.927 94.8022 207.403C94.8277 207.345 94.8567 207.28 94.8895 207.221C95.3004 206.334 95.6894 205.542 95.9803 204.96L96.0349 204.851C94.8931 204.996 92.1368 204.669 90.4242 202.647C88.7806 200.709 87.7625 196.706 92.2423 188.644C92.3296 188.484 92.4314 188.309 92.5296 188.139C94.4859 184.626 96.1222 182.15 97.5294 180.568C97.8527 180.198 98.1988 179.848 98.5657 179.521C99.0597 179.053 99.658 178.711 100.311 178.521C100.553 178.465 100.796 178.418 101.038 178.379C101.535 178.309 102.035 178.268 102.536 178.255C103.133 178.237 103.73 178.252 104.325 178.299C111.005 178.79 119.899 182.662 124.605 184.902C125.83 185.484 126.717 185.942 127.15 186.16L127.31 186.24C127.414 186.294 127.498 186.38 127.551 186.484C127.604 186.588 127.622 186.707 127.605 186.822L127.434 188.062C127.456 189.386 127.761 214.065 116.038 218.999C112.412 220.505 109.638 221.065 107.518 221.065ZM100.54 216.861H100.609C100.803 216.887 100.979 216.988 101.1 217.141L101.249 217.334C102.486 218.934 105.38 222.683 115.751 218.316C127.088 213.541 126.717 189.08 126.696 188.04C126.694 188.013 126.694 187.985 126.696 187.957L126.852 186.819L126.805 186.793C126.379 186.575 125.496 186.124 124.281 185.542C119.619 183.31 110.827 179.492 104.26 178.997C103.689 178.953 103.116 178.94 102.544 178.957C102.072 178.969 101.601 179.007 101.133 179.073C100.9 179.11 100.667 179.157 100.446 179.204C99.9114 179.369 99.4232 179.657 99.0202 180.044C98.6808 180.352 98.3613 180.681 98.0639 181.03C96.6894 182.575 95.0858 185.008 93.1513 188.48C93.0495 188.651 92.955 188.822 92.8641 188.979C89.4788 195.073 88.8206 199.629 90.9623 202.156C92.6495 204.149 95.5767 204.269 96.1331 204.069C96.2384 204.031 96.3529 204.025 96.4615 204.053C96.5701 204.08 96.668 204.14 96.7424 204.224C96.8168 204.307 96.8644 204.412 96.8789 204.523C96.8935 204.634 96.8743 204.747 96.8239 204.847L96.6167 205.265C96.3294 205.843 95.9403 206.64 95.5258 207.523L95.504 207.563C95.4836 207.601 95.4654 207.64 95.4494 207.68C94.3222 210.156 93.6677 211.967 93.4422 213.225C93.1441 214.883 93.4423 216.188 94.3695 217.097C94.7725 217.491 95.2564 217.793 95.7876 217.981C96.3187 218.17 96.8845 218.24 97.4457 218.188V218.188C98.4031 218.021 99.3041 217.619 100.067 217.017C100.196 216.913 100.356 216.855 100.522 216.854L100.54 216.861Z" fill="#0F0F0F"/>
<path d="M127.546 187.502C127.54 187.505 127.532 187.507 127.525 187.507C127.517 187.507 127.51 187.505 127.503 187.502C127.259 187.549 126.412 187.175 125.241 186.6C124.801 186.382 124.325 186.142 123.812 185.873C123.299 185.604 122.648 185.27 122.041 184.942C119.885 183.797 117.638 182.586 116.39 182.011C114.165 180.997 103.085 183.026 98.0384 182.928C96.7184 182.902 95.8057 182.735 95.5766 182.321C95.3199 181.88 95.13 181.403 95.013 180.906C94.1658 177.364 98.2638 175.354 99.8165 174.397C99.9983 174.284 100.18 174.179 100.369 174.085C106.874 170.699 117.503 175.175 123.892 179.095C124.506 179.459 125.085 179.822 125.608 180.186C126.132 180.55 126.619 180.881 127.063 181.204C128.234 182.095 129.012 182.833 129.226 183.27C130.51 185.92 128.066 187.153 127.546 187.502Z" fill="white"/>
<path d="M127.463 187.88C127.161 187.88 126.597 187.688 125.077 186.939C124.637 186.717 124.157 186.477 123.645 186.211C123.132 185.946 122.477 185.604 121.87 185.277L120.917 184.771C119.052 183.779 117.281 182.841 116.238 182.357C115.023 181.804 110.631 182.259 106.383 182.699C103.315 183.019 100.147 183.346 98.0202 183.306C96.3693 183.273 95.5403 183.037 95.2494 182.513C94.9763 182.041 94.773 181.531 94.6457 181.001C93.8167 177.524 97.282 175.481 99.1437 174.383L99.6165 174.103C99.8056 173.986 99.9983 173.877 100.191 173.775C106.438 170.528 116.623 174.241 124.074 178.797C124.779 179.233 125.332 179.59 125.805 179.917C126.405 180.321 126.866 180.644 127.259 180.946C128.124 181.604 129.223 182.517 129.528 183.128C130.873 185.84 128.626 187.24 127.888 187.702L127.754 187.786C127.687 187.835 127.607 187.863 127.525 187.866L127.463 187.88ZM114.063 181.379C115.172 181.379 116.038 181.47 116.532 181.695C117.623 182.19 119.379 183.131 121.259 184.128L122.212 184.633C122.819 184.964 123.419 185.273 123.979 185.568C124.539 185.862 124.965 186.07 125.401 186.295C126.823 186.997 127.277 187.135 127.419 187.157L127.51 187.102C128.641 186.397 129.815 185.35 128.881 183.466C128.812 183.324 128.463 182.775 126.823 181.532C126.459 181.241 125.994 180.921 125.405 180.524C124.939 180.201 124.397 179.852 123.703 179.433C116.43 174.979 106.518 171.325 100.536 174.437C100.358 174.528 100.173 174.63 100.006 174.735L99.5219 175.026C97.8238 176.026 94.6603 177.892 95.3657 180.844C95.4734 181.305 95.6473 181.747 95.8821 182.157C95.9184 182.222 96.1875 182.542 98.0347 182.579C100.093 182.615 103.249 182.292 106.296 181.975C109.234 181.673 112.056 181.379 114.063 181.379Z" fill="#0F0F0F"/>
<path d="M93.0676 212.741C93.5374 212.932 94.0466 213.006 94.5512 212.956C95.0487 212.916 95.5381 212.807 96.0057 212.632C96.4695 212.458 96.9173 212.244 97.3438 211.992C97.7719 211.744 98.1729 211.451 98.5401 211.119C100.075 209.792 101.555 208.338 103.009 206.883C104.464 205.429 105.885 203.931 107.282 202.411C108.678 200.891 110.049 199.349 111.365 197.749C110.21 199.471 108.966 201.131 107.638 202.723C106.318 204.32 104.933 205.862 103.5 207.363C102.07 208.874 100.561 210.309 98.9801 211.661C98.5744 212.017 98.1333 212.33 97.6638 212.596C97.1843 212.843 96.6796 213.038 96.1584 213.178C95.632 213.315 95.0858 213.361 94.5439 213.312C94.0076 213.266 93.4955 213.068 93.0676 212.741V212.741Z" fill="#0F0F0F"/>
<path d="M100.558 188.571C100.376 189.814 100.059 191.033 99.6129 192.207C99.1816 193.39 98.6789 194.544 98.1075 195.666L97.6784 196.505L97.2203 197.327C96.9148 197.88 96.59 198.423 96.2457 198.956C96.0785 199.214 95.8821 199.498 95.7148 199.745L95.1549 200.505C94.7913 201.007 94.4276 201.509 94.0313 202.003C93.8676 202.207 93.6677 202.462 93.4822 202.683C93.2968 202.905 93.1186 203.142 92.9041 203.367C93.0459 203.105 93.1877 202.843 93.3368 202.589C93.4858 202.334 93.624 202.091 93.7913 201.803C94.1004 201.262 94.4204 200.713 94.744 200.185L95.2312 199.385C95.3985 199.12 95.544 198.869 95.7003 198.596L96.6094 196.993L97.4857 195.353C98.0566 194.262 98.6129 193.142 99.1366 192.018C99.6602 190.895 100.133 189.753 100.558 188.571Z" fill="#0F0F0F"/>
<path d="M128.052 280.262C127.968 280.099 127.874 279.932 127.775 279.753C127.645 279.506 127.514 279.248 127.375 278.964C125.957 276.055 114.074 218.701 113.54 205.083C116.63 200.04 119.059 190.775 118.372 179.593C117.888 170.654 115.29 161.956 110.791 154.216C110.791 154.216 99.5183 135.151 93.2604 129.461L93.0567 129.261L92.9586 129.352C92.6204 129.661 92.0313 130.232 91.8168 130.443C91.7966 130.463 91.7747 130.481 91.7513 130.497L91.4968 130.733C91.1732 131.021 90.8132 131.301 90.435 131.584L90.1441 131.795L89.6932 132.115C90.0205 132.748 95.7585 143.918 97.093 148.369L70.2467 147.402C68.0468 142.758 64.3924 130.726 49.1857 120.33C47.233 118.996 38.0188 115.265 38.0188 115.265C37.8443 115.218 27.2483 118.214 27.2483 118.214C31.425 119.129 35.1479 121.482 37.7679 124.861C44.844 133.853 45.7858 144.98 39.4151 152.216C34.6698 157.609 31.7027 156.834 31.7027 156.834C30.8336 158.162 26.0447 168.408 25.772 178.081C25.3102 194.502 38.4988 217.683 38.4988 217.683C38.3243 235.675 27.7065 276.448 25.9974 281.171C25.7502 281.859 25.5138 282.491 25.2993 283.066C24.8993 284.157 24.572 285.004 24.3248 285.611C24.3248 285.655 24.292 285.688 24.2775 285.724C24.263 285.76 24.5502 285.724 25.0338 285.724C25.612 285.724 26.4883 285.764 27.601 285.851L28.2737 285.909L29.001 285.979L29.6773 286.062C30.3003 286.135 30.9573 286.229 31.6481 286.346L32.299 286.455L32.9608 286.579C34.6486 286.895 36.3158 287.313 37.9534 287.829L38.5788 288.026C38.8697 288.12 39.157 288.226 39.4442 288.331L39.9424 288.509C40.4078 288.684 40.8732 288.873 41.335 289.062L42.0077 289.353C42.1568 289.418 42.3096 289.487 42.4586 289.56C42.7059 289.673 42.9532 289.789 43.1859 289.924C45.516 291.051 47.6783 292.496 49.6111 294.218C49.822 294.411 50.0329 294.604 50.2329 294.804C50.4329 295.004 50.6583 295.218 50.862 295.433C51.0656 295.647 51.2256 295.825 51.4219 296.033C51.6183 296.24 51.851 296.524 52.0619 296.76C52.2728 296.996 52.3965 297.171 52.5564 297.385C52.7164 297.6 52.971 297.938 53.171 298.222C54.7345 300.465 57.4872 301.334 59.9198 301.454C61.8325 301.556 63.556 301.189 64.3524 300.647C64.3501 300.603 64.3501 300.56 64.3524 300.516C64.3477 300.481 64.3477 300.446 64.3524 300.411C64.3524 300.334 64.3524 300.24 64.3742 300.127C64.3742 300.073 64.3742 300.011 64.3742 299.949C64.3742 299.887 64.3742 299.829 64.3924 299.767C64.4105 299.705 64.3924 299.596 64.4142 299.505C64.436 299.414 64.4142 299.331 64.436 299.24C64.4578 299.149 64.4578 298.964 64.4687 298.811C64.4978 298.549 64.5196 298.265 64.5487 297.953C64.6105 297.262 64.6796 296.451 64.7633 295.535C64.7814 295.342 64.7996 295.149 64.8214 294.945C64.8214 294.913 64.8214 294.876 64.8214 294.836C64.8432 294.662 64.8614 294.473 64.8723 294.309C64.8723 294.276 64.8723 294.233 64.8723 294.193C64.9014 293.935 64.9196 293.673 64.9487 293.404C65.0578 292.313 65.1741 291.146 65.3123 289.884C65.3414 289.622 65.3705 289.346 65.3996 289.069C65.5232 287.891 65.6614 286.651 65.8069 285.357C65.9087 284.466 66.0178 283.56 66.1268 282.626C66.1741 282.262 66.2177 281.877 66.265 281.495C66.3305 280.928 66.3996 280.346 66.4796 279.768C66.505 279.572 66.5268 279.379 66.5523 279.186C66.6032 278.79 66.6505 278.397 66.7014 278.001C66.9341 276.226 67.1777 274.397 67.4468 272.546C67.505 272.135 67.5668 271.721 67.6286 271.314C67.9922 268.768 71.8975 239.529 73.5738 227.57C76.0319 227.529 78.3567 227.407 80.5481 227.206C87.0933 247.238 89.2351 296.207 89.915 296.72C100.227 302.622 113.987 286.902 128.732 282.539H128.754L129.364 282.364C128.869 281.701 128.43 280.998 128.052 280.262V280.262Z" fill="url(#paint8_linear)"/>
<path d="M60.5707 301.832C60.3489 301.832 60.1271 301.832 59.9053 301.832C56.8327 301.683 54.2728 300.447 52.8765 298.444C52.6946 298.185 52.4874 297.894 52.2765 297.625C52.1165 297.414 51.9529 297.214 51.7929 297.018C51.5783 296.753 51.3638 296.509 51.1529 296.269C50.942 296.029 50.7893 295.873 50.6074 295.684C50.3675 295.429 50.1711 295.236 49.9893 295.065C49.8075 294.895 49.5748 294.669 49.3675 294.48C47.4619 292.781 45.3287 291.357 43.0295 290.247C42.7823 290.124 42.5423 290.007 42.3023 289.884C42.1459 289.807 42.0005 289.742 41.8514 289.677L41.2187 289.404H41.1823C40.6915 289.189 40.1897 289 39.8079 288.858L39.3133 288.68C39.0297 288.575 38.7461 288.473 38.4624 288.382L38.3206 288.335L37.8407 288.186C36.2162 287.672 34.5624 287.257 32.8881 286.942L32.2227 286.819L31.6154 286.717C30.8882 286.597 30.2409 286.502 29.6264 286.429L28.9464 286.349C28.6992 286.32 28.4628 286.302 28.2192 286.28L27.5429 286.219C26.4047 286.131 25.532 286.102 24.9975 286.095C24.463 286.088 24.2703 286.095 24.2703 286.095C24.2085 286.096 24.1474 286.082 24.0927 286.054C24.038 286.025 23.9915 285.983 23.9575 285.931C23.9211 285.879 23.8992 285.817 23.8941 285.753C23.889 285.69 23.9008 285.625 23.9284 285.568L23.9648 285.477C24.2121 284.851 24.543 284.022 24.9393 282.931C25.1575 282.352 25.3902 281.721 25.6375 281.037C25.645 281.015 25.6547 280.995 25.6666 280.975C27.3138 276.317 37.9134 235.784 38.1206 217.767C37.2407 216.192 24.9611 193.891 25.3938 178.059C25.6811 167.928 30.7173 157.645 31.3827 156.605C31.4244 156.541 31.4851 156.492 31.5563 156.465C31.6274 156.438 31.7053 156.433 31.7791 156.452C31.8045 156.452 34.6335 157.056 39.1279 151.947C45.284 144.951 44.6186 134.13 37.4698 125.039C34.9072 121.767 31.299 119.473 27.2483 118.541C27.1538 118.541 26.8592 118.461 26.8847 118.152C26.8873 118.075 26.9144 118 26.9621 117.94C27.0098 117.879 27.0757 117.835 27.1502 117.814C37.8334 114.796 37.9825 114.832 38.1134 114.869H38.1534C38.517 115.021 47.4294 118.628 49.3929 119.959C62.8143 129.137 67.2832 139.555 69.6831 145.155C69.9813 145.846 70.2394 146.453 70.4831 146.973L96.5912 147.915C95.0203 143.188 89.606 132.672 89.3696 132.21C89.3275 132.128 89.3175 132.034 89.3418 131.946C89.366 131.858 89.4227 131.782 89.5005 131.733L89.6823 131.606L89.9441 131.421L90.1078 131.301L90.2241 131.217C90.5878 130.941 90.9514 130.668 91.2568 130.384L91.3841 130.268L91.515 130.152C91.5253 130.139 91.5376 130.128 91.5514 130.119C91.6568 130.024 91.7986 129.886 91.9622 129.73L92.7149 129.021L92.7804 128.963L92.8095 128.937C92.8773 128.872 92.9679 128.835 93.0622 128.835C93.1565 128.835 93.2471 128.872 93.3149 128.937L93.3804 128.999C93.4204 129.043 93.464 129.086 93.5076 129.126C99.7474 134.788 110.645 153.184 111.107 153.965C115.547 161.478 118.187 170.328 118.743 179.506C119.47 191.309 116.736 200.451 113.914 205.116C114.521 219.363 126.419 276.103 127.71 278.739C127.845 279.019 127.975 279.273 128.103 279.517C128.201 279.688 128.292 279.859 128.379 280.022C128.768 280.736 129.216 281.415 129.717 282.055C129.756 282.102 129.783 282.157 129.795 282.217C129.807 282.277 129.804 282.339 129.786 282.397C129.768 282.455 129.736 282.508 129.692 282.551C129.648 282.593 129.594 282.624 129.535 282.64L128.939 282.815H128.877C123.332 284.455 117.969 287.698 112.751 290.837C104.336 295.927 96.3875 300.705 89.806 296.949C89.7303 296.907 89.6703 296.842 89.6351 296.764C89.4387 296.349 89.2933 294.836 88.7042 287.488C87.5224 272.786 85.068 242.289 80.3409 227.49C78.3482 227.672 76.1992 227.784 73.9411 227.828C72.9266 235.082 71.1267 248.438 69.8067 258.227C68.9013 264.947 68.185 270.255 68.0359 271.27L67.8577 272.499C67.6177 274.157 67.3741 275.943 67.1305 277.953C67.1014 278.157 67.0759 278.357 67.0505 278.557C67.025 278.757 67.0032 278.946 66.9777 279.139C66.9777 279.237 66.9523 279.335 66.9414 279.43C66.9305 279.524 66.9196 279.626 66.905 279.721C66.825 280.299 66.7559 280.877 66.6905 281.444L66.4614 283.371C66.385 284.026 66.3087 284.669 66.236 285.306C66.0869 286.597 65.9487 287.851 65.8251 289.011L65.7414 289.829C65.6069 291.087 65.4905 292.266 65.3778 293.342C65.3778 293.469 65.3524 293.593 65.3414 293.706C65.3305 293.818 65.316 293.989 65.2978 294.131C65.301 294.151 65.301 294.172 65.2978 294.193C65.2978 294.193 65.2978 294.225 65.2978 294.233C65.2978 294.418 65.2651 294.596 65.2469 294.775C65.2469 294.775 65.2469 294.811 65.2469 294.84C65.2469 294.869 65.2469 294.873 65.2469 294.88L65.1887 295.469L64.9415 298.244C64.9415 298.422 64.9124 298.607 64.8942 298.749L64.8651 299.167C64.8651 299.258 64.8469 299.338 64.8433 299.411C64.8396 299.483 64.8251 299.6 64.8215 299.676C64.8234 299.689 64.8234 299.703 64.8215 299.716C64.8215 299.742 64.8215 299.763 64.8215 299.789C64.8215 299.814 64.8215 299.851 64.8215 299.88C64.8215 299.909 64.8215 299.942 64.8215 299.974V300.123C64.8215 300.203 64.8215 300.273 64.8215 300.327C64.8215 300.382 64.8215 300.367 64.8215 300.389C64.8198 300.402 64.8198 300.416 64.8215 300.429C64.819 300.475 64.819 300.521 64.8215 300.567C64.8192 300.624 64.8036 300.68 64.7758 300.73C64.748 300.78 64.7088 300.822 64.6615 300.854C63.7451 301.502 62.2252 301.832 60.5707 301.832ZM24.7866 285.346H25.0193C25.5538 285.346 26.4411 285.382 27.6047 285.473L28.281 285.535C28.5246 285.557 28.7683 285.575 29.0264 285.604L29.71 285.688C30.3355 285.76 31.0045 285.855 31.6991 285.975C31.9318 286.011 32.1391 286.044 32.3536 286.084L33.0154 286.208C34.7236 286.526 36.4104 286.949 38.0661 287.477L38.5534 287.629L38.6952 287.673C38.9861 287.768 39.2806 287.873 39.5751 287.982L40.0697 288.16C40.4624 288.306 40.9787 288.502 41.4842 288.724L42.1569 289.015C42.3132 289.08 42.4696 289.149 42.6223 289.226C42.8659 289.335 43.1168 289.455 43.3677 289.589C45.7282 290.735 47.9177 292.203 49.8729 293.953C50.0911 294.153 50.302 294.349 50.5093 294.553C50.7165 294.756 50.8983 294.916 51.1456 295.189C51.3347 295.382 51.5274 295.585 51.7129 295.8C51.8983 296.015 52.1492 296.295 52.3601 296.556C52.571 296.818 52.7237 296.978 52.8655 297.193C53.0837 297.469 53.2983 297.771 53.4873 298.036C55.2836 300.622 58.6108 301.051 59.9562 301.116C61.8107 301.214 63.3088 300.862 64.0215 300.462C64.0199 300.441 64.0199 300.42 64.0215 300.4C64.0215 300.334 64.0215 300.262 64.0397 300.178V300.12C64.0397 300.102 64.0397 300.069 64.0397 300.033C64.0397 299.996 64.0397 299.982 64.0397 299.956C64.038 299.94 64.038 299.925 64.0397 299.909C64.0397 299.909 64.0397 299.869 64.0397 299.847C64.0397 299.825 64.0397 299.785 64.0397 299.756C64.0397 299.669 64.0397 299.578 64.0651 299.487C64.0906 299.396 64.0651 299.32 64.0869 299.222L64.116 298.803C64.1342 298.636 64.1488 298.473 64.1633 298.302L64.4687 294.931C64.4687 294.931 64.4687 294.898 64.4687 294.873C64.4687 294.847 64.4687 294.825 64.4687 294.815C64.4869 294.647 64.5051 294.48 64.516 294.302C64.516 294.302 64.516 294.262 64.516 294.229C64.5142 294.21 64.5142 294.19 64.516 294.171C64.516 294.036 64.5415 293.898 64.556 293.76C64.5706 293.622 64.5778 293.509 64.5924 293.396C64.6978 292.306 64.8142 291.142 64.956 289.88L65.0396 289.062C65.1633 287.884 65.3014 286.644 65.4505 285.349C65.5232 284.713 65.5996 284.07 65.676 283.415L65.9051 281.488C65.9705 280.917 66.0432 280.335 66.1232 279.75L66.156 279.473C66.156 279.372 66.1814 279.27 66.1959 279.168C66.2214 278.979 66.2432 278.804 66.2687 278.593L66.345 277.986C66.6068 275.975 66.8505 274.186 67.0905 272.532L67.2723 271.303C67.4177 270.292 68.1341 264.987 69.0395 258.267C70.3776 248.336 72.2103 234.737 73.2175 227.559C73.2298 227.472 73.2736 227.392 73.3405 227.334C73.4074 227.277 73.4929 227.245 73.5811 227.246C76.0428 227.206 78.381 227.079 80.5263 226.883C80.6056 226.878 80.6841 226.9 80.7498 226.945C80.8154 226.99 80.8647 227.055 80.89 227.13C85.7552 241.842 88.246 272.699 89.4205 287.509C89.7841 292.113 90.086 295.789 90.2532 296.451C96.4348 299.894 104.184 295.233 112.369 290.295C117.609 287.135 123.03 283.866 128.666 282.197C128.696 282.183 128.728 282.174 128.761 282.171H128.819C128.425 281.621 128.061 281.049 127.728 280.459V280.459C127.645 280.302 127.554 280.135 127.455 279.961C127.317 279.706 127.183 279.441 127.045 279.153C125.743 276.495 113.725 219.239 113.172 205.127C113.17 205.055 113.189 204.984 113.227 204.923C116.009 200.385 118.725 191.36 118.009 179.644C117.452 170.554 114.845 161.827 110.467 154.427C110.354 154.238 99.1947 135.421 93.0386 129.792L92.4495 130.348L92.0532 130.712L91.9877 130.766L91.8641 130.879L91.7259 131.006C91.395 131.301 91.0241 131.584 90.635 131.875L90.5078 131.966L90.3441 132.086L90.1332 132.235C91.0823 134.086 96.1657 144.104 97.4057 148.267C97.4226 148.323 97.4259 148.382 97.4154 148.439C97.4049 148.496 97.3808 148.55 97.3452 148.596C97.3096 148.642 97.2635 148.679 97.2107 148.703C97.158 148.727 97.1001 148.739 97.0421 148.736L70.1994 147.769C70.1328 147.767 70.068 147.746 70.0122 147.71C69.9564 147.673 69.9117 147.622 69.8831 147.562C69.6104 146.984 69.3158 146.304 68.9813 145.518C66.6068 139.988 62.1925 129.693 48.9457 120.636C47.1494 119.407 38.8988 116.036 37.9352 115.643C37.208 115.792 32.4227 117.127 28.6155 118.188C32.3323 119.328 35.6128 121.575 38.0188 124.628C45.3931 134.002 46.0476 145.184 39.6515 152.449C35.5753 157.082 32.7427 157.289 31.8518 157.22C30.67 159.245 26.3538 169.074 26.0993 178.084C25.6447 194.215 38.637 217.265 38.7679 217.497C38.8017 217.552 38.8182 217.615 38.8152 217.679C38.6443 235.81 27.8774 276.921 26.2956 281.288C26.2881 281.309 26.2784 281.33 26.2665 281.35C26.0265 282.015 25.7975 282.626 25.5866 283.19C25.292 284.051 25.012 284.775 24.7866 285.346Z" fill="#0F0F0F"/>
<path d="M49.5929 92.9057C48.3639 86.8223 40.5569 83.3534 32.139 85.1533C23.7212 86.9532 17.9287 93.3457 19.1577 99.4291C19.8122 102.662 22.3321 105.142 25.8047 106.502C26.2772 109.083 27.7401 111.377 29.8809 112.894C34.2444 115.985 40.0987 115.036 42.9714 110.774C43.6542 109.752 44.1278 108.606 44.365 107.4C44.6021 106.194 44.5981 104.953 44.3531 103.749C48.2475 100.884 50.3856 96.8329 49.5929 92.9057Z" fill="#4C1A01"/>
<path d="M35.4916 115.076C33.4032 115.07 31.3689 114.412 29.6736 113.192C27.5089 111.662 26.0115 109.362 25.4883 106.763C21.8739 105.309 19.4449 102.658 18.805 99.491C17.5395 93.2221 23.4884 86.626 32.0663 84.7861C37.0297 83.7243 42.0913 84.4624 45.6076 86.7642C47.9493 88.2987 49.4474 90.4004 49.9383 92.8221C50.7237 96.7093 48.7893 100.822 44.7531 103.894C45.1984 106.354 44.6689 108.891 43.2768 110.967C42.5852 111.996 41.6934 112.876 40.6544 113.553C39.6155 114.23 38.4507 114.691 37.2297 114.909C36.6565 115.016 36.0748 115.072 35.4916 115.076ZM36.5497 85.0479C35.1037 85.0513 33.6619 85.2061 32.2481 85.5097C24.0557 87.266 18.3577 93.4766 19.5467 99.3564C20.1467 102.32 22.4885 104.811 25.9683 106.163C26.026 106.186 26.077 106.223 26.1165 106.271C26.1559 106.318 26.1825 106.375 26.1938 106.436C26.644 108.927 28.0559 111.141 30.1245 112.6C31.1244 113.323 32.2598 113.838 33.4631 114.114C34.6663 114.389 35.9127 114.42 37.1279 114.203C38.2538 114.003 39.3277 113.578 40.2855 112.953C41.2433 112.328 42.0653 111.517 42.7022 110.567C43.3585 109.585 43.8137 108.482 44.0415 107.323C44.2693 106.164 44.2652 104.972 44.0295 103.814C44.0161 103.747 44.0223 103.676 44.0474 103.612C44.0726 103.548 44.1155 103.492 44.1713 103.451C48.0948 100.542 49.9892 96.6329 49.262 92.9712C48.8111 90.7386 47.4221 88.8041 45.244 87.3751C42.8804 85.8515 39.8114 85.0479 36.5497 85.0479V85.0479Z" fill="#0F0F0F"/>
<path d="M110.212 117.432C108.883 118.839 107.401 120.094 105.794 121.174C103.535 122.677 101.09 123.882 98.522 124.759C98.0989 124.907 97.6879 125.089 97.2929 125.301C95.6566 126.152 94.2531 127.453 92.9295 128.715C92.3013 129.303 91.6317 129.845 90.9259 130.337C87.2897 132.908 81.4717 135.253 75.0683 134.744C67.7959 134.181 61.1161 130.588 57.7708 127.857C56.0472 126.439 53.651 124.472 51.5892 123.537C37.5679 117.218 23.8848 105.433 26.9029 88.9059C21.3394 86.7241 16.3833 81.437 14.6742 75.8154C12.6089 69.0011 13.4816 61.5251 18.8304 57.6634C20.5633 56.4421 22.554 55.6358 24.6484 55.3071C27.8956 54.7435 31.0445 56.0344 33.6699 58.4416C34.1244 57.9325 34.8117 57.1943 35.7644 56.2998L36.728 55.4308C40.3508 52.3448 44.3423 49.72 48.6111 47.6165C48.6111 47.6165 48.6111 47.6165 48.6402 47.6165C48.8329 47.5547 49.0257 47.482 49.2148 47.4165C87.3079 34.2097 103.518 40.3441 110.387 48.5656C112.902 51.8484 114.551 55.7109 115.183 59.7979C115.205 59.9651 115.23 60.1179 115.238 60.2706C115.369 61.2251 115.439 62.187 115.449 63.1505V63.7686C115.489 67.4776 113.772 80.9498 115.034 84.4624C118.674 94.5638 118.852 108.269 110.212 117.432Z" fill="#FCBD9A"/>
<path d="M76.7701 135.181C76.1847 135.181 75.6102 135.155 75.0356 135.111C67.7232 134.544 61.0398 131.003 57.5381 128.141C55.8073 126.719 53.451 124.785 51.4256 123.872C45.8804 121.367 38.1061 116.963 32.5682 110.276C27.2302 103.814 25.1866 96.702 26.492 89.135C20.9068 86.8333 16.0379 81.5535 14.3252 75.9064C12.4707 69.7757 12.6198 61.6815 18.6196 57.3617C20.4048 56.104 22.455 55.273 24.6121 54.9327C27.652 54.4054 30.8555 55.4672 33.6699 57.9144C34.2445 57.2853 34.8735 56.649 35.5426 56.0199L36.5098 55.1472C40.151 52.0462 44.1604 49.4058 48.4476 47.2857L48.5276 47.2457L48.833 47.1402L49.0803 47.0566C87.897 33.6026 103.987 40.3332 110.663 48.3329C113.215 51.6704 114.891 55.5929 115.54 59.7434V59.8198C115.561 59.9688 115.583 60.107 115.59 60.2488C115.721 61.2131 115.792 62.1847 115.801 63.1578V63.776C115.801 64.9577 115.652 67.1068 115.463 69.5939C115.067 74.8374 114.525 82.0153 115.365 84.3534C118.903 94.1966 119.474 108.127 110.456 117.694C109.108 119.121 107.605 120.394 105.976 121.49C103.689 123.01 101.217 124.232 98.6202 125.126C98.214 125.267 97.8199 125.441 97.4421 125.646C95.8967 126.45 94.5876 127.639 93.155 128.999C92.5149 129.601 91.832 130.155 91.1114 130.657C86.8931 133.57 81.8961 135.146 76.7701 135.181V135.181ZM26.1866 55.5217C25.699 55.5226 25.2124 55.5652 24.7321 55.649C22.69 55.9716 20.7486 56.7564 19.0559 57.9435C13.3689 62.0488 13.238 69.8048 15.0343 75.6955C16.7142 81.2335 21.5395 86.4078 27.0338 88.5678L27.3138 88.6769L27.2593 88.9714C23.7067 108.302 43.1859 119.356 51.7274 123.21C53.8365 124.159 56.2364 126.119 57.989 127.574C61.418 130.373 67.9486 133.835 75.0793 134.391C80.626 134.749 86.1303 133.218 90.6969 130.05C91.3892 129.567 92.0454 129.035 92.6605 128.457C94.1331 127.057 95.4822 125.832 97.1112 124.988C97.5221 124.766 97.9501 124.578 98.3911 124.425C100.928 123.553 103.344 122.361 105.58 120.879C107.166 119.814 108.63 118.576 109.943 117.188C118.732 107.862 118.161 94.233 114.692 84.5897C113.801 82.1098 114.329 75.1355 114.754 69.5321C114.94 67.0595 115.118 64.9287 115.089 63.776V63.1614C115.079 62.2114 115.01 61.2629 114.881 60.3216C114.881 60.1761 114.852 60.0525 114.834 59.9216V59.8488C114.203 55.8269 112.579 52.026 110.107 48.7911C103.595 40.9805 87.7552 34.4462 49.3239 47.7475L49.0839 47.8311C48.9784 47.8675 48.873 47.9075 48.7639 47.9402C44.531 50.029 40.5716 52.6316 36.9753 55.689L36.0153 56.5544C35.288 57.2526 34.5608 57.9653 33.9499 58.6671L33.7063 58.9434L33.4336 58.6962C31.7791 57.1835 29.2555 55.5217 26.1866 55.5217Z" fill="#0F0F0F"/>
<path d="M114.427 84.9861C87.1552 70.1612 32.4409 75.6155 32.4409 75.6155L35.9281 58.558C37.9607 56.4889 42.066 52.8818 48.8694 49.3183C62.687 44.533 73.6321 42.2931 82.2863 41.7659L99.5984 43.584C104.435 45.2166 107.765 47.7366 110.056 50.4928C111.83 52.6398 113.155 55.1218 113.95 57.7911C114.745 60.4604 114.995 63.2625 114.685 66.0304C114.369 72.7938 113.274 79.5426 114.427 84.9861Z" fill="url(#paint9_linear)"/>
<path d="M23.1576 62.0197C23.8772 62.1455 24.5825 62.3429 25.263 62.6088C25.9443 62.8828 26.6053 63.2048 27.2411 63.5724C28.5174 64.3189 29.6846 65.2379 30.71 66.3032C31.2282 66.8455 31.6855 67.443 32.0736 68.0849C32.4436 68.7265 32.7622 69.3965 33.0263 70.0885C33.1654 70.4418 33.2724 70.8069 33.3463 71.1793C33.4537 71.5806 33.4321 72.0055 33.2845 72.3938C33.2341 72.4978 33.1634 72.5906 33.0766 72.6667C32.9898 72.7429 32.8886 72.801 32.779 72.8375C32.5913 72.8933 32.3967 72.9227 32.2009 72.9247C32.0357 72.9116 31.8695 72.9339 31.7136 72.9902C31.6009 73.0629 31.6482 73.2884 31.7136 73.4483C31.6626 73.3719 31.62 73.2902 31.5864 73.2047C31.5639 73.1543 31.5562 73.0986 31.5639 73.0439C31.5716 72.9893 31.5945 72.9379 31.63 72.8956C31.7894 72.7761 31.9776 72.7009 32.1754 72.6775C32.5391 72.612 32.8409 72.4811 32.9027 72.2302C32.9575 71.9204 32.9287 71.6015 32.819 71.3066C32.7168 70.9762 32.5954 70.652 32.4554 70.3357C32.3136 70.0158 32.15 69.6994 31.9864 69.383C31.8227 69.0667 31.6555 68.7394 31.4773 68.4558C31.1091 67.8608 30.6854 67.3019 30.2119 66.7868C29.7277 66.2694 29.2167 65.7778 28.681 65.3141C28.1392 64.8559 27.5902 64.4196 26.9865 64.0123C26.3996 63.61 25.7928 63.2374 25.1684 62.896C24.5186 62.559 23.8468 62.2662 23.1576 62.0197V62.0197Z" fill="#0F0F0F"/>
<path d="M26.6556 68.8957C27.3799 68.8108 28.1109 68.7998 28.8374 68.863C29.5725 68.931 30.3017 69.0526 31.0191 69.2266C32.4554 69.5781 33.8358 70.1276 35.1208 70.8593C35.7741 71.2302 36.3839 71.673 36.9389 72.1792C37.4766 72.6891 37.9728 73.2411 38.4225 73.8301C38.6543 74.1281 38.8599 74.4457 39.037 74.7792C39.2533 75.1336 39.3537 75.5467 39.3243 75.9609C39.3051 76.0751 39.2629 76.1842 39.2004 76.2817C39.138 76.3792 39.0564 76.4631 38.9606 76.5282C38.7982 76.6387 38.6189 76.7223 38.4297 76.7754C38.269 76.8107 38.1176 76.8801 37.9861 76.9791C37.8952 77.0809 38.0079 77.2845 38.1098 77.4227C38.0372 77.3634 37.9713 77.2964 37.9134 77.2227C37.8784 77.1802 37.8555 77.1291 37.8472 77.0747C37.8389 77.0203 37.8454 76.9646 37.8661 76.9136C37.9865 76.7534 38.147 76.628 38.3316 76.55C38.6516 76.3864 38.9134 76.1864 38.9024 75.9137C38.859 75.6006 38.7336 75.3045 38.5388 75.0555C38.3418 74.7691 38.1294 74.4935 37.9025 74.2301C37.6734 73.9646 37.4261 73.7065 37.1752 73.4519C36.9243 73.1974 36.6771 72.9283 36.4226 72.7065C35.9014 72.2414 35.3377 71.8263 34.739 71.4665C34.1268 71.1089 33.4969 70.7824 32.8518 70.4884C32.1973 70.2048 31.5355 69.943 30.8555 69.7212C30.1743 69.5033 29.4825 69.32 28.7828 69.1721C28.0807 69.033 27.37 68.9407 26.6556 68.8957Z" fill="#0F0F0F"/>
<path d="M116.361 101.545C116.162 103.072 115.51 104.503 114.489 105.655C113.468 106.807 112.125 107.626 110.634 108.007C110.551 108.394 110.44 108.774 110.303 109.145C109.672 110.865 108.455 112.308 106.866 113.221C105.276 114.133 103.417 114.456 101.613 114.134C101.382 114.573 101.108 114.987 100.795 115.37C99.7262 116.68 98.2829 117.633 96.6581 118.099C95.0333 118.566 93.3047 118.525 91.704 117.981C90.2055 117.464 88.8943 116.514 87.9369 115.25C86.7523 116.413 85.2689 117.226 83.651 117.598C82.0331 117.971 80.3437 117.888 78.7699 117.359C77.391 116.914 76.1524 116.115 75.1767 115.044C74.2009 113.973 73.5218 112.665 73.2065 111.25C70.992 112.195 68.5061 112.286 66.2286 111.505C61.8106 109.992 59.3416 105.709 60.3343 101.564C59.2289 101.554 58.1333 101.356 57.0944 100.978C52.6036 99.3782 50.291 94.9311 51.88 91.084C52.8764 88.6804 55.2945 84.5206 55.4617 84.6696C58.9016 87.9462 62.9891 90.4668 67.4613 92.0694C70.9225 93.2966 74.5538 93.9775 78.2245 94.0875C78.2245 94.2184 78.2245 94.3566 78.2245 94.4911C78.3445 103.833 87.4241 111.287 98.511 111.156C106.373 111.061 113.143 107.149 116.361 101.545Z" fill="#0F0F0F"/>
<path d="M110.602 77.23C109.954 84.0225 105.762 89.1132 101.242 88.6077C101.144 88.6077 101.038 88.5823 100.94 88.5641C99.2938 88.2365 97.8296 87.3053 96.8348 85.9533C94.8858 83.4916 93.8276 79.6044 94.2276 75.3864C94.3262 74.3047 94.5258 73.2346 94.824 72.1902C95.0761 71.2809 95.4095 70.3961 95.8203 69.5466C97.5802 65.9104 100.507 63.6705 103.595 64.0159C108.111 64.5214 111.249 70.4411 110.602 77.23Z" fill="white"/>
<path d="M101.864 89.0041C101.643 89.0045 101.422 88.9924 101.202 88.9677C101.1 88.9677 100.987 88.9422 100.878 88.9241C99.2492 88.6477 97.7547 87.6986 96.5511 86.1787C94.4748 83.5533 93.4712 79.5062 93.8676 75.35C93.9667 74.2425 94.17 73.1468 94.4748 72.0774C94.7328 71.1482 95.0736 70.2441 95.493 69.3757C97.3802 65.4922 100.496 63.2887 103.634 63.6414C108.34 64.1723 111.634 70.2775 110.965 77.2554C110.561 81.4698 108.783 85.2369 106.202 87.3278C104.995 88.3747 103.461 88.9676 101.864 89.0041ZM102.98 64.3432C100.355 64.3432 97.7801 66.3467 96.1475 69.7066C95.7473 70.5368 95.4213 71.4008 95.173 72.2883C94.8808 73.3113 94.686 74.3595 94.5912 75.4191C94.2276 79.3935 95.1584 83.2479 97.1184 85.7278C98.0584 87.008 99.4416 87.8921 100.998 88.2077C101.089 88.2077 101.184 88.2368 101.278 88.2441C102.805 88.415 104.351 87.9096 105.743 86.7896C108.176 84.8151 109.856 81.2371 110.242 77.2118C110.867 70.6266 107.867 64.8741 103.551 64.3904C103.362 64.3637 103.171 64.3479 102.98 64.3432Z" fill="#0F0F0F"/>
<path d="M106.54 78.8335C106.405 83.5206 104.049 87.415 100.94 88.5641C99.2938 88.2364 97.8296 87.3052 96.8348 85.9533C94.8858 83.4915 93.8276 79.6044 94.2276 75.3864C94.3262 74.3047 94.5258 73.2346 94.824 72.1901C95.0761 71.2808 95.4095 70.3961 95.8203 69.5466C96.8579 68.7371 98.1407 68.3061 99.4565 68.3248C103.536 68.4412 106.7 73.1501 106.54 78.8335Z" fill="#008BD9"/>
<path d="M100.973 88.9386H100.878C99.2492 88.6623 97.7547 87.7132 96.5511 86.1933C94.4748 83.5679 93.4712 79.5208 93.8676 75.3646C93.9667 74.2571 94.17 73.1614 94.4748 72.092C94.7328 71.1628 95.0736 70.2586 95.493 69.3903L95.533 69.3139L95.602 69.2594C96.7098 68.4022 98.0779 67.9505 99.4783 67.9794C101.565 68.0412 103.478 69.223 104.893 71.3066C106.325 73.5568 107.027 76.1945 106.903 78.859C106.769 83.5643 104.358 87.7023 101.064 88.9241L100.973 88.9386ZM96.1075 69.7975C95.725 70.6032 95.4124 71.4402 95.173 72.2993C94.8808 73.3222 94.686 74.3705 94.5912 75.4301C94.2276 79.4045 95.1584 83.2589 97.1184 85.7388C98.0401 86.991 99.3852 87.8658 100.904 88.2005C103.889 87.0369 106.053 83.2043 106.176 78.8336C106.297 76.3201 105.638 73.8308 104.289 71.7066C103.02 69.8194 101.304 68.7539 99.4565 68.6994C98.2494 68.6848 97.0715 69.071 96.1075 69.7975Z" fill="#0F0F0F"/>
<path d="M103.013 78.9463C102.9 82.9061 100.162 86.0478 96.8966 85.9533H96.8348C94.8858 83.4916 93.8276 79.6044 94.2276 75.3864C94.3262 74.3047 94.5258 73.2346 94.824 72.1902C95.588 71.7855 96.4432 71.5839 97.3075 71.6047C100.573 71.6993 103.125 74.9828 103.013 78.9463Z" fill="#0F0F0F"/>
<path d="M97.0384 86.3205H96.6748L96.5693 86.186C94.493 83.5606 93.4894 79.5135 93.8858 75.3573C93.9849 74.2498 94.1882 73.1541 94.493 72.0847L94.5366 71.9356L94.6748 71.8629C95.4929 71.4307 96.408 71.2154 97.3329 71.2375C100.795 71.3356 103.514 74.7973 103.394 78.9535C103.26 83.0552 100.431 86.3205 97.0384 86.3205ZM97.0166 85.5933H97.0384C100.038 85.5933 102.544 82.6407 102.649 78.939C102.755 75.2373 100.355 72.0556 97.2966 71.9793C96.5413 71.957 95.7921 72.1206 95.1148 72.4556C94.8491 73.4295 94.669 74.4248 94.5766 75.43C94.2203 79.3208 95.1257 83.1098 97.0166 85.5933Z" fill="#0F0F0F"/>
<path d="M79.97 74.9792C79.2209 81.768 74.152 86.8369 68.614 86.2988C68.4904 86.2988 68.3631 86.2733 68.2504 86.2551C66.3232 85.9648 64.5494 85.035 63.2142 83.6152C60.8216 81.139 59.5016 77.2482 59.9634 73.0265C60.0802 71.9408 60.3168 70.8713 60.6689 69.8376C60.9772 68.9193 61.3806 68.0358 61.8725 67.2013C63.996 63.5869 67.5595 61.3506 71.3266 61.7142C76.8501 62.256 80.719 68.194 79.97 74.9792Z" fill="white"/>
<path d="M69.4104 86.7023C69.134 86.7023 68.8577 86.7023 68.5777 86.6623C68.454 86.6623 68.3195 86.6332 68.1922 86.6151C66.1874 86.3127 64.3422 85.3459 62.9524 83.8697C60.4071 81.2298 59.1453 77.1609 59.6035 72.9901C59.7208 71.8752 59.9648 70.7772 60.3307 69.7175C60.6447 68.7758 61.0579 67.8701 61.5634 67.0158C63.8324 63.1578 67.5886 60.9869 71.3812 61.3542C72.6019 61.4894 73.7832 61.8677 74.8554 62.4665C75.9277 63.0654 76.8692 63.8729 77.6246 64.8413C79.7772 67.4921 80.7699 71.2011 80.3518 75.0228C79.6027 81.6552 74.792 86.7023 69.4104 86.7023ZM70.5376 62.0451C67.305 62.0451 64.156 64.0377 62.1743 67.3867C61.696 68.2008 61.3036 69.0623 61.0034 69.9575C60.6575 70.966 60.4258 72.01 60.3125 73.0701C59.8798 77.0263 61.0579 80.8771 63.4651 83.3643C64.7419 84.7268 66.438 85.6228 68.2831 85.9096C68.3959 85.9278 68.5195 85.9423 68.6468 85.9533C73.9556 86.4696 78.8864 81.5352 79.6136 74.9537C80.0136 71.3174 79.0755 67.8194 77.0464 65.3213C76.3567 64.4223 75.4914 63.6728 74.5032 63.1184C73.5149 62.5639 72.4243 62.2161 71.2976 62.096C71.0453 62.0661 70.7916 62.0491 70.5376 62.0451V62.0451Z" fill="#0F0F0F"/>
<path d="M75.0211 76.5573C74.8865 81.2444 72.0321 85.1279 68.2431 86.2552C66.3185 85.9633 64.5476 85.0336 63.2142 83.6153C60.8216 81.139 59.5016 77.2482 59.9634 73.0266C60.0802 71.9408 60.3168 70.8713 60.6689 69.8376C60.9772 68.9193 61.3806 68.0358 61.8725 67.2013C63.2041 66.3747 64.7492 65.9574 66.3159 66.0014C71.2867 66.1614 75.1811 70.8885 75.0211 76.5573Z" fill="#008BD9"/>
<path d="M68.2686 86.626H68.1886C66.1852 86.3225 64.3414 85.3559 62.9524 83.8806C60.4071 81.2407 59.1453 77.1718 59.6035 73.001C59.7208 71.8861 59.9648 70.7881 60.3307 69.7284C60.6447 68.7867 61.0579 67.8811 61.5634 67.0267L61.607 66.9467L61.7016 66.8885C63.0956 66.0307 64.7087 65.5961 66.345 65.6377C67.612 65.6866 68.8532 66.0097 69.9832 66.5847C71.1132 67.1597 72.105 67.973 72.8902 68.9685C74.6189 71.1133 75.5116 73.812 75.4029 76.5645C75.2683 81.2916 72.3739 85.4042 68.3631 86.6005L68.2686 86.626ZM62.1379 67.4667C61.6811 68.2573 61.3047 69.0918 61.0143 69.9575C60.6684 70.966 60.4367 72.01 60.3234 73.0701C59.8907 77.0263 61.0689 80.8771 63.476 83.3643C64.7328 84.6998 66.3938 85.5852 68.2031 85.8842C71.8757 84.746 74.5229 80.9207 74.6465 76.5464C74.754 73.9713 73.9246 71.4445 72.3121 69.4339C71.5922 68.5188 70.6823 67.7708 69.6452 67.2416C68.608 66.7124 67.4684 66.4145 66.305 66.3686C64.8399 66.3312 63.3944 66.7121 62.1379 67.4667V67.4667Z" fill="#0F0F0F"/>
<path d="M70.7121 76.6519C70.682 77.5964 70.4662 78.5257 70.077 79.3868C69.6877 80.248 69.1327 81.024 68.4435 81.6706C67.7544 82.3172 66.9446 82.8217 66.0605 83.1554C65.1763 83.4891 64.2351 83.6453 63.2906 83.6152H63.2142C60.8216 81.139 59.5016 77.2482 59.9634 73.0265C60.0802 71.9408 60.3168 70.8713 60.6689 69.8376C61.6261 69.433 62.659 69.2384 63.6978 69.2667C64.6436 69.2902 65.5754 69.5 66.4399 69.8841C67.3045 70.2681 68.0848 70.8189 68.7363 71.5048C69.3878 72.1908 69.8977 72.9984 70.2367 73.8816C70.5757 74.7648 70.7373 75.7062 70.7121 76.6519V76.6519Z" fill="#0F0F0F"/>
<path d="M63.5197 83.9788H63.0724L62.9706 83.8697C60.4252 81.2298 59.1635 77.1609 59.6216 72.9901C59.739 71.8752 59.983 70.7772 60.3489 69.7175L60.4034 69.5648L60.5525 69.4993C61.9735 68.9013 63.5425 68.7486 65.0521 69.0616C66.5616 69.3745 67.9407 70.1383 69.0067 71.252C69.6905 71.97 70.2254 72.8162 70.5806 73.7419C70.9358 74.6676 71.1042 75.6545 71.0761 76.6456C71.0481 77.6367 70.8241 78.6124 70.4171 79.5165C70.0102 80.4206 69.4283 81.2353 68.7049 81.9134C67.3033 83.2381 65.4483 83.977 63.5197 83.9788V83.9788ZM63.3924 83.2515C65.1851 83.2887 66.9206 82.6201 68.225 81.3898C68.88 80.779 69.4067 80.0439 69.7745 79.2272C70.1422 78.4106 70.3435 77.5289 70.3667 76.6336C70.3953 75.7374 70.2447 74.8444 69.9238 74.0071C69.6029 73.1698 69.118 72.405 68.4977 71.7574C67.5484 70.7677 66.326 70.0829 64.9862 69.7902C63.6464 69.4975 62.2499 69.6102 60.9743 70.1139C60.6615 71.0749 60.4483 72.0655 60.338 73.0701C59.8835 76.9718 61.0361 80.768 63.3742 83.2515H63.3924Z" fill="#0F0F0F"/>
<path d="M58.618 55.3508C58.618 55.3508 70.7703 46.322 80.17 60.8742C80.17 60.8742 79.8064 52.3836 75.6429 47.5765C71.8212 43.1767 61.6543 41.3586 58.618 55.3508Z" fill="#0F0F0F"/>
<path d="M111.769 59.6161C111.769 59.6161 104.227 49.3329 96.3767 62.0633C96.3767 62.0633 97.2458 54.3618 100.613 50.2128C103.693 46.4021 110.591 46.7184 111.769 59.6161Z" fill="#0F0F0F"/>
<path d="M45.495 63.6159C44.3168 62.376 42.7932 61.776 42.8478 60.0597C42.9096 58.0125 43.535 52.9291 43.6914 51.3873C43.8477 49.8455 41.8987 51.6564 40.3606 52.2273C36.6953 53.5836 33.6299 55.4126 32.8191 60.227C32.1355 64.2959 31.6155 71.9393 31.7755 76.8482C31.8518 79.2263 34.4154 81.1825 37.1062 78.1572C37.6952 77.4918 39.3715 75.2482 40.2261 75.4773C40.6842 75.6041 41.158 75.6653 41.6333 75.6591C44.9059 75.6155 47.5022 72.4847 47.4512 68.6703C47.4575 66.7995 46.759 64.995 45.495 63.6159V63.6159Z" fill="#4C1A01"/>
<path d="M34.3389 80.0699C34.0304 80.0705 33.724 80.0176 33.4335 79.9135C32.833 79.6615 32.3205 79.2372 31.9607 78.6943C31.6009 78.1514 31.4099 77.5141 31.4118 76.8627C31.2554 72.1138 31.7354 64.4668 32.459 60.1688C33.2663 55.3872 36.1498 53.4018 40.2333 51.8891C40.7371 51.6796 41.2235 51.4303 41.6878 51.1437C42.6114 50.6164 43.2768 50.2346 43.7422 50.5365C43.8734 50.6399 43.9719 50.7789 44.0261 50.9369C44.0803 51.0949 44.0878 51.2652 44.0477 51.4273C44.0077 51.7909 43.9422 52.3946 43.8622 53.1036C43.6186 55.2854 43.2477 58.558 43.2041 60.0743C43.1713 61.1433 43.8477 61.7069 44.7095 62.4233C45.0742 62.7193 45.4226 63.0349 45.7531 63.3687V63.3687C47.0771 64.8157 47.8125 66.7053 47.8148 68.6667C47.8621 72.6665 45.0876 75.9791 41.6332 76.0264C41.1222 76.0335 40.6128 75.9674 40.1205 75.83C39.7969 75.7428 38.9897 76.4627 37.7315 77.9754C37.5897 78.1463 37.4661 78.2954 37.3679 78.4009C36.2007 79.7244 35.1316 80.0699 34.3389 80.0699ZM43.3313 51.1582C42.8816 51.3098 42.4528 51.5175 42.055 51.7764C41.5544 52.0827 41.0304 52.349 40.4878 52.5727C36.6407 53.9945 33.9244 55.8453 33.179 60.2888C32.4517 64.5505 31.9827 72.1284 32.139 76.8409C32.1321 77.3467 32.2747 77.8433 32.549 78.2683C32.8233 78.6934 33.217 79.0279 33.6808 79.2299C34.6517 79.5935 35.7716 79.1136 36.8334 77.9172C36.9243 77.8154 37.0443 77.6736 37.1788 77.51C38.3388 76.1173 39.4478 74.8883 40.3242 75.1319C40.7493 75.2489 41.1887 75.3052 41.6296 75.2992C44.684 75.2592 47.1385 72.2884 47.0839 68.6776C47.0863 66.8988 46.422 65.1837 45.2222 63.8705V63.8705C44.9107 63.5564 44.5817 63.2602 44.2368 62.9833C43.3495 62.256 42.4186 61.4742 42.4732 60.0743C42.5205 58.5107 42.8914 55.2163 43.135 53.0382C43.215 52.3364 43.2804 51.7473 43.3204 51.3728C43.3333 51.302 43.3369 51.2299 43.3313 51.1582Z" fill="#0F0F0F"/>
<path d="M85.788 119.978C76.5883 119.978 72.1848 114.69 72.1303 114.625C72.0695 114.55 72.0411 114.453 72.0514 114.357C72.0616 114.261 72.1096 114.173 72.1848 114.112C72.2601 114.052 72.3563 114.023 72.4525 114.033C72.5486 114.044 72.6368 114.092 72.6975 114.167C72.7594 114.243 79.0755 121.803 92.515 118.359C92.6085 118.336 92.7074 118.351 92.7899 118.401C92.8724 118.451 92.9318 118.531 92.955 118.625C92.9782 118.718 92.9636 118.816 92.9146 118.899C92.8656 118.981 92.786 119.041 92.6931 119.065C90.4384 119.656 88.1187 119.962 85.788 119.978V119.978Z" fill="#0F0F0F"/>
<path d="M27.2592 88.9787L26.532 88.8405C26.5793 88.5896 27.7683 82.6007 32.3499 78.8154L32.8154 79.3754C28.441 82.9971 27.2701 88.9169 27.2592 88.9787Z" fill="#0F0F0F"/>
<path d="M49.2038 292.498C43.4513 286.52 35.3862 284.2 29.7173 283.32C29.7005 283.324 29.6832 283.324 29.6664 283.32C28.2919 283.106 27.0592 282.957 26.0302 282.906C26.2011 282.484 26.532 281.648 26.7865 280.968L27.7901 281.113C27.8056 281.117 27.8218 281.117 27.8374 281.113C34.1608 282.099 43.455 284.859 49.2038 292.498Z" fill="url(#paint10_linear)"/>
<path d="M67.4432 260.816C64.7197 277.619 63.2943 295.124 63.0797 297.905L63.047 298.294C62.2543 298.858 60.5271 299.247 58.6145 299.142C56.1782 299.022 53.4292 298.12 51.8692 295.778C51.702 295.527 51.5056 295.291 51.3347 295.051C52.8874 296.309 54.9019 296.869 56.7382 296.942C58.6508 297.044 60.3744 296.658 61.1707 296.094C61.1707 296.094 61.1925 295.796 61.2362 295.247C61.5343 291.542 62.8361 276.117 65.236 260.739L67.4432 260.816Z" fill="url(#paint11_linear)"/>
<path d="M98.4941 111.159C109.579 111.022 118.471 103.341 118.355 94.0036C118.239 84.666 109.16 77.2078 98.0751 77.3451C86.9905 77.4825 78.0984 85.1635 78.2142 94.501C78.3299 103.839 87.4095 111.297 98.4941 111.159Z" fill="#FCBD9A"/>
<path d="M98.1911 111.52C92.8568 111.52 87.8315 109.8 84.0098 106.662C80.0936 103.444 77.9082 99.1274 77.8501 94.5021C77.7919 89.8768 79.8718 85.5024 83.7044 82.1935C87.537 78.8845 92.6095 77.0409 98.0639 76.9755H98.3729C103.704 76.9755 108.729 78.6954 112.554 81.8371C116.467 85.0515 118.656 89.3714 118.714 93.9966C118.772 98.6219 116.692 102.993 112.856 106.305C109.02 109.618 103.94 111.454 98.4929 111.523L98.1911 111.52ZM98.3802 77.7027H98.0639C92.7877 77.7682 87.8533 79.5572 84.1662 82.7425C80.4791 85.9279 78.5082 90.0841 78.5628 94.4912C78.6173 98.8983 80.7118 103.022 84.4571 106.098C88.2024 109.174 93.0131 110.792 98.1766 110.792H98.4748C103.751 110.727 108.689 108.938 112.372 105.753C116.056 102.567 118.034 98.411 117.979 94.0039C117.925 89.5932 115.83 85.4733 112.085 82.3971C108.34 79.3208 103.544 77.6991 98.3802 77.6991V77.7027Z" fill="#0F0F0F"/>
<path d="M125.408 42.7331C125.408 42.7331 128.481 10.8216 104.78 2.82551C86.4061 -3.3779 62.2034 1.16375 38.3207 27.0755C32.0264 33.9043 32.0446 34.4352 25.9575 36.8388C13.078 41.9295 12.0453 55.6017 15.7979 60.7506C15.7979 60.7506 21.7977 51.9 30.561 58.1034C31.3937 58.6925 32.9718 60.7833 32.9718 60.7833C32.9718 60.7833 57.1127 34.8534 125.408 42.7331Z" fill="url(#paint12_linear)"/>
<path d="M32.9753 61.147C32.9229 61.1442 32.8717 61.13 32.8252 61.1055C32.7788 61.0811 32.7382 61.0468 32.7063 61.0051C32.2735 60.4343 31.0154 58.8561 30.3718 58.4016C27.8664 56.6271 25.3574 55.9508 22.9139 56.3908C18.754 57.1435 16.1469 60.9179 16.1214 60.9542C16.0888 61.0026 16.045 61.0424 15.9937 61.0702C15.9424 61.098 15.8852 61.1131 15.8269 61.1142C15.7701 61.1138 15.7143 61.1001 15.6637 61.0742C15.6132 61.0483 15.5695 61.011 15.536 60.9651C13.4888 58.1616 12.9906 53.2709 14.2851 48.7947C15.9142 43.1695 20.0231 38.8023 25.852 36.5006C31.1572 34.4061 31.7245 33.7844 36.1352 28.9482C36.7097 28.3155 37.3497 27.6137 38.0733 26.8282C49.3238 14.6214 61.2543 6.46538 73.5265 2.56007C84.188 -0.825259 95.0421 -0.854346 104.918 2.48007C114.736 5.79268 121.456 13.8178 124.357 25.6901C125.691 31.2825 126.182 37.043 125.812 42.7804C125.807 42.8291 125.793 42.8764 125.77 42.9195C125.747 42.9627 125.715 43.0007 125.677 43.0313C125.64 43.0611 125.597 43.0833 125.55 43.0964C125.504 43.1095 125.456 43.1133 125.408 43.1076C90.235 39.0496 67.0613 44.1476 53.8109 49.1365C39.4624 54.5399 33.3462 60.9833 33.288 61.0488C33.2472 61.0885 33.1977 61.1181 33.1434 61.1351C33.0891 61.1522 33.0315 61.1562 32.9753 61.147ZM24.3611 55.5326C26.4883 55.5326 28.6373 56.2926 30.7718 57.8053C31.4445 58.2816 32.5208 59.6234 33.0117 60.2379C34.4116 58.8889 40.7387 53.26 53.4509 48.4638C66.7341 43.4494 89.9296 38.3296 125.085 42.3295C125.396 36.7938 124.906 31.2421 123.63 25.8465C121.648 17.7522 116.747 7.24717 104.667 3.16732C92.184 -1.04343 67.0031 -3.50879 38.5897 27.3228C37.8624 28.1046 37.2261 28.8064 36.6479 29.4391C32.2372 34.2752 31.5572 35.0207 26.1029 37.1769C20.4885 39.395 16.536 43.5949 14.9687 48.9983C13.7942 53.0527 14.147 57.438 15.8269 60.1215C16.6669 59.0598 19.1249 56.3399 22.7721 55.6781C23.2974 55.5811 23.8305 55.5324 24.3648 55.5326H24.3611Z" fill="#0F0F0F"/>
<path d="M115.594 64.0597C115.594 64.0597 118.252 24.1884 42.4296 54.02C42.4296 54.02 66.7414 32.8572 98.8202 33.7262C129.797 34.5626 151.265 59.358 115.594 64.0597Z" fill="#008BD9"/>
<path d="M115.594 64.4232C115.502 64.4229 115.414 64.3878 115.347 64.325C115.307 64.2887 115.277 64.2441 115.257 64.1944C115.236 64.1447 115.228 64.0912 115.23 64.0377C115.23 63.9432 115.761 54.3727 107.471 48.322C102.464 44.6639 95.2967 42.9949 86.1516 43.3549C74.632 43.8094 59.9707 47.5111 42.5714 54.3581C42.4926 54.3846 42.4071 54.3833 42.3292 54.3545C42.2512 54.3256 42.1855 54.2709 42.143 54.1995C42.1004 54.128 42.0837 54.0442 42.0955 53.9619C42.1073 53.8796 42.1469 53.8038 42.2078 53.7472C42.2696 53.6927 48.4366 48.3656 58.4472 43.224C67.6904 38.4751 82.199 32.908 98.8493 33.3625C107.911 33.6062 116.747 35.9079 123.725 39.8205C130.346 43.5367 134.27 48.1511 134.499 52.4818C134.684 55.9908 132.477 62.2051 115.652 64.4232H115.594ZM88.5406 42.5804C96.7148 42.5804 103.22 44.3112 107.911 47.7402C115.485 53.2781 115.965 61.6415 115.965 63.645C127.568 62.0415 134.048 57.9943 133.764 52.5218C133.343 44.4239 117.987 34.6061 98.8202 34.0898C82.3444 33.6462 67.9486 39.155 58.789 43.8603C53.7736 46.4236 48.994 49.4242 44.5059 52.8273C61.0289 46.4966 75.0247 43.064 86.137 42.6276C86.9564 42.5961 87.7576 42.5804 88.5406 42.5804V42.5804Z" fill="#0F0F0F"/>
<path d="M76.1483 227.541C71.9844 227.57 67.8595 226.738 64.0324 225.097C63.9894 225.076 63.951 225.047 63.9194 225.011C63.8877 224.975 63.8634 224.933 63.8479 224.888C63.8323 224.843 63.8259 224.795 63.8288 224.747C63.8318 224.7 63.8441 224.653 63.8651 224.61C63.8862 224.567 63.9154 224.529 63.9513 224.497C63.9871 224.465 64.0289 224.441 64.0741 224.425C64.1194 224.41 64.1672 224.403 64.215 224.406C64.2627 224.409 64.3094 224.422 64.3524 224.443C64.476 224.504 76.6792 230.37 89.806 223.425C89.8911 223.382 89.9893 223.375 90.0796 223.404C90.1699 223.434 90.2453 223.497 90.2894 223.581C90.3336 223.665 90.3431 223.763 90.316 223.854C90.2888 223.945 90.2271 224.022 90.1441 224.068C85.8361 226.361 81.0284 227.554 76.1483 227.541Z" fill="#0F0F0F"/>
<path d="M63.4397 162.994C63.4024 163.001 63.3642 163.001 63.3269 162.994L48.2184 158.071C48.1594 158.051 48.1063 158.017 48.0643 157.971C48.0223 157.925 47.9927 157.869 47.9784 157.809L43.2877 137.93C43.2655 137.835 43.2816 137.737 43.3324 137.654C43.3832 137.572 43.4646 137.514 43.5586 137.491C43.6526 137.469 43.7516 137.485 43.8338 137.536C43.9159 137.587 43.9746 137.668 43.9968 137.762L48.6402 157.431L63.3633 162.23L72.1193 154.929C71.8721 153.954 70.8394 149.973 69.8976 147.529C69.8761 147.484 69.8642 147.435 69.8626 147.385C69.861 147.335 69.8697 147.285 69.8882 147.239C69.9067 147.192 69.9346 147.15 69.9702 147.115C70.0057 147.08 70.0481 147.052 70.0948 147.034C70.1414 147.016 70.1913 147.008 70.2413 147.01C70.2913 147.012 70.3403 147.024 70.3852 147.046C70.4302 147.068 70.4702 147.099 70.5026 147.137C70.5351 147.175 70.5594 147.219 70.5739 147.267C71.6648 150.096 72.8684 154.925 72.8829 154.976C72.8987 155.042 72.8959 155.111 72.8747 155.175C72.8535 155.239 72.8148 155.296 72.7629 155.34L63.6724 162.918C63.606 162.969 63.5237 162.996 63.4397 162.994V162.994Z" fill="#0F0F0F"/>
<path d="M110.216 161.98C110.166 161.98 110.116 161.969 110.071 161.947L99.202 157.22C99.1526 157.198 99.1088 157.165 99.0735 157.125C99.0383 157.084 99.0126 157.035 98.9984 156.983L96.7294 148.464C96.7151 148.417 96.7103 148.368 96.7153 148.319C96.7204 148.271 96.7352 148.224 96.7588 148.181C96.7824 148.138 96.8144 148.101 96.8528 148.071C96.8912 148.041 96.9353 148.019 96.9824 148.006C97.0295 147.993 97.0787 147.99 97.1271 147.997C97.1754 148.004 97.2219 148.02 97.2638 148.045C97.3056 148.07 97.342 148.103 97.3708 148.143C97.3995 148.182 97.4201 148.227 97.4311 148.275L99.6565 156.638L110.005 161.15L111.496 157.063C111.512 157.018 111.537 156.976 111.57 156.941C111.602 156.905 111.641 156.877 111.685 156.856C111.729 156.836 111.776 156.825 111.824 156.823C111.872 156.821 111.92 156.828 111.965 156.845C112.055 156.879 112.128 156.947 112.168 157.034C112.209 157.121 112.213 157.22 112.18 157.311L110.554 161.765C110.538 161.812 110.512 161.854 110.478 161.891C110.444 161.927 110.403 161.956 110.358 161.976C110.311 161.986 110.263 161.987 110.216 161.98V161.98Z" fill="#0F0F0F"/>
<path d="M109.227 210.403C109.157 210.401 109.09 210.379 109.032 210.339C108.975 210.299 108.93 210.244 108.903 210.18C108.876 210.115 108.869 210.044 108.881 209.976C108.893 209.907 108.925 209.843 108.972 209.792C112.438 206.574 113.194 204.971 113.201 204.952C113.219 204.906 113.246 204.864 113.28 204.828C113.315 204.792 113.356 204.764 113.402 204.745C113.448 204.726 113.497 204.717 113.547 204.717C113.597 204.718 113.646 204.729 113.691 204.75C113.736 204.77 113.777 204.799 113.81 204.836C113.844 204.873 113.869 204.916 113.885 204.963C113.901 205.01 113.908 205.059 113.904 205.109C113.9 205.158 113.886 205.207 113.863 205.251C113.834 205.32 113.074 206.974 109.467 210.323C109.399 210.378 109.314 210.406 109.227 210.403Z" fill="#0F0F0F"/>
<path d="M67.0233 152.076C67.5837 148.344 64.8454 144.839 60.9073 144.248C56.9691 143.657 53.3223 146.202 52.7619 149.934C52.2016 153.666 54.9398 157.17 58.878 157.761C62.8162 158.353 66.463 155.807 67.0233 152.076Z" fill="url(#paint13_linear)"/>
<path d="M60.0107 158.198C59.6102 158.198 59.2103 158.168 58.8144 158.107C56.8498 157.828 55.0675 156.805 53.8364 155.249C53.2379 154.502 52.8004 153.639 52.5513 152.715C52.3022 151.791 52.2469 150.825 52.389 149.878C52.5311 148.932 52.8674 148.025 53.3768 147.214C53.8862 146.404 54.5577 145.708 55.3491 145.169C56.9877 144.05 58.9892 143.591 60.9519 143.886C62.9145 144.181 64.693 145.207 65.9305 146.758C66.5279 147.505 66.9645 148.368 67.2129 149.292C67.4614 150.215 67.5163 151.181 67.3743 152.127C67.2323 153.073 66.8964 153.979 66.3876 154.789C65.8789 155.599 65.2083 156.296 64.4179 156.834C63.1237 157.731 61.585 158.207 60.0107 158.198V158.198ZM59.7526 144.511C58.3231 144.504 56.9263 144.938 55.7527 145.755C55.0432 146.237 54.4411 146.861 53.9843 147.587C53.5276 148.313 53.226 149.126 53.0986 149.974C52.9712 150.823 53.0207 151.688 53.2441 152.516C53.4674 153.345 53.8598 154.118 54.3964 154.787C55.5178 156.194 57.129 157.125 58.9075 157.395C60.686 157.664 62.5008 157.252 63.9888 156.242C64.6983 155.759 65.3004 155.136 65.7572 154.409C66.2139 153.683 66.5155 152.87 66.6429 152.022C66.7703 151.174 66.7207 150.308 66.4974 149.48C66.274 148.652 65.8817 147.879 65.3451 147.209C64.23 145.796 62.6145 144.865 60.8325 144.609C60.4754 144.55 60.1145 144.517 59.7526 144.511V144.511Z" fill="#0F0F0F"/>
<path d="M109.734 156.773C111.335 155.604 111.124 152.589 109.262 150.037C107.4 147.485 104.592 146.364 102.991 147.532C101.39 148.701 101.601 151.716 103.463 154.268C105.326 156.82 108.133 157.941 109.734 156.773Z" fill="url(#paint14_linear)"/>
<path d="M108.223 157.605C107.65 157.591 107.085 157.467 106.558 157.242C105.21 156.623 104.043 155.669 103.169 154.471C102.295 153.273 101.743 151.871 101.566 150.398C101.467 148.995 101.896 147.871 102.776 147.231C104.536 145.944 107.576 147.104 109.554 149.813C111.529 152.522 111.707 155.772 109.947 157.056C109.447 157.42 108.842 157.613 108.223 157.605V157.605ZM104.515 147.424C104.047 147.413 103.588 147.553 103.205 147.824C102.536 148.311 102.209 149.213 102.289 150.369C102.457 151.706 102.961 152.978 103.756 154.065C104.55 155.153 105.609 156.021 106.831 156.587C107.893 157.012 108.849 156.98 109.518 156.489C110.972 155.442 110.707 152.649 108.965 150.264C107.674 148.489 105.922 147.431 104.515 147.431V147.424Z" fill="#0F0F0F"/>
<path d="M103.275 4.83636C85.177 -1.34523 61.3452 3.19642 37.8224 29.1154C31.619 35.9443 31.6408 36.4824 25.6483 38.8896C20.3031 41.0277 17.0269 44.7076 15.3069 48.6093C14.9424 49.8702 14.7192 51.1679 14.6415 52.4782C16.1432 48.0093 19.5431 43.6385 25.5829 41.2059C26.9221 40.6935 28.2277 40.0972 29.4918 39.4205C29.4918 39.4205 29.4918 39.4205 29.4918 39.3987C52.8182 14.116 85.2825 1.01468 103.205 7.15263C121.387 13.3779 122.208 31.3917 123.67 39.3696C123.397 29.9481 120.63 10.7816 103.275 4.83636Z" fill="url(#paint15_linear)"/>
<path d="M123.714 39.6169L123.67 39.3732C123.67 39.4569 123.67 39.5332 123.67 39.6132L123.714 39.6169Z" fill="url(#paint16_linear)"/>
<path d="M44.1095 21.363C42.3169 23.2793 40.5642 25.221 38.7934 27.1482L33.5099 32.9662C31.7756 34.8912 30.3147 37.0459 29.1683 39.3696C28.0076 41.7066 27.0349 44.1324 26.2593 46.6238C26.7704 44.039 27.5781 41.5219 28.6665 39.1223C29.7486 36.6917 31.2023 34.4444 32.9754 32.4607C34.7426 30.5263 36.5353 28.6172 38.3861 26.7555C40.2369 24.8938 42.1205 23.0756 44.1095 21.363Z" fill="#0F0F0F"/>
<path d="M98.929 107.823C108.815 107.701 116.749 101.157 116.65 93.2066C116.552 85.2566 108.458 78.9112 98.5723 79.0337C88.6865 79.1562 80.7524 85.7003 80.8509 93.6502C80.9494 101.6 89.0433 107.946 98.929 107.823Z" fill="url(#paint17_linear)"/>
<path d="M27.2629 85.4333C26.9357 86.2733 26.6702 87.0296 26.6702 87.0296L26.6229 87.2369C21.4559 84.8624 16.9615 79.8808 15.3506 74.5865C14.55 72.0407 14.2138 69.3716 14.3579 66.7068C14.5801 65.558 14.9075 64.432 15.3361 63.3433C14.887 66.5361 15.1654 69.7892 16.1506 72.8593C17.7433 78.1136 22.1577 83.048 27.2629 85.4333Z" fill="url(#paint18_linear)"/>
<path d="M114.14 109.483C112.978 112.308 111.31 114.896 109.216 117.119C107.887 118.528 106.405 119.784 104.798 120.865C103.017 121.887 101.143 122.739 99.2019 123.41C98.1568 123.79 97.1758 124.327 96.2929 125.003C95.3473 125.728 94.4486 126.513 93.6021 127.352C92.4806 128.383 91.2462 129.285 89.9223 130.039C85.6304 132.531 80.6927 133.685 75.741 133.355C68.4685 132.788 61.7888 129.213 58.4435 126.486C56.7199 125.075 54.3236 123.116 52.2619 122.188C38.746 116.105 25.5138 104.945 27.3283 89.3932C27.343 89.3395 27.354 89.2848 27.361 89.2295C27.4337 88.5823 28.001 87.3569 28.3719 86.4915C25.7065 102.669 39.1896 114.239 53.0546 120.476C55.1236 121.399 57.5199 123.363 59.2362 124.774C62.5851 127.501 69.2612 131.075 76.5337 131.642C81.4855 131.973 86.4234 130.819 90.715 128.326C92.0389 127.572 93.2733 126.671 94.3948 125.639C95.2429 124.802 96.1415 124.017 97.0856 123.29C97.9695 122.616 98.9503 122.079 99.9946 121.697C101.937 121.027 103.812 120.175 105.594 119.152C107.2 118.07 108.682 116.814 110.012 115.407C111.669 113.644 113.06 111.648 114.14 109.483V109.483Z" fill="url(#paint19_linear)"/>
<path d="M110.791 12.7887L106.791 19.2539L103.544 24.6646C103.35 25.0316 103.048 25.3299 102.678 25.5192C102.342 25.7081 101.971 25.8257 101.587 25.8646H101.416C100.958 25.8761 100.504 25.7684 100.1 25.5519C99.718 25.3633 99.4013 25.0644 99.191 24.6937L101.569 20.4103L105.082 14.4178C105.689 13.3814 106.285 12.7196 106.878 12.4287C107.552 12.1249 108.299 12.0202 109.031 12.1269C109.669 12.1717 110.281 12.4017 110.791 12.7887V12.7887Z" fill="white"/>
<path d="M111.758 15.0287L111.442 26.1555C111.444 26.8448 111.192 27.5106 110.732 28.0246C110.511 28.2708 110.242 28.4691 109.941 28.6073C109.64 28.7455 109.314 28.8207 108.983 28.8282C108.659 28.8506 108.334 28.7991 108.032 28.6776C107.73 28.556 107.46 28.3675 107.242 28.1264C107.006 27.8662 106.824 27.5612 106.709 27.2294C106.593 26.8977 106.546 26.5461 106.569 26.1955L106.798 19.2867L110.798 12.8069C110.902 12.8855 111 12.9731 111.089 13.0688C111.326 13.3339 111.507 13.6441 111.622 13.9808C111.737 14.3175 111.783 14.6738 111.758 15.0287V15.0287Z" fill="white"/>
<path d="M95.6275 26.4282C95.623 26.8375 95.536 27.2417 95.3717 27.6166C95.2074 27.9914 94.9691 28.3293 94.6712 28.61C94.056 29.2078 93.238 29.5519 92.3804 29.5736C91.9651 29.6076 91.5472 29.5569 91.1521 29.4243C90.7571 29.2918 90.3931 29.0803 90.0823 28.8027C89.7812 28.5332 89.5446 28.1995 89.3898 27.8263C89.2349 27.4531 89.1659 27.0499 89.1878 26.6464L89.5514 13.8796C89.5424 13.3895 89.6443 12.9036 89.8496 12.4584C90.0549 12.0132 90.3582 11.6202 90.7368 11.3088C91.0198 11.0788 91.3411 10.9004 91.6859 10.7816L95.7985 18.8903L95.6275 26.4282Z" fill="white"/>
<path d="M101.566 20.4321L99.1874 24.7083L95.7985 18.8903L91.6823 10.7816C92.2969 10.573 92.951 10.5071 93.5949 10.5888C94.568 10.6422 95.511 10.9453 96.333 11.4688C96.9899 11.9342 97.6529 12.8215 98.322 14.1305L98.9947 15.4323L100.867 19.0685L101.566 20.4321Z" fill="white"/>
<defs>
<linearGradient id="paint0_linear" x1="8.66939" y1="135.173" x2="56.0998" y2="136.506" gradientUnits="userSpaceOnUse">
<stop stop-color="#D19600"/>
<stop offset="0.53" stop-color="#FFE500"/>
<stop offset="0.99" stop-color="#D19600"/>
</linearGradient>
<linearGradient id="paint1_linear" x1="37150.3" y1="29791.8" x2="56309.6" y2="29791.8" gradientUnits="userSpaceOnUse">
<stop offset="0.99" stop-color="#FFC201"/>
</linearGradient>
<linearGradient id="paint2_linear" x1="5.07991" y1="317.755" x2="64.3488" y2="319.421" gradientUnits="userSpaceOnUse">
<stop stop-color="#B64E20"/>
<stop offset="0.48" stop-color="#FF7A40"/>
<stop offset="1" stop-color="#BB5122"/>
</linearGradient>
<linearGradient id="paint3_linear" x1="1.40235" y1="303.127" x2="66.9849" y2="304.97" gradientUnits="userSpaceOnUse">
<stop stop-color="#4E260C"/>
<stop offset="0.11" stop-color="#5A3017"/>
<stop offset="0.35" stop-color="#70432C"/>
<stop offset="0.51" stop-color="#784A33"/>
<stop offset="0.66" stop-color="#754730"/>
<stop offset="0.79" stop-color="#6A3E26"/>
<stop offset="0.91" stop-color="#582F16"/>
<stop offset="1" stop-color="#461F05"/>
</linearGradient>
<linearGradient id="paint4_linear" x1="36586.5" y1="8769.41" x2="47668" y2="8769.41" gradientUnits="userSpaceOnUse">
<stop stop-color="#B64E20"/>
<stop offset="0.48" stop-color="#FF7A40"/>
<stop offset="1" stop-color="#BB5122"/>
</linearGradient>
<linearGradient id="paint5_linear" x1="40932.6" y1="25887.8" x2="55289.8" y2="25887.8" gradientUnits="userSpaceOnUse">
<stop stop-color="#4E260C"/>
<stop offset="0.11" stop-color="#5A3017"/>
<stop offset="0.35" stop-color="#70432C"/>
<stop offset="0.51" stop-color="#784A33"/>
<stop offset="0.66" stop-color="#754730"/>
<stop offset="0.79" stop-color="#6A3E26"/>
<stop offset="0.91" stop-color="#582F16"/>
<stop offset="1" stop-color="#461F05"/>
</linearGradient>
<linearGradient id="paint6_linear" x1="4.64567" y1="309.002" x2="65.3361" y2="298.271" gradientUnits="userSpaceOnUse">
<stop offset="0.02" stop-color="#784A33"/>
<stop offset="0.23" stop-color="#774932" stop-opacity="0.97"/>
<stop offset="0.4" stop-color="#72452E" stop-opacity="0.88"/>
<stop offset="0.57" stop-color="#6B3F27" stop-opacity="0.74"/>
<stop offset="0.73" stop-color="#60361D" stop-opacity="0.53"/>
<stop offset="0.88" stop-color="#532A11" stop-opacity="0.26"/>
<stop offset="1" stop-color="#461F05" stop-opacity="0"/>
</linearGradient>
<linearGradient id="paint7_linear" x1="87.0775" y1="297.659" x2="157.498" y2="299.639" gradientUnits="userSpaceOnUse">
<stop stop-color="#461F05" stop-opacity="0"/>
<stop offset="1" stop-color="#784A33"/>
</linearGradient>
<linearGradient id="paint8_linear" x1="54.6471" y1="208.509" x2="161.375" y2="211.509" gradientUnits="userSpaceOnUse">
<stop stop-color="#0088D4"/>
<stop offset="1" stop-color="#003CAE"/>
</linearGradient>
<linearGradient id="paint9_linear" x1="74.52" y1="41.5459" x2="73.3316" y2="83.8258" gradientUnits="userSpaceOnUse">
<stop offset="0.39" stop-color="#E69378"/>
<stop offset="1" stop-color="#FCBD9A" stop-opacity="0"/>
</linearGradient>
<linearGradient id="paint10_linear" x1="25.9469" y1="286.385" x2="49.3695" y2="287.043" gradientUnits="userSpaceOnUse">
<stop stop-color="#008BD9" stop-opacity="0"/>
<stop offset="1" stop-color="#004DFF"/>
</linearGradient>
<linearGradient id="paint11_linear" x1="7593.49" y1="31256.4" x2="8264.09" y2="31256.4" gradientUnits="userSpaceOnUse">
<stop stop-color="#008BD9" stop-opacity="0"/>
<stop offset="1" stop-color="#004DFF"/>
</linearGradient>
<linearGradient id="paint12_linear" x1="71.0443" y1="-0.195754" x2="69.2891" y2="62.25" gradientUnits="userSpaceOnUse">
<stop stop-color="#92D8FF"/>
<stop offset="0.1" stop-color="#6AC3F5"/>
<stop offset="0.22" stop-color="#44AFEB"/>
<stop offset="0.33" stop-color="#269FE3"/>
<stop offset="0.44" stop-color="#1194DD"/>
<stop offset="0.55" stop-color="#048DDA"/>
<stop offset="0.66" stop-color="#008BD9"/>
</linearGradient>
<linearGradient id="paint13_linear" x1="6162.46" y1="6855.38" x2="6703.92" y2="6870.69" gradientUnits="userSpaceOnUse">
<stop stop-color="#D19600"/>
<stop offset="0.53" stop-color="#FFE500"/>
<stop offset="0.99" stop-color="#D19600"/>
</linearGradient>
<linearGradient id="paint14_linear" x1="4234.36" y1="5448.82" x2="4412.16" y2="5453.82" gradientUnits="userSpaceOnUse">
<stop stop-color="#D19600"/>
<stop offset="0.53" stop-color="#FFE500"/>
<stop offset="0.99" stop-color="#D19600"/>
</linearGradient>
<linearGradient id="paint15_linear" x1="54302.2" y1="2085.63" x2="54302.2" y2="9276.31" gradientUnits="userSpaceOnUse">
<stop stop-color="#008BD9" stop-opacity="0"/>
<stop offset="1" stop-color="#004DFF"/>
</linearGradient>
<linearGradient id="paint16_linear" x1="151.916" y1="73.6393" x2="151.916" y2="73.8001" gradientUnits="userSpaceOnUse">
<stop stop-color="#008BD9" stop-opacity="0"/>
<stop offset="1" stop-color="#004DFF"/>
</linearGradient>
<linearGradient id="paint17_linear" x1="98.5471" y1="107.687" x2="99.3384" y2="79.0115" gradientUnits="userSpaceOnUse">
<stop stop-color="#F5AF8F"/>
<stop offset="1" stop-color="#FCBD9A"/>
</linearGradient>
<linearGradient id="paint18_linear" x1="4577.13" y1="6983.43" x2="4620.63" y2="5435.73" gradientUnits="userSpaceOnUse">
<stop stop-color="#EDA162"/>
<stop offset="1" stop-color="#FCBD9A"/>
</linearGradient>
<linearGradient id="paint19_linear" x1="43504.8" y1="20578.8" x2="43669.9" y2="14702.7" gradientUnits="userSpaceOnUse">
<stop stop-color="#EDA162"/>
<stop offset="1" stop-color="#FCBD9A"/>
</linearGradient>
</defs>
</svg>
