<svg width="19" height="19" viewBox="0 0 19 19" fill="none" xmlns="http://www.w3.org/2000/svg">
<path d="M7.05714 0C8.92881 0 10.7238 0.743518 12.0473 2.06699C13.3708 3.39046 14.1143 5.18547 14.1143 7.05714C14.1143 8.80514 13.4737 10.412 12.4206 11.6497L12.7137 11.9429H13.5714L19 17.3714L17.3714 19L11.9429 13.5714V12.7137L11.6497 12.4206C10.3692 13.5136 8.74077 14.1142 7.05714 14.1143C5.18547 14.1143 3.39046 13.3708 2.06699 12.0473C0.743518 10.7238 0 8.92881 0 7.05714C0 5.18547 0.743518 3.39046 2.06699 2.06699C3.39046 0.743518 5.18547 0 7.05714 0V0ZM7.05714 2.17143C4.34286 2.17143 2.17143 4.34286 2.17143 7.05714C2.17143 9.77143 4.34286 11.9429 7.05714 11.9429C9.77143 11.9429 11.9429 9.77143 11.9429 7.05714C11.9429 4.34286 9.77143 2.17143 7.05714 2.17143Z" fill="#6A6A6A"/>
</svg>
