<svg width="16" height="14" viewBox="0 0 16 14" fill="none" xmlns="http://www.w3.org/2000/svg">
<path d="M15.115 0.382657L11.999 5.87024L9.60925 10.1891C9.47493 10.47 9.25452 10.7008 8.98001 10.8481C8.73555 10.9915 8.46175 11.0778 8.17916 11.1003C8.1385 11.1032 8.09784 11.1032 8.05435 11.1032C7.71934 11.1053 7.38995 11.0172 7.1008 10.8481C6.8231 10.6967 6.59495 10.4685 6.44366 10.1909L8.05435 6.91853L10.5505 2.11737C10.9958 1.26088 11.4487 0.691144 11.9059 0.413836C12.3631 0.136529 12.9403 0 13.6352 0C14.2333 0 14.7259 0.124246 15.115 0.382657Z" fill="url(#paint0_linear)"/>
<path d="M16 2.17031V11.4802C16 12.1057 15.8109 12.6197 15.436 13.0212C15.0611 13.4228 14.576 13.6254 13.9841 13.6254C13.7139 13.6302 13.4458 13.5765 13.1984 13.4679C12.9509 13.3592 12.73 13.1983 12.5507 12.9962C12.1646 12.5764 11.9714 12.0534 11.9711 11.4273L11.999 5.87027L15.115 0.380798C15.2051 0.436956 15.2897 0.501662 15.3674 0.574018C15.7882 0.958564 15.999 1.49066 16 2.17031Z" fill="url(#paint1_linear)"/>
<path d="M4.05342 11.4272C4.05342 12.0527 3.85722 12.5756 3.46484 12.9961C3.28126 13.1979 3.05683 13.3584 2.80644 13.4669C2.55604 13.5753 2.28542 13.6294 2.01253 13.6253C1.74314 13.6313 1.47559 13.5796 1.22787 13.4737C0.980143 13.3677 0.757974 13.21 0.576291 13.0112C0.192727 12.6002 0.000630343 12.0906 0 11.4825V2.57459C0 1.8055 0.224244 1.1838 0.672733 0.709493C0.83716 0.532171 1.0312 0.384785 1.24619 0.273926L4.02553 5.9004L4.05342 11.4272Z" fill="url(#paint2_linear)"/>
<path d="M8.05439 6.91853L6.44371 10.1909L4.02556 5.90047L1.24622 0.274002C1.58896 0.0902322 1.98797 0 2.44276 0C3.1935 0 3.79485 0.145977 4.23924 0.442182C4.68363 0.738386 5.15214 1.34827 5.63529 2.27893L6.12412 3.21621L7.52018 5.89716V5.90047L8.05439 6.91853Z" fill="url(#paint3_linear)"/>
<defs>
<linearGradient id="paint0_linear" x1="13.0967" y1="-5.7304" x2="8.33079" y2="16.6871" gradientUnits="userSpaceOnUse">
<stop stop-color="#92D8FF"/>
<stop offset="0.488029" stop-color="#2787F5"/>
<stop offset="1" stop-color="#92D8FF"/>
</linearGradient>
<linearGradient id="paint1_linear" x1="13.9761" y1="2.76812" x2="14.0381" y2="17.1578" gradientUnits="userSpaceOnUse">
<stop stop-color="#0052B0"/>
<stop offset="0.473958" stop-color="#2787F5"/>
<stop offset="1" stop-color="#92D8FF"/>
</linearGradient>
<linearGradient id="paint2_linear" x1="1.97312" y1="2.41498" x2="2.03509" y2="13.5685" gradientUnits="userSpaceOnUse">
<stop stop-color="#0052B0"/>
<stop offset="0.703125" stop-color="#2787F5"/>
<stop offset="1" stop-color="#92D8FF"/>
</linearGradient>
<linearGradient id="paint3_linear" x1="2.97654" y1="0.800669" x2="7.56594" y2="9.39109" gradientUnits="userSpaceOnUse">
<stop stop-color="#92D8FF"/>
<stop offset="0.489583" stop-color="#2787F5"/>
<stop offset="1" stop-color="#0052B0"/>
</linearGradient>
</defs>
</svg>
