<svg width="38" height="40" viewBox="0 0 38 40" fill="none" xmlns="http://www.w3.org/2000/svg">
<path d="M17.8932 0.00504173C7.99968 0.00504173 0.000690651 5.68854 0.000690651 12.635C0.000690651 15.161 1.05319 17.4765 2.94769 19.5815C1.00667 22.1173 -0.0306683 25.2293 0.000690651 28.4225V35.79C0.000690651 38.1055 1.89519 40 4.21069 40H31.5757C32.6922 40 33.763 39.5564 34.5526 38.7669C35.3421 37.9774 35.7857 36.9066 35.7857 35.79V28.4225C35.7857 25.8965 35.1542 23.3705 33.6807 21.055L37.8907 16.845L31.5757 10.53L27.1552 14.9505C24.1305 13.3062 20.7221 12.4979 17.2812 12.6089C13.8403 12.7199 10.4911 13.7462 7.57868 15.582C6.78546 14.8047 6.3315 13.7455 6.31568 12.635C6.31568 8.84603 11.5782 5.68854 17.8932 5.68854C20.8402 5.68854 23.7872 6.53053 25.8922 7.79353L30.1022 3.58354C26.499 1.15997 22.2345 -0.089972 17.8932 0.00504173ZM17.8932 16.845C25.2607 16.845 31.5757 23.16 31.5757 28.4225V35.79H4.21069V28.4225C4.21069 23.16 10.5257 16.845 17.8932 16.845ZM18.9457 20.0025C12.6307 20.0025 8.42068 23.16 8.42068 29.475V31.58H12.6307V29.475C12.6307 27.37 12.6307 22.1075 18.9457 20.0025Z" fill="#0F0F0F"/>
</svg>
