<svg width="40" height="40" viewBox="0 0 40 40" fill="none" xmlns="http://www.w3.org/2000/svg">
<path d="M19.861 36.0278C16.1738 36.0278 12.6376 34.5631 10.0303 31.9558C7.42303 29.3485 5.95829 25.8123 5.95829 22.1251C5.95829 18.4379 7.42303 14.9017 10.0303 12.2944C12.6376 9.68719 16.1738 8.22244 19.861 8.22244C23.5482 8.22244 27.0844 9.68719 29.6917 12.2944C32.2989 14.9017 33.7637 18.4379 33.7637 22.1251C33.7637 25.8123 32.2989 29.3485 29.6917 31.9558C27.0844 34.5631 23.5482 36.0278 19.861 36.0278ZM19.861 4.25025C15.1203 4.25025 10.5737 6.13349 7.22153 9.48568C3.86934 12.8379 1.9861 17.3844 1.9861 22.1251C1.9861 26.8658 3.86934 31.4124 7.22153 34.7646C10.5737 38.1168 15.1203 40 19.861 40C24.6017 40 29.1482 38.1168 32.5004 34.7646C35.8526 31.4124 37.7358 26.8658 37.7358 22.1251C37.7358 17.3844 35.8526 12.8379 32.5004 9.48568C29.1482 6.13349 24.6017 4.25025 19.861 4.25025ZM20.854 12.1946H17.8749V24.1112L27.3088 29.7716L28.7984 27.3287L20.854 22.6216V12.1946ZM11.6783 3.03873L9.13605 0L0 7.64647L2.56207 10.6852L11.6783 3.03873ZM39.7219 7.66634L30.5859 0L28.0238 3.03873L37.1599 10.7051L39.7219 7.66634Z" fill="#0F0F0F"/>
</svg>
