<svg width="40" height="40" viewBox="0 0 40 40" fill="none" xmlns="http://www.w3.org/2000/svg">
<path d="M34 25C34 25 38 29.34 38 32C38 33.0609 37.5786 34.0783 36.8284 34.8284C36.0783 35.5786 35.0609 36 34 36C32.9391 36 31.9217 35.5786 31.1716 34.8284C30.4214 34.0783 30 33.0609 30 32C30 29.34 34 25 34 25ZM6 32V14C4.93913 14 3.92172 13.5786 3.17157 12.8284C2.42143 12.0783 2 11.0609 2 10C2 8.93913 2.42143 7.92172 3.17157 7.17157C3.92172 6.42143 4.93913 6 6 6V4C6 2.93913 6.42143 1.92172 7.17157 1.17157C7.92172 0.421427 8.93913 0 10 0H14C15.0609 0 16.0783 0.421427 16.8284 1.17157C17.5786 1.92172 18 2.93913 18 4V6H34C35.0609 6 36.0783 6.42143 36.8284 7.17157C37.5786 7.92172 38 8.93913 38 10V18C38.5304 18 39.0391 18.2107 39.4142 18.5858C39.7893 18.9609 40 19.4696 40 20C40 20.5304 39.7893 21.0391 39.4142 21.4142C39.0391 21.7893 38.5304 22 38 22H30C29.4696 22 28.9609 21.7893 28.5858 21.4142C28.2107 21.0391 28 20.5304 28 20C28 19.4696 28.2107 18.9609 28.5858 18.5858C28.9609 18.2107 29.4696 18 30 18V14H18V32H20C21.0609 32 22.0783 32.4214 22.8284 33.1716C23.5786 33.9217 24 34.9391 24 36V40H0V36C0 34.9391 0.421427 33.9217 1.17157 33.1716C1.92172 32.4214 2.93913 32 4 32H6Z" fill="#0F0F0F"/>
</svg>
