<svg width="33" height="40" viewBox="0 0 33 40" fill="none" xmlns="http://www.w3.org/2000/svg">
<path d="M12.7273 24.1636L6.36364 32.7273H26.2909L21.3636 26.2909L17.7818 30.5455L12.7273 24.1636ZM3.63636 36.3636V10.9091H29.0182V36.3636H3.63636ZM16.3636 2.54545L21.1091 7.32727H11.5818L16.3636 2.54545ZM3.63636 7.32727C2.72727 7.32727 1.81818 7.67273 1.10909 8.38182C0.363636 9.09091 0 9.92727 0 10.9091V36.3636C0 37.2727 0.363636 38.1818 1.10909 38.8909C1.81818 39.6364 2.72727 40 3.63636 40H29.0182C30 40 30.8364 39.6364 31.5818 38.8909C32.3091 38.1818 32.7273 37.2727 32.7273 36.3636V10.9091C32.7273 9.92727 32.3091 9.09091 31.5818 8.38182C30.8364 7.67273 30 7.32727 29.0182 7.32727H23.6364L16.3636 0L9.01818 7.32727H3.63636Z" fill="#0F0F0F"/>
</svg>
