<svg width="41" height="40" viewBox="0 0 41 40" fill="none" xmlns="http://www.w3.org/2000/svg">
<path d="M20 18C19.4696 18 18.9609 18.2107 18.5858 18.5858C18.2107 18.9609 18 19.4696 18 20C18 20.5304 18.2107 21.0391 18.5858 21.4142C18.9609 21.7893 19.4696 22 20 22C20.5304 22 21.0391 21.7893 21.4142 21.4142C21.7893 21.0391 22 20.5304 22 20C22 19.4696 21.7893 18.9609 21.4142 18.5858C21.0391 18.2107 20.5304 18 20 18ZM21 0C30 0 30.22 7.14 25.5 9.5C23.52 10.48 22.64 12.58 22.26 14.44C23.22 14.84 24.06 15.46 24.7 16.26C32.1 12.26 40.06 13.84 40.06 21C40.06 30 32.92 30.2 30.56 25.46C29.56 23.48 27.44 22.6 25.58 22.22C25.18 23.18 24.56 24 23.76 24.68C27.74 32.06 26.16 40 19 40C10 40 9.82 32.84 14.54 30.48C16.5 29.5 17.38 27.42 17.78 25.58C16.8 25.18 15.94 24.54 15.3 23.74C7.92 27.7 0 26.14 0 19C0 10 7.12 9.78 9.48 14.52C10.48 16.5 12.58 17.36 14.44 17.74C14.82 16.78 15.46 15.94 16.28 15.3C12.3 7.92 13.88 0 21 0Z" fill="#0F0F0F"/>
</svg>
