<svg width="860" height="60" viewBox="0 0 860 60" fill="none" xmlns="http://www.w3.org/2000/svg">
<rect width="860" height="60" fill="white"/>
<path d="M726.092 37.2C725.079 37.2 724.205 37.02 723.472 36.66C722.739 36.3 722.172 35.8267 721.772 35.24C721.385 34.6533 721.179 34.0267 721.152 33.36V33.32C721.152 33.2133 721.192 33.1267 721.272 33.06C721.352 32.9933 721.445 32.96 721.552 32.96H722.632C722.912 32.96 723.092 33.1067 723.172 33.4C723.359 34.1067 723.719 34.6333 724.252 34.98C724.785 35.3267 725.399 35.5 726.092 35.5C726.985 35.5 727.725 35.2333 728.312 34.7C728.912 34.1533 729.212 33.4 729.212 32.44C729.212 31.5733 728.912 30.8733 728.312 30.34C727.725 29.8067 726.985 29.54 726.092 29.54C725.612 29.54 725.225 29.6067 724.932 29.74C724.639 29.86 724.345 30.0333 724.052 30.26C723.892 30.38 723.752 30.4733 723.632 30.54C723.525 30.5933 723.405 30.62 723.272 30.62H722.232C722.112 30.62 722.005 30.58 721.912 30.5C721.819 30.4067 721.779 30.3 721.792 30.18L722.432 23.5C722.445 23.34 722.492 23.22 722.572 23.14C722.665 23.0467 722.785 23 722.932 23H729.912C730.045 23 730.152 23.0467 730.232 23.14C730.325 23.22 730.372 23.3267 730.372 23.46V24.24C730.372 24.3733 730.325 24.4867 730.232 24.58C730.152 24.66 730.045 24.7 729.912 24.7H724.152L723.772 28.64C724.492 28.1867 725.359 27.96 726.372 27.96C727.252 27.96 728.059 28.14 728.792 28.5C729.539 28.86 730.125 29.38 730.552 30.06C730.992 30.74 731.212 31.54 731.212 32.46C731.212 33.4467 730.992 34.3 730.552 35.02C730.125 35.7267 729.525 36.2667 728.752 36.64C727.979 37.0133 727.092 37.2 726.092 37.2ZM733.567 37C733.434 37 733.32 36.96 733.227 36.88C733.147 36.7867 733.107 36.6733 733.107 36.54V35.9C733.107 35.5933 733.274 35.3 733.607 35.02L737.847 30.78C738.874 29.9267 739.58 29.2333 739.967 28.7C740.354 28.1533 740.547 27.58 740.547 26.98C740.547 26.2067 740.327 25.6 739.887 25.16C739.46 24.72 738.834 24.5 738.007 24.5C737.234 24.5 736.614 24.7333 736.147 25.2C735.68 25.6533 735.394 26.26 735.287 27.02C735.26 27.18 735.194 27.3 735.087 27.38C734.994 27.4467 734.887 27.48 734.767 27.48H733.727C733.607 27.48 733.507 27.4467 733.427 27.38C733.347 27.3 733.307 27.2067 733.307 27.1C733.334 26.38 733.527 25.6933 733.887 25.04C734.247 24.3733 734.774 23.8333 735.467 23.42C736.174 22.9933 737.02 22.78 738.007 22.78C739.514 22.78 740.647 23.1733 741.407 23.96C742.18 24.7333 742.567 25.72 742.567 26.92C742.567 27.76 742.354 28.52 741.927 29.2C741.514 29.8667 740.867 30.5867 739.987 31.36L736.147 35.26H742.387C742.534 35.26 742.647 35.3067 742.727 35.4C742.82 35.48 742.867 35.5867 742.867 35.72V36.54C742.867 36.6733 742.82 36.7867 742.727 36.88C742.634 36.96 742.52 37 742.387 37H733.567ZM758.788 26.6C758.894 26.6 758.988 26.64 759.068 26.72C759.148 26.8 759.188 26.8933 759.188 27C759.188 27.0933 759.154 27.2133 759.088 27.36L755.288 36.36L755.108 36.76C754.761 37.6 754.441 38.2933 754.148 38.84C753.854 39.3867 753.488 39.8467 753.048 40.22C752.608 40.6067 752.088 40.8 751.488 40.8H750.728C750.594 40.8 750.481 40.76 750.388 40.68C750.308 40.6 750.268 40.4867 750.268 40.34V39.66C750.268 39.5267 750.308 39.4133 750.388 39.32C750.481 39.24 750.594 39.2 750.728 39.2H751.248C751.541 39.2 751.781 39.14 751.968 39.02C752.154 38.9133 752.321 38.7267 752.468 38.46C752.628 38.1933 752.821 37.7867 753.048 37.24L753.388 36.42L749.468 27.36C749.401 27.1867 749.368 27.0733 749.368 27.02C749.381 26.9 749.428 26.8 749.508 26.72C749.588 26.64 749.681 26.6 749.788 26.6H750.728C750.954 26.6 751.121 26.7133 751.228 26.94L754.288 34.28L757.388 26.94C757.481 26.7133 757.648 26.6 757.888 26.6H758.788ZM765.053 37.2C763.626 37.2 762.506 36.8 761.693 36C760.893 35.1867 760.466 34.0533 760.413 32.6L760.393 31.8L760.413 31C760.466 29.5467 760.893 28.42 761.693 27.62C762.506 26.8067 763.626 26.4 765.053 26.4C766.013 26.4 766.826 26.5733 767.493 26.92C768.16 27.2667 768.653 27.6933 768.973 28.2C769.306 28.7067 769.486 29.2133 769.513 29.72C769.526 29.8533 769.486 29.96 769.393 30.04C769.3 30.12 769.186 30.16 769.053 30.16H768.093C767.96 30.16 767.86 30.1333 767.793 30.08C767.726 30.0267 767.66 29.92 767.593 29.76C767.366 29.12 767.046 28.6667 766.633 28.4C766.22 28.12 765.7 27.98 765.073 27.98C764.246 27.98 763.586 28.24 763.093 28.76C762.613 29.2667 762.353 30.0467 762.313 31.1L762.293 31.82L762.313 32.5C762.353 33.5667 762.613 34.3533 763.093 34.86C763.573 35.3667 764.233 35.62 765.073 35.62C765.7 35.62 766.22 35.4867 766.633 35.22C767.046 34.94 767.366 34.48 767.593 33.84C767.66 33.68 767.726 33.5733 767.793 33.52C767.86 33.4533 767.96 33.42 768.093 33.42H769.053C769.186 33.42 769.3 33.4667 769.393 33.56C769.486 33.64 769.526 33.7467 769.513 33.88C769.486 34.3733 769.306 34.88 768.973 35.4C768.653 35.9067 768.16 36.3333 767.493 36.68C766.84 37.0267 766.026 37.2 765.053 37.2ZM771.388 37C771.255 37 771.142 36.9533 771.048 36.86C770.955 36.7667 770.908 36.6533 770.908 36.52V35.78C770.908 35.6467 770.948 35.54 771.028 35.46C771.108 35.38 771.208 35.34 771.328 35.34C771.968 35.3133 772.442 34.86 772.748 33.98C773.068 33.0867 773.228 31.6333 773.228 29.62V27.06C773.228 26.9267 773.268 26.82 773.348 26.74C773.442 26.6467 773.555 26.6 773.688 26.6H780.048C780.182 26.6 780.288 26.6467 780.368 26.74C780.462 26.82 780.508 26.9267 780.508 27.06V36.54C780.508 36.6733 780.462 36.7867 780.368 36.88C780.288 36.96 780.182 37 780.048 37H779.088C778.955 37 778.848 36.96 778.768 36.88C778.688 36.7867 778.648 36.6733 778.648 36.54V28.2H775.048V29.84C775.048 32.3867 774.755 34.22 774.168 35.34C773.582 36.4467 772.655 37 771.388 37ZM792.03 26.6C792.136 26.6 792.23 26.64 792.31 26.72C792.39 26.8 792.43 26.8933 792.43 27C792.43 27.0933 792.396 27.2133 792.33 27.36L788.53 36.36L788.35 36.76C788.003 37.6 787.683 38.2933 787.39 38.84C787.096 39.3867 786.73 39.8467 786.29 40.22C785.85 40.6067 785.33 40.8 784.73 40.8H783.97C783.836 40.8 783.723 40.76 783.63 40.68C783.55 40.6 783.51 40.4867 783.51 40.34V39.66C783.51 39.5267 783.55 39.4133 783.63 39.32C783.723 39.24 783.836 39.2 783.97 39.2H784.49C784.783 39.2 785.023 39.14 785.21 39.02C785.396 38.9133 785.563 38.7267 785.71 38.46C785.87 38.1933 786.063 37.7867 786.29 37.24L786.63 36.42L782.71 27.36C782.643 27.1867 782.61 27.0733 782.61 27.02C782.623 26.9 782.67 26.8 782.75 26.72C782.83 26.64 782.923 26.6 783.03 26.6H783.97C784.196 26.6 784.363 26.7133 784.47 26.94L787.53 34.28L790.63 26.94C790.723 26.7133 790.89 26.6 791.13 26.6H792.03ZM794.907 37C794.773 37 794.66 36.96 794.567 36.88C794.487 36.7867 794.447 36.6733 794.447 36.54V27.06C794.447 26.9267 794.487 26.82 794.567 26.74C794.66 26.6467 794.773 26.6 794.907 26.6H800.887C801.02 26.6 801.127 26.6467 801.207 26.74C801.3 26.82 801.347 26.9267 801.347 27.06V27.74C801.347 27.8733 801.3 27.9867 801.207 28.08C801.127 28.16 801.02 28.2 800.887 28.2H796.327V36.54C796.327 36.6733 796.28 36.7867 796.187 36.88C796.107 36.96 796 37 795.867 37H794.907ZM811.881 26.6C811.987 26.6 812.081 26.64 812.161 26.72C812.254 26.8 812.301 26.8933 812.301 27V36.54C812.301 36.6733 812.254 36.7867 812.161 36.88C812.081 36.96 811.974 37 811.841 37H810.901C810.767 37 810.654 36.96 810.561 36.88C810.481 36.7867 810.441 36.6733 810.441 36.54V29.28L804.901 36.7C804.754 36.9 804.581 37 804.381 37H803.481C803.361 37 803.254 36.96 803.161 36.88C803.081 36.7867 803.041 36.6867 803.041 36.58V27.06C803.041 26.9267 803.081 26.82 803.161 26.74C803.254 26.6467 803.367 26.6 803.501 26.6H804.461C804.594 26.6 804.701 26.6467 804.781 26.74C804.874 26.82 804.921 26.9267 804.921 27.06V34.28L810.441 26.9C810.587 26.7 810.761 26.6 810.961 26.6H811.881Z" fill="#0F0F0F"/>
<path d="M822 36.9883L828.488 30.5L822 23.9975L823.997 22L832.497 30.5L823.997 39L822 36.9883Z" fill="#0F0F0F"/>
<path d="M112.64 38C112.48 38 112.344 37.952 112.232 37.856C112.136 37.744 112.088 37.608 112.088 37.448V21.752C112.088 21.592 112.136 21.464 112.232 21.368C112.344 21.256 112.48 21.2 112.64 21.2H113.912C114.072 21.2 114.2 21.256 114.296 21.368C114.408 21.464 114.464 21.592 114.464 21.752V37.448C114.464 37.608 114.408 37.744 114.296 37.856C114.2 37.952 114.072 38 113.912 38H112.64ZM119.203 38C119.043 38 118.907 37.952 118.795 37.856C118.699 37.744 118.651 37.608 118.651 37.448V21.776C118.651 21.6 118.699 21.464 118.795 21.368C118.907 21.256 119.043 21.2 119.203 21.2H120.403C120.579 21.2 120.715 21.256 120.811 21.368C120.923 21.464 120.979 21.6 120.979 21.776V27.728L127.387 21.584C127.643 21.328 127.955 21.2 128.323 21.2H129.619C129.747 21.2 129.859 21.248 129.955 21.344C130.051 21.44 130.099 21.552 130.099 21.68C130.099 21.808 130.067 21.912 130.003 21.992L122.587 29.24L130.483 37.184C130.563 37.28 130.603 37.392 130.603 37.52C130.603 37.648 130.555 37.76 130.459 37.856C130.363 37.952 130.251 38 130.122 38H128.779C128.427 38 128.115 37.864 127.843 37.592L120.979 30.848V37.448C120.979 37.608 120.923 37.744 120.811 37.856C120.699 37.952 120.563 38 120.403 38H119.203ZM133.617 38C133.457 38 133.321 37.952 133.209 37.856C133.113 37.744 133.065 37.608 133.065 37.448V21.776C133.065 21.6 133.113 21.464 133.209 21.368C133.321 21.256 133.457 21.2 133.617 21.2H143.529C143.689 21.2 143.817 21.256 143.913 21.368C144.025 21.464 144.081 21.6 144.081 21.776V22.688C144.081 22.848 144.033 22.984 143.937 23.096C143.841 23.192 143.705 23.24 143.529 23.24H135.369V28.496H143.001C143.161 28.496 143.289 28.552 143.385 28.664C143.497 28.76 143.553 28.896 143.553 29.072V29.96C143.553 30.12 143.497 30.256 143.385 30.368C143.289 30.464 143.161 30.512 143.001 30.512H135.369V35.96H143.721C143.897 35.96 144.033 36.008 144.129 36.104C144.225 36.2 144.273 36.336 144.273 36.512V37.448C144.273 37.608 144.217 37.744 144.105 37.856C144.009 37.952 143.881 38 143.721 38H133.617ZM146.491 38C146.363 38 146.251 37.952 146.155 37.856C146.059 37.76 146.011 37.648 146.011 37.52C146.011 37.392 146.019 37.304 146.035 37.256L151.987 21.728C152.115 21.376 152.371 21.2 152.755 21.2H154.387C154.771 21.2 155.027 21.376 155.155 21.728L161.083 37.256L161.131 37.52C161.131 37.648 161.083 37.76 160.987 37.856C160.891 37.952 160.779 38 160.651 38H159.427C159.251 38 159.115 37.96 159.019 37.88C158.923 37.784 158.859 37.688 158.827 37.592L157.507 34.184H149.635L148.315 37.592C148.283 37.688 148.211 37.784 148.099 37.88C148.003 37.96 147.875 38 147.715 38H146.491ZM156.811 32.12L153.571 23.6L150.331 32.12H156.811Z" fill="#0F0F0F"/>
<path fill-rule="evenodd" clip-rule="evenodd" d="M6 17V44H83V17H6ZM74.826 37.7283C65.2643 41.632 54.8685 42.7944 44.5922 42.7944C34.3505 42.7944 23.8079 41.708 14.2979 37.7283C11.4667 36.5486 7 33.8929 7 30.397C7 26.8924 11.475 24.2449 14.2979 23.0657C23.8083 19.086 34.3422 18 44.5922 18C54.868 18 65.2643 19.1624 74.826 23.0657C77.8811 24.3132 81.9688 26.6803 81.9688 30.397C81.9688 34.105 77.8894 36.4808 74.826 37.7283Z" fill="#0F0F0F"/>
<path fill-rule="evenodd" clip-rule="evenodd" d="M55.4515 31.7984C55.4516 31.7985 55.4517 31.7986 55.4519 31.7987H55.4515V31.7984ZM54.7973 31.578C55.0386 31.578 55.2531 31.6712 55.4515 31.7984V28.6082C55.253 28.7434 55.0383 28.8285 54.7969 28.8285H51.2253V28.1581H55.9422C56.1744 28.1581 56.3899 28.2519 56.5875 28.3789V25.197H44.6507C44.8571 25.3668 45.0464 25.5793 45.0464 25.8588V34.8104C45.0464 35.0821 44.8571 35.2942 44.6507 35.464H56.588V31.943C56.3899 32.0614 56.1744 32.1551 55.9426 32.1551H51.2257V31.578H54.7973ZM64.2127 33.4108H66.8541L67.4224 34.8622C67.4483 34.93 67.4574 34.9979 67.4574 35.0743C67.4574 35.21 67.4224 35.3374 67.3711 35.4644H74.9705C74.8158 35.3283 74.712 35.1931 74.6427 35.0061L71.0624 26.3763C70.9765 26.1728 70.9081 25.9521 70.9081 25.7231C70.9081 25.5365 70.9853 25.3668 71.0624 25.197H61.226C61.304 25.3581 61.3723 25.5279 61.3723 25.7145C61.3723 25.9352 61.304 26.1642 61.226 26.3763L57.9812 35.0061C57.9124 35.1849 57.8173 35.3287 57.6798 35.4644H63.7649C63.7045 35.3542 63.6615 35.2437 63.6615 35.1162C63.6611 35.0587 63.6698 35.0014 63.6874 34.9465L64.2127 33.4108ZM33.514 34.8017V31.6963L35.3646 34.8022C35.4334 34.9128 35.5022 35.0488 35.5022 35.1845C35.5022 35.2739 35.442 35.357 35.3866 35.4334C35.3792 35.4437 35.3718 35.4539 35.3646 35.464H43.6435C43.3337 35.3028 43.0844 35.0907 42.9035 34.8022L39.4611 29.4398L41.9571 25.8674C42.1485 25.5847 42.409 25.3541 42.7147 25.197H35.6056C35.609 25.2043 35.6125 25.2116 35.6159 25.2189C35.665 25.3228 35.7173 25.4338 35.7173 25.5447C35.7173 25.6639 35.6661 25.7741 35.6056 25.8674L33.5144 28.956V25.8674C33.5144 25.5788 33.6949 25.3754 33.9017 25.197H26.698C26.8961 25.3836 27.0853 25.5793 27.0853 25.8674V34.8017C27.0853 35.0817 26.8961 35.2855 26.698 35.4635H33.9013C33.6949 35.2855 33.514 35.0817 33.514 34.8017ZM24.1332 25.197H16.7578C16.9558 25.3754 17.1364 25.5702 17.1364 25.8588V34.8022C17.1364 35.0821 16.9558 35.286 16.7578 35.464H24.1332C23.9269 35.286 23.7459 35.0821 23.7459 34.8022V25.8588C23.7459 25.5702 23.9269 25.3754 24.1332 25.197ZM66.0712 31.3404H64.8922L65.4604 29.7028L66.0712 31.3404Z" fill="#0F0F0F"/>
</svg>
