<svg width="50" height="40" viewBox="0 0 50 40" fill="none" xmlns="http://www.w3.org/2000/svg">
<path d="M7.5 10.375V5C7.5 2.25 9.75 0 12.5 0H37.5C40.25 0 42.5 2.25 42.5 5V10.4C39.6 11.425 37.5 14.175 37.5 17.425V22.5H12.5V17.4C12.5 14.175 10.4 11.4 7.5 10.375ZM45 12.5C42.25 12.5 40 14.75 40 17.5V25H10V17.5C10 16.1739 9.47322 14.9021 8.53553 13.9645C7.59785 13.0268 6.32608 12.5 5 12.5C3.67392 12.5 2.40215 13.0268 1.46447 13.9645C0.526784 14.9021 0 16.1739 0 17.5V30C0 32.75 2.25 35 5 35V40H10V35H40V40H45V35C47.75 35 50 32.75 50 30V17.5C50 14.75 47.75 12.5 45 12.5Z" fill="#0F0F0F"/>
</svg>
