<svg width="36" height="40" viewBox="0 0 36 40" fill="none" xmlns="http://www.w3.org/2000/svg">
<path d="M12 40H28V35C32.82 31.74 36 26.24 36 20V4C36 2.93913 35.5786 1.92172 34.8284 1.17157C34.0783 0.421427 33.0609 0 32 0H24C22.9391 0 21.9217 0.421427 21.1716 1.17157C20.4214 1.92172 20 2.93913 20 4V20H0C0 26.18 4 32 12 35V40ZM4.58 24H31.42C30.8582 25.8824 29.9075 27.6259 28.6293 29.1177C27.3511 30.6094 25.774 31.8162 24 32.66V36H16V32.66C12 32 5.72 27.82 4.58 24ZM24 4H32V20H24V4ZM26 6V12H30V6H26Z" fill="#0F0F0F"/>
</svg>
