<svg width="40" height="40" viewBox="0 0 40 40" fill="none" xmlns="http://www.w3.org/2000/svg">
<path d="M8 24H12L18 30H14L8 24ZM4 4H6V2C6 1.46957 6.21071 0.960859 6.58579 0.585786C6.96086 0.210714 7.46957 0 8 0H16C16.5304 0 17.0391 0.210714 17.4142 0.585786C17.7893 0.960859 18 1.46957 18 2V4H22V2C22 1.46957 22.2107 0.960859 22.5858 0.585786C22.9609 0.210714 23.4696 0 24 0H32C32.5304 0 33.0391 0.210714 33.4142 0.585786C33.7893 0.960859 34 1.46957 34 2V4H36C37.0609 4 38.0783 4.42143 38.8284 5.17157C39.5786 5.92172 40 6.93913 40 8V34C40 35.0609 39.5786 36.0783 38.8284 36.8284C38.0783 37.5786 37.0609 38 36 38V40H30V38H10V40H4V38C2.93913 38 1.92172 37.5786 1.17157 36.8284C0.421427 36.0783 0 35.0609 0 34V8C0 6.93913 0.421427 5.92172 1.17157 5.17157C1.92172 4.42143 2.93913 4 4 4ZM32 10C32.5304 10 33.0391 10.2107 33.4142 10.5858C33.7893 10.9609 34 11.4696 34 12C34 12.5304 33.7893 13.0391 33.4142 13.4142C33.0391 13.7893 32.5304 14 32 14C31.4696 14 30.9609 13.7893 30.5858 13.4142C30.2107 13.0391 30 12.5304 30 12C30 11.4696 30.2107 10.9609 30.5858 10.5858C30.9609 10.2107 31.4696 10 32 10ZM24 10C24.5304 10 25.0391 10.2107 25.4142 10.5858C25.7893 10.9609 26 11.4696 26 12C26 12.5304 25.7893 13.0391 25.4142 13.4142C25.0391 13.7893 24.5304 14 24 14C23.4696 14 22.9609 13.7893 22.5858 13.4142C22.2107 13.0391 22 12.5304 22 12C22 11.4696 22.2107 10.9609 22.5858 10.5858C22.9609 10.2107 23.4696 10 24 10ZM36 8H4V16H36V8ZM4 34H36V20H4V34ZM8 10C8.53043 10 9.03914 10.2107 9.41421 10.5858C9.78929 10.9609 10 11.4696 10 12C10 12.5304 9.78929 13.0391 9.41421 13.4142C9.03914 13.7893 8.53043 14 8 14C7.46957 14 6.96086 13.7893 6.58579 13.4142C6.21071 13.0391 6 12.5304 6 12C6 11.4696 6.21071 10.9609 6.58579 10.5858C6.96086 10.2107 7.46957 10 8 10ZM22 24H26L32 30H28L22 24Z" fill="#0F0F0F"/>
</svg>
