<svg width="77" height="27" viewBox="0 0 77 27" fill="none" xmlns="http://www.w3.org/2000/svg">
<path fill-rule="evenodd" clip-rule="evenodd" d="M0 0V27H77V0H0ZM68.826 20.7283C59.2643 24.632 48.8685 25.7944 38.5922 25.7944C28.3505 25.7944 17.8079 24.708 8.29789 20.7283C5.46671 19.5486 1 16.8929 1 13.397C1 9.89244 5.47503 7.24492 8.29789 6.06566C17.8083 2.08596 28.3422 1 38.5922 1C48.868 1 59.2643 2.16242 68.826 6.06566C71.8811 7.31317 75.9688 9.68034 75.9688 13.397C75.9688 17.105 71.8894 19.4808 68.826 20.7283Z" fill="#0F0F0F"/>
<path fill-rule="evenodd" clip-rule="evenodd" d="M49.4515 14.7984C49.4516 14.7985 49.4517 14.7986 49.4519 14.7987H49.4515V14.7984ZM48.7973 14.578C49.0386 14.578 49.2531 14.6712 49.4515 14.7984V11.6082C49.253 11.7434 49.0383 11.8285 48.7969 11.8285H45.2253V11.1581H49.9422C50.1744 11.1581 50.3899 11.2519 50.5875 11.3789V8.19699H38.6507C38.8571 8.36675 39.0464 8.57928 39.0464 8.85876V17.8104C39.0464 18.0821 38.8571 18.2942 38.6507 18.464H50.588V14.943C50.3899 15.0614 50.1744 15.1551 49.9426 15.1551H45.2257V14.578H48.7973ZM58.2127 16.4108H60.8541L61.4224 17.8622C61.4483 17.93 61.4574 17.9979 61.4574 18.0743C61.4574 18.21 61.4224 18.3374 61.3711 18.4644H68.9705C68.8158 18.3283 68.712 18.1931 68.6427 18.0061L65.0624 9.37626C64.9765 9.1728 64.9081 8.95207 64.9081 8.72313C64.9081 8.53652 64.9853 8.36675 65.0624 8.19699H55.226C55.304 8.35811 55.3723 8.52788 55.3723 8.71449C55.3723 8.93522 55.304 9.16416 55.226 9.37626L51.9812 18.0061C51.9124 18.1849 51.8173 18.3287 51.6798 18.4644H57.7649C57.7045 18.3542 57.6615 18.2437 57.6615 18.1162C57.6611 18.0587 57.6698 18.0014 57.6874 17.9465L58.2127 16.4108ZM27.514 17.8017V14.6963L29.3646 17.8022C29.4334 17.9128 29.5022 18.0488 29.5022 18.1845C29.5022 18.2739 29.442 18.357 29.3866 18.4334C29.3792 18.4437 29.3718 18.4539 29.3646 18.464H37.6435C37.3337 18.3028 37.0844 18.0907 36.9035 17.8022L33.4611 12.4398L35.9571 8.8674C36.1485 8.58471 36.409 8.35413 36.7147 8.19699H29.6056C29.609 8.20427 29.6125 8.21158 29.6159 8.21893C29.665 8.32283 29.7173 8.43378 29.7173 8.54472C29.7173 8.66395 29.6661 8.7741 29.6056 8.8674L27.5144 11.956V8.8674C27.5144 8.57885 27.6949 8.37539 27.9017 8.19699H20.698C20.8961 8.3836 21.0853 8.57928 21.0853 8.8674V17.8017C21.0853 18.0817 20.8961 18.2855 20.698 18.4635H27.9013C27.6949 18.2855 27.514 18.0817 27.514 17.8017ZM18.1332 8.19699H10.7578C10.9558 8.37539 11.1364 8.57021 11.1364 8.85876V17.8022C11.1364 18.0821 10.9558 18.286 10.7578 18.464H18.1332C17.9269 18.286 17.7459 18.0821 17.7459 17.8022V8.85876C17.7459 8.57021 17.9269 8.37539 18.1332 8.19699ZM60.0712 14.3404H58.8922L59.4604 12.7028L60.0712 14.3404Z" fill="#0F0F0F"/>
</svg>
