<svg width="170" height="60" viewBox="0 0 170 60" fill="none" xmlns="http://www.w3.org/2000/svg">
<rect x="1" y="1" width="168" height="58" rx="4" stroke="white" stroke-width="2"/>
<path d="M56.552 23.668C56.472 23.668 56.404 23.644 56.348 23.596C56.3 23.548 56.276 23.48 56.276 23.392V21.196C56.276 21.116 56.3 21.052 56.348 21.004C56.404 20.948 56.472 20.92 56.552 20.92H56.804C57.58 20.92 57.968 19.432 57.968 16.456V13.876C57.968 13.796 57.992 13.732 58.04 13.684C58.096 13.628 58.164 13.6 58.244 13.6H62.924C63.012 13.6 63.08 13.628 63.128 13.684C63.184 13.732 63.212 13.8 63.212 13.888V20.92H63.8C63.88 20.92 63.948 20.948 64.004 21.004C64.06 21.052 64.088 21.116 64.088 21.196V23.392C64.088 23.472 64.06 23.536 64.004 23.584C63.956 23.64 63.888 23.668 63.8 23.668H63.188C63.108 23.668 63.04 23.644 62.984 23.596C62.936 23.548 62.912 23.48 62.912 23.392V22H57.452V23.392C57.452 23.472 57.424 23.536 57.368 23.584C57.32 23.64 57.252 23.668 57.164 23.668H56.552ZM62.036 20.92V14.68H59.12V16.612C59.12 17.74 59.056 18.652 58.928 19.348C58.8 20.044 58.604 20.568 58.34 20.92H62.036ZM67.9401 22.12C67.0601 22.12 66.3761 21.872 65.8881 21.376C65.4081 20.88 65.1521 20.22 65.1201 19.396L65.1081 18.88L65.1201 18.364C65.1521 17.548 65.4121 16.892 65.9001 16.396C66.3881 15.892 67.0681 15.64 67.9401 15.64C68.8121 15.64 69.4921 15.892 69.9801 16.396C70.4681 16.892 70.7281 17.548 70.7601 18.364C70.7681 18.452 70.7721 18.624 70.7721 18.88C70.7721 19.136 70.7681 19.308 70.7601 19.396C70.7281 20.22 70.4681 20.88 69.9801 21.376C69.5001 21.872 68.8201 22.12 67.9401 22.12ZM67.9401 21.196C68.4441 21.196 68.8401 21.036 69.1281 20.716C69.4241 20.396 69.5841 19.936 69.6081 19.336C69.6161 19.256 69.6201 19.104 69.6201 18.88C69.6201 18.656 69.6161 18.504 69.6081 18.424C69.5841 17.824 69.4241 17.364 69.1281 17.044C68.8401 16.724 68.4441 16.564 67.9401 16.564C67.4361 16.564 67.0361 16.724 66.7401 17.044C66.4441 17.364 66.2881 17.824 66.2721 18.424L66.2601 18.88L66.2721 19.336C66.2881 19.936 66.4441 20.396 66.7401 20.716C67.0361 21.036 67.4361 21.196 67.9401 21.196ZM74.7947 22.12C73.9387 22.12 73.2667 21.88 72.7787 21.4C72.2987 20.912 72.0427 20.232 72.0107 19.36L71.9987 18.88L72.0107 18.4C72.0427 17.528 72.2987 16.852 72.7787 16.372C73.2667 15.884 73.9387 15.64 74.7947 15.64C75.3707 15.64 75.8587 15.744 76.2587 15.952C76.6587 16.16 76.9547 16.416 77.1467 16.72C77.3467 17.024 77.4547 17.328 77.4707 17.632C77.4787 17.712 77.4547 17.776 77.3987 17.824C77.3427 17.872 77.2747 17.896 77.1947 17.896H76.6187C76.5387 17.896 76.4787 17.88 76.4387 17.848C76.3987 17.816 76.3587 17.752 76.3187 17.656C76.1827 17.272 75.9907 17 75.7427 16.84C75.4947 16.672 75.1827 16.588 74.8067 16.588C74.3107 16.588 73.9147 16.744 73.6187 17.056C73.3307 17.36 73.1747 17.828 73.1507 18.46L73.1387 18.892L73.1507 19.3C73.1747 19.94 73.3307 20.412 73.6187 20.716C73.9067 21.02 74.3027 21.172 74.8067 21.172C75.1827 21.172 75.4947 21.092 75.7427 20.932C75.9907 20.764 76.1827 20.488 76.3187 20.104C76.3587 20.008 76.3987 19.944 76.4387 19.912C76.4787 19.872 76.5387 19.852 76.6187 19.852H77.1947C77.2747 19.852 77.3427 19.88 77.3987 19.936C77.4547 19.984 77.4787 20.048 77.4707 20.128C77.4547 20.424 77.3467 20.728 77.1467 21.04C76.9547 21.344 76.6587 21.6 76.2587 21.808C75.8667 22.016 75.3787 22.12 74.7947 22.12ZM80.8038 22C80.7238 22 80.6558 21.976 80.5998 21.928C80.5518 21.872 80.5278 21.804 80.5278 21.724V16.72H78.4398C78.3598 16.72 78.2918 16.696 78.2358 16.648C78.1878 16.592 78.1638 16.524 78.1638 16.444V16.036C78.1638 15.956 78.1878 15.892 78.2358 15.844C78.2918 15.788 78.3598 15.76 78.4398 15.76H83.7198C83.7998 15.76 83.8638 15.788 83.9118 15.844C83.9678 15.892 83.9958 15.956 83.9958 16.036V16.444C83.9958 16.524 83.9678 16.592 83.9118 16.648C83.8638 16.696 83.7998 16.72 83.7198 16.72H81.6318V21.724C81.6318 21.804 81.6078 21.872 81.5598 21.928C81.5118 21.976 81.4478 22 81.3678 22H80.8038ZM90.1604 15.76C90.2244 15.76 90.2804 15.784 90.3284 15.832C90.3764 15.88 90.4004 15.936 90.4004 16C90.4004 16.056 90.3804 16.128 90.3404 16.216L88.0604 21.616L87.9524 21.856C87.7444 22.36 87.5524 22.776 87.3764 23.104C87.2004 23.432 86.9804 23.708 86.7164 23.932C86.4524 24.164 86.1404 24.28 85.7804 24.28H85.3244C85.2444 24.28 85.1764 24.256 85.1204 24.208C85.0724 24.16 85.0484 24.092 85.0484 24.004V23.596C85.0484 23.516 85.0724 23.448 85.1204 23.392C85.1764 23.344 85.2444 23.32 85.3244 23.32H85.6364C85.8124 23.32 85.9564 23.284 86.0684 23.212C86.1804 23.148 86.2804 23.036 86.3684 22.876C86.4644 22.716 86.5804 22.472 86.7164 22.144L86.9204 21.652L84.5684 16.216C84.5284 16.112 84.5084 16.044 84.5084 16.012C84.5164 15.94 84.5444 15.88 84.5924 15.832C84.6404 15.784 84.6964 15.76 84.7604 15.76H85.3244C85.4604 15.76 85.5604 15.828 85.6244 15.964L87.4604 20.368L89.3204 15.964C89.3764 15.828 89.4764 15.76 89.6204 15.76H90.1604ZM91.8867 22C91.8067 22 91.7387 21.976 91.6827 21.928C91.6347 21.872 91.6107 21.804 91.6107 21.724V16.036C91.6107 15.956 91.6347 15.892 91.6827 15.844C91.7387 15.788 91.8067 15.76 91.8867 15.76H96.6507C96.7307 15.76 96.7947 15.788 96.8427 15.844C96.8987 15.892 96.9267 15.956 96.9267 16.036V21.724C96.9267 21.804 96.8987 21.872 96.8427 21.928C96.7947 21.976 96.7307 22 96.6507 22H96.0747C95.9947 22 95.9307 21.976 95.8827 21.928C95.8347 21.872 95.8107 21.804 95.8107 21.724V16.72H92.7387V21.724C92.7387 21.804 92.7107 21.872 92.6547 21.928C92.6067 21.976 92.5427 22 92.4627 22H91.8867ZM98.9882 22C98.9082 22 98.8402 21.976 98.7842 21.928C98.7362 21.872 98.7122 21.804 98.7122 21.724V16.036C98.7122 15.956 98.7362 15.892 98.7842 15.844C98.8402 15.788 98.9082 15.76 98.9882 15.76H99.5642C99.6442 15.76 99.7082 15.788 99.7562 15.844C99.8122 15.892 99.8402 15.956 99.8402 16.036V18.34H103.104V16.036C103.104 15.956 103.128 15.892 103.176 15.844C103.232 15.788 103.3 15.76 103.38 15.76H103.944C104.024 15.76 104.088 15.788 104.136 15.844C104.192 15.892 104.22 15.956 104.22 16.036V21.724C104.22 21.804 104.192 21.872 104.136 21.928C104.088 21.976 104.024 22 103.944 22H103.38C103.3 22 103.232 21.976 103.176 21.928C103.128 21.872 103.104 21.804 103.104 21.724V19.3H99.8402V21.724C99.8402 21.804 99.8122 21.872 99.7562 21.928C99.7082 21.976 99.6442 22 99.5642 22H98.9882ZM108.581 22.12C107.701 22.12 107.017 21.872 106.529 21.376C106.049 20.88 105.793 20.22 105.761 19.396L105.749 18.88L105.761 18.364C105.793 17.548 106.053 16.892 106.541 16.396C107.029 15.892 107.709 15.64 108.581 15.64C109.453 15.64 110.133 15.892 110.621 16.396C111.109 16.892 111.369 17.548 111.401 18.364C111.409 18.452 111.413 18.624 111.413 18.88C111.413 19.136 111.409 19.308 111.401 19.396C111.369 20.22 111.109 20.88 110.621 21.376C110.141 21.872 109.461 22.12 108.581 22.12ZM108.581 21.196C109.085 21.196 109.481 21.036 109.769 20.716C110.065 20.396 110.225 19.936 110.249 19.336C110.257 19.256 110.261 19.104 110.261 18.88C110.261 18.656 110.257 18.504 110.249 18.424C110.225 17.824 110.065 17.364 109.769 17.044C109.481 16.724 109.085 16.564 108.581 16.564C108.077 16.564 107.677 16.724 107.381 17.044C107.085 17.364 106.929 17.824 106.913 18.424L106.901 18.88L106.913 19.336C106.929 19.936 107.085 20.396 107.381 20.716C107.677 21.036 108.077 21.196 108.581 21.196ZM116.133 22C116.053 22 115.985 21.976 115.929 21.928C115.881 21.872 115.857 21.804 115.857 21.724V16.036C115.857 15.956 115.881 15.892 115.929 15.844C115.985 15.788 116.053 15.76 116.133 15.76H118.629C119.365 15.76 119.925 15.912 120.309 16.216C120.701 16.512 120.897 16.92 120.897 17.44C120.897 17.784 120.833 18.052 120.705 18.244C120.577 18.428 120.381 18.588 120.117 18.724C120.405 18.844 120.629 19.044 120.789 19.324C120.957 19.604 121.041 19.904 121.041 20.224C121.041 20.8 120.837 21.24 120.429 21.544C120.029 21.848 119.461 22 118.725 22H116.133ZM118.557 18.412C118.949 18.412 119.257 18.328 119.481 18.16C119.705 17.992 119.817 17.756 119.817 17.452C119.817 17.156 119.709 16.948 119.493 16.828C119.277 16.7 118.965 16.636 118.557 16.636H116.961V18.412H118.557ZM118.629 21.124C119.029 21.124 119.341 21.048 119.565 20.896C119.797 20.744 119.913 20.52 119.913 20.224C119.913 19.904 119.809 19.672 119.601 19.528C119.393 19.376 119.069 19.3 118.629 19.3H116.961V21.124H118.629Z" fill="white"/>
<path d="M62.84 44.2C61.0933 44.2 59.7333 43.7267 58.76 42.78C57.8 41.82 57.2867 40.5133 57.22 38.86C57.2067 38.46 57.2 37.8333 57.2 36.98C57.2 36.1133 57.2067 35.4867 57.22 35.1C57.2867 33.46 57.8067 32.1667 58.78 31.22C59.7533 30.2733 61.1067 29.8 62.84 29.8C64.0133 29.8 65.0067 30.0133 65.82 30.44C66.6467 30.8533 67.2667 31.36 67.68 31.96C68.0933 32.56 68.3133 33.12 68.34 33.64V33.68C68.34 33.7867 68.3 33.8733 68.22 33.94C68.14 34.0067 68.04 34.04 67.92 34.04H66.74C66.6067 34.04 66.5067 34.02 66.44 33.98C66.3867 33.9267 66.3333 33.8267 66.28 33.68C66.08 33.08 65.6933 32.5667 65.12 32.14C64.56 31.7133 63.8 31.5 62.84 31.5C61.7333 31.5 60.8667 31.8 60.24 32.4C59.6133 33 59.2733 33.9333 59.22 35.2C59.2067 35.5867 59.2 36.18 59.2 36.98C59.2 37.7667 59.2067 38.36 59.22 38.76C59.2733 40.04 59.6133 40.9867 60.24 41.6C60.8667 42.2 61.7333 42.5 62.84 42.5C63.96 42.5 64.8533 42.1933 65.52 41.58C66.1867 40.9667 66.52 40.0467 66.52 38.82V37.98H63.52C63.3867 37.98 63.2733 37.94 63.18 37.86C63.1 37.7667 63.06 37.6467 63.06 37.5V36.86C63.06 36.7267 63.1 36.6133 63.18 36.52C63.2733 36.4267 63.3867 36.38 63.52 36.38H68.04C68.1733 36.38 68.28 36.4267 68.36 36.52C68.4533 36.6 68.5 36.7133 68.5 36.86V38.78C68.5 39.8733 68.2733 40.8267 67.82 41.64C67.3667 42.4533 66.7133 43.0867 65.86 43.54C65.0067 43.98 64 44.2 62.84 44.2ZM75.3533 44.2C73.8866 44.2 72.7466 43.7867 71.9333 42.96C71.1333 42.1333 70.7066 41.0333 70.6533 39.66L70.6333 38.8L70.6533 37.94C70.7066 36.58 71.1399 35.4867 71.9533 34.66C72.7666 33.82 73.8999 33.4 75.3533 33.4C76.8066 33.4 77.9399 33.82 78.7533 34.66C79.5666 35.4867 79.9999 36.58 80.0533 37.94C80.0666 38.0867 80.0733 38.3733 80.0733 38.8C80.0733 39.2267 80.0666 39.5133 80.0533 39.66C79.9999 41.0333 79.5666 42.1333 78.7533 42.96C77.9533 43.7867 76.8199 44.2 75.3533 44.2ZM75.3533 42.66C76.1933 42.66 76.8533 42.3933 77.3333 41.86C77.8266 41.3267 78.0933 40.56 78.1333 39.56C78.1466 39.4267 78.1533 39.1733 78.1533 38.8C78.1533 38.4267 78.1466 38.1733 78.1333 38.04C78.0933 37.04 77.8266 36.2733 77.3333 35.74C76.8533 35.2067 76.1933 34.94 75.3533 34.94C74.5133 34.94 73.8466 35.2067 73.3533 35.74C72.8599 36.2733 72.5999 37.04 72.5733 38.04L72.5533 38.8L72.5733 39.56C72.5999 40.56 72.8599 41.3267 73.3533 41.86C73.8466 42.3933 74.5133 42.66 75.3533 42.66ZM86.8377 44.2C85.371 44.2 84.231 43.7867 83.4177 42.96C82.6177 42.1333 82.191 41.0333 82.1377 39.66L82.1177 38.8L82.1377 37.94C82.191 36.58 82.6243 35.4867 83.4377 34.66C84.251 33.82 85.3843 33.4 86.8377 33.4C88.291 33.4 89.4243 33.82 90.2377 34.66C91.051 35.4867 91.4843 36.58 91.5377 37.94C91.551 38.0867 91.5577 38.3733 91.5577 38.8C91.5577 39.2267 91.551 39.5133 91.5377 39.66C91.4843 41.0333 91.051 42.1333 90.2377 42.96C89.4377 43.7867 88.3043 44.2 86.8377 44.2ZM86.8377 42.66C87.6777 42.66 88.3377 42.3933 88.8177 41.86C89.311 41.3267 89.5777 40.56 89.6177 39.56C89.631 39.4267 89.6377 39.1733 89.6377 38.8C89.6377 38.4267 89.631 38.1733 89.6177 38.04C89.5777 37.04 89.311 36.2733 88.8177 35.74C88.3377 35.2067 87.6777 34.94 86.8377 34.94C85.9977 34.94 85.331 35.2067 84.8377 35.74C84.3443 36.2733 84.0843 37.04 84.0577 38.04L84.0377 38.8L84.0577 39.56C84.0843 40.56 84.3443 41.3267 84.8377 41.86C85.331 42.3933 85.9977 42.66 86.8377 42.66ZM98.322 48.4C97.2287 48.4 96.3487 48.2133 95.682 47.84C95.0154 47.48 94.542 47.0667 94.262 46.6C93.982 46.1333 93.8287 45.7133 93.802 45.34C93.7887 45.2067 93.8287 45.0933 93.922 45C94.0287 44.9067 94.142 44.86 94.262 44.86H95.222C95.342 44.86 95.442 44.8867 95.522 44.94C95.602 45.0067 95.6687 45.12 95.722 45.28C95.882 45.7067 96.142 46.0733 96.502 46.38C96.8754 46.7 97.4487 46.86 98.222 46.86C99.2087 46.86 99.9354 46.6467 100.402 46.22C100.869 45.8067 101.102 45.0667 101.102 44V42.64C100.755 43.08 100.315 43.4333 99.782 43.7C99.2487 43.9533 98.6154 44.08 97.882 44.08C96.4687 44.08 95.4087 43.6333 94.702 42.74C94.0087 41.8333 93.642 40.6867 93.602 39.3L93.582 38.74L93.602 38.2C93.642 36.8267 94.0154 35.6867 94.722 34.78C95.4287 33.86 96.482 33.4 97.882 33.4C99.282 33.4 100.375 33.9133 101.162 34.94V34.08C101.162 33.9467 101.202 33.8333 101.282 33.74C101.375 33.6467 101.489 33.6 101.622 33.6H102.542C102.675 33.6 102.789 33.6467 102.882 33.74C102.975 33.8333 103.022 33.9467 103.022 34.08V43.78C103.022 46.86 101.455 48.4 98.322 48.4ZM98.282 42.48C99.1887 42.48 99.8754 42.18 100.342 41.58C100.809 40.98 101.062 40.2667 101.102 39.44C101.115 39.32 101.122 39.0867 101.122 38.74C101.122 38.4067 101.115 38.18 101.102 38.06C101.062 37.2333 100.809 36.52 100.342 35.92C99.8887 35.32 99.202 35.02 98.282 35.02C97.3354 35.02 96.6487 35.3133 96.222 35.9C95.7954 36.4867 95.562 37.26 95.522 38.22L95.502 38.74L95.522 39.28C95.562 40.2267 95.7954 41 96.222 41.6C96.6487 42.1867 97.3354 42.48 98.282 42.48ZM106.476 44C106.342 44 106.229 43.96 106.136 43.88C106.056 43.7867 106.016 43.6733 106.016 43.54V30.26C106.016 30.1267 106.056 30.02 106.136 29.94C106.229 29.8467 106.342 29.8 106.476 29.8H107.416C107.549 29.8 107.656 29.8467 107.736 29.94C107.829 30.02 107.876 30.1267 107.876 30.26V43.54C107.876 43.6733 107.829 43.7867 107.736 43.88C107.656 43.96 107.549 44 107.416 44H106.476ZM115.019 44.2C113.646 44.2 112.546 43.78 111.719 42.94C110.906 42.0867 110.459 40.9267 110.379 39.46L110.359 38.78L110.379 38.12C110.472 36.68 110.926 35.5333 111.739 34.68C112.566 33.8267 113.652 33.4 114.999 33.4C116.479 33.4 117.626 33.8733 118.439 34.82C119.252 35.7533 119.659 37.02 119.659 38.62V38.96C119.659 39.0933 119.612 39.2067 119.519 39.3C119.439 39.38 119.332 39.42 119.199 39.42H112.279V39.6C112.319 40.4667 112.579 41.2067 113.059 41.82C113.552 42.42 114.199 42.72 114.999 42.72C115.612 42.72 116.112 42.6 116.499 42.36C116.899 42.1067 117.192 41.8467 117.379 41.58C117.499 41.42 117.586 41.3267 117.639 41.3C117.706 41.26 117.819 41.24 117.979 41.24H118.959C119.079 41.24 119.179 41.2733 119.259 41.34C119.339 41.4067 119.379 41.5 119.379 41.62C119.379 41.9133 119.192 42.2667 118.819 42.68C118.459 43.0933 117.946 43.4533 117.279 43.76C116.626 44.0533 115.872 44.2 115.019 44.2ZM117.759 38.04V37.98C117.759 37.06 117.506 36.3133 116.999 35.74C116.506 35.1533 115.839 34.86 114.999 34.86C114.159 34.86 113.492 35.1533 112.999 35.74C112.519 36.3133 112.279 37.06 112.279 37.98V38.04H117.759ZM122.77 44C122.637 44 122.524 43.96 122.43 43.88C122.35 43.7867 122.31 43.6733 122.31 43.54V30.48C122.31 30.3333 122.35 30.22 122.43 30.14C122.524 30.0467 122.637 30 122.77 30H127.85C129.357 30 130.544 30.3667 131.41 31.1C132.277 31.8333 132.71 32.8933 132.71 34.28C132.71 35.6667 132.277 36.7267 131.41 37.46C130.557 38.18 129.37 38.54 127.85 38.54H124.31V43.54C124.31 43.6733 124.264 43.7867 124.17 43.88C124.077 43.96 123.964 44 123.83 44H122.77ZM127.75 36.86C128.724 36.86 129.457 36.64 129.95 36.2C130.457 35.76 130.71 35.12 130.71 34.28C130.71 33.44 130.464 32.8 129.97 32.36C129.477 31.9067 128.737 31.68 127.75 31.68H124.29V36.86H127.75ZM135.362 44C135.229 44 135.116 43.96 135.022 43.88C134.942 43.7867 134.902 43.6733 134.902 43.54V30.26C134.902 30.1267 134.942 30.02 135.022 29.94C135.116 29.8467 135.229 29.8 135.362 29.8H136.302C136.436 29.8 136.542 29.8467 136.622 29.94C136.716 30.02 136.762 30.1267 136.762 30.26V43.54C136.762 43.6733 136.716 43.7867 136.622 43.88C136.542 43.96 136.436 44 136.302 44H135.362ZM142.646 44.2C141.992 44.2 141.386 44.0667 140.826 43.8C140.266 43.5333 139.819 43.1733 139.486 42.72C139.166 42.2533 139.006 41.74 139.006 41.18C139.006 40.3 139.366 39.58 140.086 39.02C140.819 38.4467 141.806 38.0733 143.046 37.9L146.026 37.48V36.9C146.026 35.54 145.246 34.86 143.686 34.86C143.099 34.86 142.619 34.9867 142.246 35.24C141.872 35.48 141.592 35.7667 141.406 36.1C141.366 36.22 141.312 36.3067 141.246 36.36C141.192 36.4133 141.112 36.44 141.006 36.44H140.146C140.026 36.44 139.919 36.4 139.826 36.32C139.746 36.2267 139.706 36.12 139.706 36C139.719 35.68 139.866 35.32 140.146 34.92C140.439 34.5067 140.886 34.1533 141.486 33.86C142.086 33.5533 142.826 33.4 143.706 33.4C145.199 33.4 146.272 33.7533 146.926 34.46C147.579 35.1533 147.906 36.02 147.906 37.06V43.54C147.906 43.6733 147.859 43.7867 147.766 43.88C147.686 43.96 147.579 44 147.446 44H146.526C146.392 44 146.279 43.96 146.186 43.88C146.106 43.7867 146.066 43.6733 146.066 43.54V42.68C145.772 43.1067 145.346 43.4667 144.786 43.76C144.226 44.0533 143.512 44.2 142.646 44.2ZM143.066 42.7C143.932 42.7 144.639 42.42 145.186 41.86C145.746 41.2867 146.026 40.4667 146.026 39.4V38.84L143.706 39.18C142.759 39.3133 142.046 39.54 141.566 39.86C141.086 40.1667 140.846 40.56 140.846 41.04C140.846 41.5733 141.066 41.9867 141.506 42.28C141.946 42.56 142.466 42.7 143.066 42.7ZM152.386 47.8C152.279 47.8 152.186 47.76 152.106 47.68C152.026 47.6 151.986 47.5067 151.986 47.4C151.986 47.3067 152.019 47.1867 152.086 47.04L153.626 43.38L149.806 34.36C149.739 34.1867 149.706 34.0733 149.706 34.02C149.706 33.9 149.746 33.8 149.826 33.72C149.906 33.64 150.006 33.6 150.126 33.6H151.106C151.319 33.6 151.479 33.7133 151.586 33.94L154.626 41.22L157.746 33.94C157.853 33.7133 158.019 33.6 158.246 33.6H159.186C159.306 33.6 159.406 33.64 159.486 33.72C159.566 33.8 159.606 33.8933 159.606 34C159.606 34.04 159.573 34.16 159.506 34.36L153.826 47.46C153.719 47.6867 153.553 47.8 153.326 47.8H152.386Z" fill="white"/>
<path d="M9 46.3959V13.6041C9 12.466 9.64701 11.4629 10.5985 11L29.3428 30L10.5985 49C9.64701 48.5178 9 47.534 9 46.3959ZM35.2801 36.0183L14.8041 48.0162L30.9603 31.6396L35.2801 36.0183ZM41.655 27.7046C42.302 28.2254 42.7778 29.0355 42.7778 30C42.7778 30.9645 42.3591 31.736 41.6931 32.2761L37.3353 34.8223L32.5778 30L37.3353 25.1777L41.655 27.7046ZM14.8041 11.9838L35.2801 23.9817L30.9603 28.3604L14.8041 11.9838Z" fill="white"/>
</svg>
