<svg width="110" height="19" viewBox="0 0 110 19" fill="none" xmlns="http://www.w3.org/2000/svg">
<path d="M0 0.525632C0.38293 0.459035 0.79361 0.397984 1.23481 0.339712C1.67601 0.28144 2.11722 0.234268 2.55842 0.200969C2.99962 0.167671 3.42973 0.142701 3.84595 0.126051C4.26218 0.109402 4.64511 0.101079 4.99475 0.101079C5.80287 0.100409 6.60927 0.175661 7.40332 0.325842C8.15026 0.459557 8.86844 0.721483 9.52609 1.10003C10.1479 1.46494 10.6642 1.9851 11.0245 2.60955C11.4208 3.34964 11.6124 4.18205 11.5795 5.0209C11.5795 6.45272 11.2465 7.61817 10.5805 8.51722C9.91652 9.41486 8.97864 10.0723 7.90835 10.3903L9.13206 11.1644L13.1279 17.8241H9.19033L5.21951 10.9896L3.4214 10.665V17.8324H0V0.525632ZM5.24448 3.14787C4.89485 3.14787 4.54799 3.14788 4.20669 3.17285C3.94221 3.17932 3.67908 3.21279 3.4214 3.27274V8.3424H4.86988C5.6772 8.38734 6.47658 8.16285 7.14249 7.70419C7.70856 7.27131 7.99159 6.5554 7.99159 5.55645C8.00964 5.23004 7.95644 4.90361 7.83569 4.59982C7.71494 4.29602 7.52953 4.02215 7.29233 3.79719C6.82615 3.35876 6.14354 3.14787 5.24448 3.14787Z" fill="white"/>
<path d="M15.0481 0.351318H25.3983V3.40366H18.4612V7.47438H24.7795V10.5267H18.4556V14.7972H25.5232V17.8496H15.0481V0.351318Z" fill="white"/>
<path d="M92.7773 0.226074L91.4537 4.09701H88.7843L89.0063 6.84411H90.8571L89.0285 10.7289V10.7539L88.7843 13.501H88.6594L88.4125 10.7539L86.5588 6.86909H88.4374L88.6566 4.12198H86.0843L84.6969 0.251055H81.0896L87.383 17.8575H89.9053L96.1987 0.251055L92.7773 0.226074Z" fill="white"/>
<path d="M54.2429 17.1168C53.6289 17.5295 52.935 17.8084 52.2062 17.9354C51.3718 18.1006 50.5233 18.1833 49.6727 18.1823C48.6553 18.188 47.6442 18.0229 46.6814 17.694C45.7375 17.3719 44.8821 16.833 44.184 16.1206C43.417 15.3151 42.833 14.3534 42.472 13.3014C42.0232 11.9448 41.8147 10.5202 41.8559 9.0919C41.8132 7.62312 42.0544 6.15991 42.5663 4.78254C42.9741 3.7282 43.6045 2.77417 44.4144 1.98549C45.1421 1.29921 46.0103 0.779398 46.9589 0.462086C47.8606 0.15975 48.805 0.00422577 49.756 0.00145797C50.6048 -0.0109563 51.453 0.055931 52.2894 0.201248C52.874 0.304325 53.4473 0.463225 54.0015 0.675755L53.3272 3.5727C52.8946 3.37488 52.4357 3.24031 51.9647 3.17313C51.3325 3.08244 50.6943 3.04069 50.0556 3.04826C49.425 3.02581 48.7976 3.14705 48.2207 3.40279C47.6438 3.65854 47.1326 4.04211 46.7258 4.52448C45.8841 5.50863 45.4642 7.0348 45.466 9.103C45.4574 9.93486 45.5582 10.7642 45.7657 11.5698C45.9391 12.2579 46.2486 12.9042 46.6759 13.4706C47.0797 13.994 47.6017 14.4144 48.1993 14.6971C48.8612 15.0004 49.583 15.1503 50.3109 15.1355C50.951 15.1491 51.5898 15.0734 52.2089 14.9108C52.6818 14.7795 53.1352 14.5864 53.5575 14.3364L54.2429 17.1168Z" fill="white"/>
<path d="M69.6211 3.39805H64.5265V17.8273H61.1106V3.39805H55.9855V0.345703H69.6211V3.39805Z" fill="white"/>
<path d="M82.4576 17.8329H71.3943V0.351318H74.8157V14.7806H82.4576V17.8329Z" fill="white"/>
<path d="M109.457 4.42207C109.457 4.85991 109.403 5.29607 109.296 5.7207C109.191 6.14533 109.011 6.54762 108.763 6.90834C108.5 7.27927 108.172 7.59979 107.795 7.85457C107.358 8.14822 106.869 8.35631 106.355 8.46781V8.61765C106.843 8.69825 107.318 8.84093 107.77 9.0422C108.211 9.23869 108.608 9.52177 108.938 9.87466C109.282 10.2421 109.548 10.6754 109.721 11.1483C109.92 11.7175 110.015 12.3184 109.998 12.9215C110.019 13.7368 109.821 14.5428 109.424 15.2551C109.048 15.9072 108.522 16.46 107.889 16.8673C107.218 17.2963 106.478 17.6088 105.703 17.7913C104.877 17.9923 104.03 18.0929 103.18 18.091H102.095C101.654 18.091 101.18 18.091 100.672 18.0522C100.164 18.0133 99.648 17.9911 99.1235 17.9412C98.64 17.8978 98.1599 17.8227 97.6862 17.7164V0.490088C98.0025 0.440141 98.366 0.390191 98.7739 0.340243C99.1818 0.290296 99.6064 0.248678 100.084 0.21538C100.561 0.182082 101.03 0.157102 101.521 0.140453C102.012 0.123804 102.498 0.115481 102.981 0.115481C103.78 0.115064 104.578 0.17723 105.367 0.3014C106.089 0.409907 106.789 0.633826 107.44 0.964587C108.034 1.26952 108.538 1.72613 108.899 2.2882C109.288 2.93067 109.481 3.67183 109.457 4.42207ZM102.14 7.70472C102.373 7.70472 102.645 7.70472 102.953 7.67975C103.207 7.66847 103.461 7.64346 103.713 7.60483C104.314 7.4248 104.872 7.12249 105.35 6.71687C105.574 6.52559 105.752 6.2863 105.871 6.01679C105.989 5.74728 106.046 5.45448 106.036 5.16017C106.05 4.78986 105.964 4.42259 105.786 4.0974C105.625 3.82287 105.398 3.59296 105.126 3.42866C104.836 3.25872 104.518 3.14218 104.188 3.08458C103.822 3.01612 103.45 2.98267 103.078 2.98468C102.645 2.98468 102.245 2.99301 101.879 3.00966C101.595 3.01873 101.311 3.04375 101.03 3.08458V7.70472H102.14ZM103.225 15.2218C103.625 15.2223 104.024 15.1729 104.412 15.0747C104.777 14.9844 105.122 14.8293 105.431 14.6169C105.723 14.4131 105.965 14.1467 106.141 13.8372C106.33 13.4983 106.426 13.1153 106.419 12.7272C106.443 12.2771 106.333 11.8299 106.102 11.4425C105.892 11.1319 105.605 10.8806 105.27 10.7127C104.908 10.5354 104.519 10.4227 104.118 10.3797C103.695 10.3298 103.268 10.3048 102.842 10.3048H101.041V15.0775C101.169 15.1173 101.301 15.1416 101.435 15.1497C101.613 15.1663 101.807 15.1802 102.009 15.1885L102.648 15.2135C102.87 15.1968 103.061 15.2107 103.225 15.2107V15.2218Z" fill="white"/>
<path d="M38.9618 0.575684L37.6382 4.44661H34.9688L35.1907 7.19372H37.0416L35.2129 11.0646V11.0896L34.9688 13.8367H34.8439L34.5969 11.0896L32.7433 7.20482H34.6219L34.8411 4.45771H32.2716L30.8842 0.586785H27.2769L33.5702 18.1933H36.0926L42.386 0.586785L38.9618 0.575684Z" fill="white"/>
</svg>
