<svg width="170" height="60" viewBox="0 0 170 60" fill="none" xmlns="http://www.w3.org/2000/svg">
<rect x="1" y="1" width="168" height="58" rx="4" stroke="white" stroke-width="2"/>
<path d="M56.552 23.668C56.472 23.668 56.404 23.644 56.348 23.596C56.3 23.548 56.276 23.48 56.276 23.392V21.196C56.276 21.116 56.3 21.052 56.348 21.004C56.404 20.948 56.472 20.92 56.552 20.92H56.804C57.58 20.92 57.968 19.432 57.968 16.456V13.876C57.968 13.796 57.992 13.732 58.04 13.684C58.096 13.628 58.164 13.6 58.244 13.6H62.924C63.012 13.6 63.08 13.628 63.128 13.684C63.184 13.732 63.212 13.8 63.212 13.888V20.92H63.8C63.88 20.92 63.948 20.948 64.004 21.004C64.06 21.052 64.088 21.116 64.088 21.196V23.392C64.088 23.472 64.06 23.536 64.004 23.584C63.956 23.64 63.888 23.668 63.8 23.668H63.188C63.108 23.668 63.04 23.644 62.984 23.596C62.936 23.548 62.912 23.48 62.912 23.392V22H57.452V23.392C57.452 23.472 57.424 23.536 57.368 23.584C57.32 23.64 57.252 23.668 57.164 23.668H56.552ZM62.036 20.92V14.68H59.12V16.612C59.12 17.74 59.056 18.652 58.928 19.348C58.8 20.044 58.604 20.568 58.34 20.92H62.036ZM67.9401 22.12C67.0601 22.12 66.3761 21.872 65.8881 21.376C65.4081 20.88 65.1521 20.22 65.1201 19.396L65.1081 18.88L65.1201 18.364C65.1521 17.548 65.4121 16.892 65.9001 16.396C66.3881 15.892 67.0681 15.64 67.9401 15.64C68.8121 15.64 69.4921 15.892 69.9801 16.396C70.4681 16.892 70.7281 17.548 70.7601 18.364C70.7681 18.452 70.7721 18.624 70.7721 18.88C70.7721 19.136 70.7681 19.308 70.7601 19.396C70.7281 20.22 70.4681 20.88 69.9801 21.376C69.5001 21.872 68.8201 22.12 67.9401 22.12ZM67.9401 21.196C68.4441 21.196 68.8401 21.036 69.1281 20.716C69.4241 20.396 69.5841 19.936 69.6081 19.336C69.6161 19.256 69.6201 19.104 69.6201 18.88C69.6201 18.656 69.6161 18.504 69.6081 18.424C69.5841 17.824 69.4241 17.364 69.1281 17.044C68.8401 16.724 68.4441 16.564 67.9401 16.564C67.4361 16.564 67.0361 16.724 66.7401 17.044C66.4441 17.364 66.2881 17.824 66.2721 18.424L66.2601 18.88L66.2721 19.336C66.2881 19.936 66.4441 20.396 66.7401 20.716C67.0361 21.036 67.4361 21.196 67.9401 21.196ZM74.7947 22.12C73.9387 22.12 73.2667 21.88 72.7787 21.4C72.2987 20.912 72.0427 20.232 72.0107 19.36L71.9987 18.88L72.0107 18.4C72.0427 17.528 72.2987 16.852 72.7787 16.372C73.2667 15.884 73.9387 15.64 74.7947 15.64C75.3707 15.64 75.8587 15.744 76.2587 15.952C76.6587 16.16 76.9547 16.416 77.1467 16.72C77.3467 17.024 77.4547 17.328 77.4707 17.632C77.4787 17.712 77.4547 17.776 77.3987 17.824C77.3427 17.872 77.2747 17.896 77.1947 17.896H76.6187C76.5387 17.896 76.4787 17.88 76.4387 17.848C76.3987 17.816 76.3587 17.752 76.3187 17.656C76.1827 17.272 75.9907 17 75.7427 16.84C75.4947 16.672 75.1827 16.588 74.8067 16.588C74.3107 16.588 73.9147 16.744 73.6187 17.056C73.3307 17.36 73.1747 17.828 73.1507 18.46L73.1387 18.892L73.1507 19.3C73.1747 19.94 73.3307 20.412 73.6187 20.716C73.9067 21.02 74.3027 21.172 74.8067 21.172C75.1827 21.172 75.4947 21.092 75.7427 20.932C75.9907 20.764 76.1827 20.488 76.3187 20.104C76.3587 20.008 76.3987 19.944 76.4387 19.912C76.4787 19.872 76.5387 19.852 76.6187 19.852H77.1947C77.2747 19.852 77.3427 19.88 77.3987 19.936C77.4547 19.984 77.4787 20.048 77.4707 20.128C77.4547 20.424 77.3467 20.728 77.1467 21.04C76.9547 21.344 76.6587 21.6 76.2587 21.808C75.8667 22.016 75.3787 22.12 74.7947 22.12ZM80.8038 22C80.7238 22 80.6558 21.976 80.5998 21.928C80.5518 21.872 80.5278 21.804 80.5278 21.724V16.72H78.4398C78.3598 16.72 78.2918 16.696 78.2358 16.648C78.1878 16.592 78.1638 16.524 78.1638 16.444V16.036C78.1638 15.956 78.1878 15.892 78.2358 15.844C78.2918 15.788 78.3598 15.76 78.4398 15.76H83.7198C83.7998 15.76 83.8638 15.788 83.9118 15.844C83.9678 15.892 83.9958 15.956 83.9958 16.036V16.444C83.9958 16.524 83.9678 16.592 83.9118 16.648C83.8638 16.696 83.7998 16.72 83.7198 16.72H81.6318V21.724C81.6318 21.804 81.6078 21.872 81.5598 21.928C81.5118 21.976 81.4478 22 81.3678 22H80.8038ZM90.1604 15.76C90.2244 15.76 90.2804 15.784 90.3284 15.832C90.3764 15.88 90.4004 15.936 90.4004 16C90.4004 16.056 90.3804 16.128 90.3404 16.216L88.0604 21.616L87.9524 21.856C87.7444 22.36 87.5524 22.776 87.3764 23.104C87.2004 23.432 86.9804 23.708 86.7164 23.932C86.4524 24.164 86.1404 24.28 85.7804 24.28H85.3244C85.2444 24.28 85.1764 24.256 85.1204 24.208C85.0724 24.16 85.0484 24.092 85.0484 24.004V23.596C85.0484 23.516 85.0724 23.448 85.1204 23.392C85.1764 23.344 85.2444 23.32 85.3244 23.32H85.6364C85.8124 23.32 85.9564 23.284 86.0684 23.212C86.1804 23.148 86.2804 23.036 86.3684 22.876C86.4644 22.716 86.5804 22.472 86.7164 22.144L86.9204 21.652L84.5684 16.216C84.5284 16.112 84.5084 16.044 84.5084 16.012C84.5164 15.94 84.5444 15.88 84.5924 15.832C84.6404 15.784 84.6964 15.76 84.7604 15.76H85.3244C85.4604 15.76 85.5604 15.828 85.6244 15.964L87.4604 20.368L89.3204 15.964C89.3764 15.828 89.4764 15.76 89.6204 15.76H90.1604ZM91.8867 22C91.8067 22 91.7387 21.976 91.6827 21.928C91.6347 21.872 91.6107 21.804 91.6107 21.724V16.036C91.6107 15.956 91.6347 15.892 91.6827 15.844C91.7387 15.788 91.8067 15.76 91.8867 15.76H96.6507C96.7307 15.76 96.7947 15.788 96.8427 15.844C96.8987 15.892 96.9267 15.956 96.9267 16.036V21.724C96.9267 21.804 96.8987 21.872 96.8427 21.928C96.7947 21.976 96.7307 22 96.6507 22H96.0747C95.9947 22 95.9307 21.976 95.8827 21.928C95.8347 21.872 95.8107 21.804 95.8107 21.724V16.72H92.7387V21.724C92.7387 21.804 92.7107 21.872 92.6547 21.928C92.6067 21.976 92.5427 22 92.4627 22H91.8867ZM98.9882 22C98.9082 22 98.8402 21.976 98.7842 21.928C98.7362 21.872 98.7122 21.804 98.7122 21.724V16.036C98.7122 15.956 98.7362 15.892 98.7842 15.844C98.8402 15.788 98.9082 15.76 98.9882 15.76H99.5642C99.6442 15.76 99.7082 15.788 99.7562 15.844C99.8122 15.892 99.8402 15.956 99.8402 16.036V18.34H103.104V16.036C103.104 15.956 103.128 15.892 103.176 15.844C103.232 15.788 103.3 15.76 103.38 15.76H103.944C104.024 15.76 104.088 15.788 104.136 15.844C104.192 15.892 104.22 15.956 104.22 16.036V21.724C104.22 21.804 104.192 21.872 104.136 21.928C104.088 21.976 104.024 22 103.944 22H103.38C103.3 22 103.232 21.976 103.176 21.928C103.128 21.872 103.104 21.804 103.104 21.724V19.3H99.8402V21.724C99.8402 21.804 99.8122 21.872 99.7562 21.928C99.7082 21.976 99.6442 22 99.5642 22H98.9882ZM108.581 22.12C107.701 22.12 107.017 21.872 106.529 21.376C106.049 20.88 105.793 20.22 105.761 19.396L105.749 18.88L105.761 18.364C105.793 17.548 106.053 16.892 106.541 16.396C107.029 15.892 107.709 15.64 108.581 15.64C109.453 15.64 110.133 15.892 110.621 16.396C111.109 16.892 111.369 17.548 111.401 18.364C111.409 18.452 111.413 18.624 111.413 18.88C111.413 19.136 111.409 19.308 111.401 19.396C111.369 20.22 111.109 20.88 110.621 21.376C110.141 21.872 109.461 22.12 108.581 22.12ZM108.581 21.196C109.085 21.196 109.481 21.036 109.769 20.716C110.065 20.396 110.225 19.936 110.249 19.336C110.257 19.256 110.261 19.104 110.261 18.88C110.261 18.656 110.257 18.504 110.249 18.424C110.225 17.824 110.065 17.364 109.769 17.044C109.481 16.724 109.085 16.564 108.581 16.564C108.077 16.564 107.677 16.724 107.381 17.044C107.085 17.364 106.929 17.824 106.913 18.424L106.901 18.88L106.913 19.336C106.929 19.936 107.085 20.396 107.381 20.716C107.677 21.036 108.077 21.196 108.581 21.196ZM116.133 22C116.053 22 115.985 21.976 115.929 21.928C115.881 21.872 115.857 21.804 115.857 21.724V16.036C115.857 15.956 115.881 15.892 115.929 15.844C115.985 15.788 116.053 15.76 116.133 15.76H118.629C119.365 15.76 119.925 15.912 120.309 16.216C120.701 16.512 120.897 16.92 120.897 17.44C120.897 17.784 120.833 18.052 120.705 18.244C120.577 18.428 120.381 18.588 120.117 18.724C120.405 18.844 120.629 19.044 120.789 19.324C120.957 19.604 121.041 19.904 121.041 20.224C121.041 20.8 120.837 21.24 120.429 21.544C120.029 21.848 119.461 22 118.725 22H116.133ZM118.557 18.412C118.949 18.412 119.257 18.328 119.481 18.16C119.705 17.992 119.817 17.756 119.817 17.452C119.817 17.156 119.709 16.948 119.493 16.828C119.277 16.7 118.965 16.636 118.557 16.636H116.961V18.412H118.557ZM118.629 21.124C119.029 21.124 119.341 21.048 119.565 20.896C119.797 20.744 119.913 20.52 119.913 20.224C119.913 19.904 119.809 19.672 119.601 19.528C119.393 19.376 119.069 19.3 118.629 19.3H116.961V21.124H118.629Z" fill="white"/>
<path d="M56.8 44C56.6933 44 56.6 43.96 56.52 43.88C56.44 43.8 56.4 43.7067 56.4 43.6C56.4 43.4933 56.4067 43.42 56.42 43.38L61.38 30.44C61.4867 30.1467 61.7 30 62.02 30H63.38C63.7 30 63.9133 30.1467 64.02 30.44L68.96 43.38L69 43.6C69 43.7067 68.96 43.8 68.88 43.88C68.8 43.96 68.7067 44 68.6 44H67.58C67.4333 44 67.32 43.9667 67.24 43.9C67.16 43.82 67.1067 43.74 67.08 43.66L65.98 40.82H59.42L58.32 43.66C58.2933 43.74 58.2333 43.82 58.14 43.9C58.06 43.9667 57.9533 44 57.82 44H56.8ZM65.4 39.1L62.7 32L60 39.1H65.4ZM71.3584 47.8C71.2251 47.8 71.1118 47.7533 71.0184 47.66C70.9384 47.58 70.8984 47.4733 70.8984 47.34V34.06C70.8984 33.9267 70.9384 33.82 71.0184 33.74C71.1118 33.6467 71.2251 33.6 71.3584 33.6H72.2784C72.4118 33.6 72.5184 33.6467 72.5984 33.74C72.6918 33.82 72.7384 33.9267 72.7384 34.06V34.94C73.4851 33.9133 74.5784 33.4 76.0184 33.4C77.4184 33.4 78.4651 33.84 79.1584 34.72C79.8651 35.6 80.2451 36.7333 80.2984 38.12C80.3118 38.2667 80.3184 38.4933 80.3184 38.8C80.3184 39.1067 80.3118 39.3333 80.2984 39.48C80.2451 40.8533 79.8651 41.9867 79.1584 42.88C78.4518 43.76 77.4051 44.2 76.0184 44.2C74.6318 44.2 73.5518 43.7 72.7784 42.7V47.34C72.7784 47.4733 72.7384 47.58 72.6584 47.66C72.5784 47.7533 72.4718 47.8 72.3384 47.8H71.3584ZM75.5984 42.58C76.5451 42.58 77.2318 42.2867 77.6584 41.7C78.0984 41.1133 78.3384 40.34 78.3784 39.38C78.3918 39.2467 78.3984 39.0533 78.3984 38.8C78.3984 36.28 77.4651 35.02 75.5984 35.02C74.6784 35.02 73.9851 35.3267 73.5184 35.94C73.0651 36.54 72.8184 37.26 72.7784 38.1L72.7584 38.86L72.7784 39.64C72.8051 40.4267 73.0584 41.1133 73.5384 41.7C74.0184 42.2867 74.7051 42.58 75.5984 42.58ZM83.2725 47.8C83.1392 47.8 83.0258 47.7533 82.9325 47.66C82.8525 47.58 82.8125 47.4733 82.8125 47.34V34.06C82.8125 33.9267 82.8525 33.82 82.9325 33.74C83.0258 33.6467 83.1392 33.6 83.2725 33.6H84.1925C84.3258 33.6 84.4325 33.6467 84.5125 33.74C84.6058 33.82 84.6525 33.9267 84.6525 34.06V34.94C85.3992 33.9133 86.4925 33.4 87.9325 33.4C89.3325 33.4 90.3792 33.84 91.0725 34.72C91.7792 35.6 92.1592 36.7333 92.2125 38.12C92.2258 38.2667 92.2325 38.4933 92.2325 38.8C92.2325 39.1067 92.2258 39.3333 92.2125 39.48C92.1592 40.8533 91.7792 41.9867 91.0725 42.88C90.3658 43.76 89.3192 44.2 87.9325 44.2C86.5458 44.2 85.4658 43.7 84.6925 42.7V47.34C84.6925 47.4733 84.6525 47.58 84.5725 47.66C84.4925 47.7533 84.3858 47.8 84.2525 47.8H83.2725ZM87.5125 42.58C88.4592 42.58 89.1458 42.2867 89.5725 41.7C90.0125 41.1133 90.2525 40.34 90.2925 39.38C90.3058 39.2467 90.3125 39.0533 90.3125 38.8C90.3125 36.28 89.3792 35.02 87.5125 35.02C86.5925 35.02 85.8992 35.3267 85.4325 35.94C84.9792 36.54 84.7325 37.26 84.6925 38.1L84.6725 38.86L84.6925 39.64C84.7192 40.4267 84.9725 41.1133 85.4525 41.7C85.9325 42.2867 86.6192 42.58 87.5125 42.58ZM99.4666 44.2C98.3599 44.2 97.3999 44.0267 96.5866 43.68C95.7866 43.3333 95.1732 42.88 94.7466 42.32C94.3199 41.7467 94.0932 41.1333 94.0666 40.48C94.0666 40.3733 94.1066 40.28 94.1866 40.2C94.2799 40.1067 94.3866 40.06 94.5066 40.06H95.5266C95.7799 40.06 95.9532 40.1933 96.0466 40.46C96.1666 41.02 96.5066 41.5 97.0666 41.9C97.6399 42.3 98.4399 42.5 99.4666 42.5C100.573 42.5 101.407 42.3067 101.967 41.92C102.527 41.52 102.807 40.9667 102.807 40.26C102.807 39.8067 102.667 39.44 102.387 39.16C102.12 38.88 101.72 38.6333 101.187 38.42C100.653 38.2067 99.8532 37.94 98.7866 37.62C97.7466 37.3267 96.9199 37.0133 96.3066 36.68C95.6932 36.3467 95.2332 35.9333 94.9266 35.44C94.6199 34.9467 94.4666 34.3267 94.4666 33.58C94.4666 32.86 94.6599 32.2133 95.0466 31.64C95.4466 31.0667 96.0132 30.62 96.7466 30.3C97.4799 29.9667 98.3532 29.8 99.3666 29.8C100.407 29.8 101.3 29.9867 102.047 30.36C102.793 30.72 103.36 31.18 103.747 31.74C104.133 32.3 104.34 32.86 104.367 33.42C104.367 33.5267 104.327 33.62 104.247 33.7C104.18 33.78 104.08 33.82 103.947 33.82H102.887C102.607 33.82 102.433 33.6933 102.367 33.44C102.287 32.88 101.973 32.42 101.427 32.06C100.88 31.6867 100.193 31.5 99.3666 31.5C98.4599 31.5 97.7466 31.6733 97.2266 32.02C96.7066 32.3667 96.4466 32.88 96.4466 33.56C96.4466 34.0133 96.5666 34.3867 96.8066 34.68C97.0599 34.9733 97.4399 35.2333 97.9466 35.46C98.4532 35.6733 99.1932 35.92 100.167 36.2C101.3 36.5067 102.193 36.8267 102.847 37.16C103.5 37.48 103.987 37.8867 104.307 38.38C104.627 38.86 104.787 39.4733 104.787 40.22C104.787 41.46 104.307 42.4333 103.347 43.14C102.387 43.8467 101.093 44.2 99.4666 44.2ZM111.208 44C109.101 44 108.048 42.8267 108.048 40.48V35.2H106.488C106.355 35.2 106.241 35.16 106.148 35.08C106.068 34.9867 106.028 34.8733 106.028 34.74V34.06C106.028 33.9267 106.068 33.82 106.148 33.74C106.241 33.6467 106.355 33.6 106.488 33.6H108.048V30.26C108.048 30.1267 108.088 30.02 108.168 29.94C108.261 29.8467 108.375 29.8 108.508 29.8H109.448C109.581 29.8 109.688 29.8467 109.768 29.94C109.861 30.02 109.908 30.1267 109.908 30.26V33.6H112.388C112.521 33.6 112.628 33.6467 112.708 33.74C112.801 33.82 112.848 33.9267 112.848 34.06V34.74C112.848 34.8733 112.801 34.9867 112.708 35.08C112.628 35.16 112.521 35.2 112.388 35.2H109.908V40.34C109.908 41.0067 110.021 41.5133 110.248 41.86C110.475 42.1933 110.848 42.36 111.368 42.36H112.588C112.721 42.36 112.828 42.4067 112.908 42.5C113.001 42.58 113.048 42.6867 113.048 42.82V43.54C113.048 43.6733 113.001 43.7867 112.908 43.88C112.828 43.96 112.721 44 112.588 44H111.208ZM119.22 44.2C117.754 44.2 116.614 43.7867 115.8 42.96C115 42.1333 114.574 41.0333 114.52 39.66L114.5 38.8L114.52 37.94C114.574 36.58 115.007 35.4867 115.82 34.66C116.634 33.82 117.767 33.4 119.22 33.4C120.674 33.4 121.807 33.82 122.62 34.66C123.434 35.4867 123.867 36.58 123.92 37.94C123.934 38.0867 123.94 38.3733 123.94 38.8C123.94 39.2267 123.934 39.5133 123.92 39.66C123.867 41.0333 123.434 42.1333 122.62 42.96C121.82 43.7867 120.687 44.2 119.22 44.2ZM119.22 42.66C120.06 42.66 120.72 42.3933 121.2 41.86C121.694 41.3267 121.96 40.56 122 39.56C122.014 39.4267 122.02 39.1733 122.02 38.8C122.02 38.4267 122.014 38.1733 122 38.04C121.96 37.04 121.694 36.2733 121.2 35.74C120.72 35.2067 120.06 34.94 119.22 34.94C118.38 34.94 117.714 35.2067 117.22 35.74C116.727 36.2733 116.467 37.04 116.44 38.04L116.42 38.8L116.44 39.56C116.467 40.56 116.727 41.3267 117.22 41.86C117.714 42.3933 118.38 42.66 119.22 42.66ZM126.905 44C126.772 44 126.658 43.96 126.565 43.88C126.485 43.7867 126.445 43.6733 126.445 43.54V34.08C126.445 33.9467 126.485 33.8333 126.565 33.74C126.658 33.6467 126.772 33.6 126.905 33.6H127.825C127.958 33.6 128.072 33.6467 128.165 33.74C128.258 33.8333 128.305 33.9467 128.305 34.08V34.96C128.852 34.0533 129.785 33.6 131.105 33.6H131.885C132.018 33.6 132.125 33.6467 132.205 33.74C132.298 33.82 132.345 33.9267 132.345 34.06V34.88C132.345 35.0133 132.298 35.12 132.205 35.2C132.125 35.28 132.018 35.32 131.885 35.32H130.685C129.965 35.32 129.398 35.5333 128.985 35.96C128.572 36.3733 128.365 36.94 128.365 37.66V43.54C128.365 43.6733 128.318 43.7867 128.225 43.88C128.132 43.96 128.018 44 127.885 44H126.905ZM138.007 44.2C136.634 44.2 135.534 43.78 134.707 42.94C133.894 42.0867 133.447 40.9267 133.367 39.46L133.347 38.78L133.367 38.12C133.461 36.68 133.914 35.5333 134.727 34.68C135.554 33.8267 136.641 33.4 137.987 33.4C139.467 33.4 140.614 33.8733 141.427 34.82C142.241 35.7533 142.647 37.02 142.647 38.62V38.96C142.647 39.0933 142.601 39.2067 142.507 39.3C142.427 39.38 142.321 39.42 142.187 39.42H135.267V39.6C135.307 40.4667 135.567 41.2067 136.047 41.82C136.541 42.42 137.187 42.72 137.987 42.72C138.601 42.72 139.101 42.6 139.487 42.36C139.887 42.1067 140.181 41.8467 140.367 41.58C140.487 41.42 140.574 41.3267 140.627 41.3C140.694 41.26 140.807 41.24 140.967 41.24H141.947C142.067 41.24 142.167 41.2733 142.247 41.34C142.327 41.4067 142.367 41.5 142.367 41.62C142.367 41.9133 142.181 42.2667 141.807 42.68C141.447 43.0933 140.934 43.4533 140.267 43.76C139.614 44.0533 138.861 44.2 138.007 44.2ZM140.747 38.04V37.98C140.747 37.06 140.494 36.3133 139.987 35.74C139.494 35.1533 138.827 34.86 137.987 34.86C137.147 34.86 136.481 35.1533 135.987 35.74C135.507 36.3133 135.267 37.06 135.267 37.98V38.04H140.747Z" fill="white"/>
<path d="M38.2784 44.2478C36.6415 46.6036 34.9059 48.9025 32.2632 48.9405C29.6204 48.9975 28.7724 47.4396 25.7747 47.4396C22.7572 47.4396 21.8303 48.9025 19.3256 48.9975C16.742 49.0925 14.7896 46.4896 13.1329 44.1908C9.76046 39.4981 7.17688 30.8537 10.6479 25.0401C12.3638 22.1523 15.4404 20.3284 18.7734 20.2714C21.2978 20.2334 23.7039 21.9243 25.2619 21.9243C26.8002 21.9243 29.7191 19.8914 32.776 20.1954C34.0579 20.2524 37.6473 20.6894 39.9547 23.9571C39.7772 24.0711 35.6751 26.389 35.7145 31.1957C35.7737 36.9333 40.9408 38.8521 41 38.8711C40.9408 39.0041 40.1717 41.607 38.2784 44.2478ZM27.0172 13.8498C28.4569 12.2729 30.8432 11.076 32.8154 11C33.0718 13.2229 32.1449 15.4647 30.7643 17.0606C29.4035 18.6755 27.1552 19.9294 24.9463 19.7584C24.6505 17.5736 25.7549 15.2937 27.0172 13.8498Z" fill="white"/>
</svg>
