<svg width="116" height="40" viewBox="0 0 116 40" fill="none" xmlns="http://www.w3.org/2000/svg">
<rect x="0.5" y="0.5" width="115" height="39" rx="4.5" stroke="white"/>
<path d="M25.5189 29.4986C24.4276 31.0691 23.2706 32.6017 21.5087 32.627C19.7469 32.665 19.1815 31.6264 17.1831 31.6264C15.1714 31.6264 14.5535 32.6017 12.8837 32.665C11.1613 32.7283 9.85964 30.9931 8.75521 29.4606C6.50691 26.3321 4.78453 20.5691 7.09857 16.6934C8.24244 14.7682 10.2935 13.5523 12.5155 13.5143C14.1985 13.4889 15.8025 14.6162 16.8412 14.6162C17.8667 14.6162 19.8126 13.261 21.8506 13.4636C22.7052 13.5016 25.0981 13.7929 26.6364 15.9715C26.5181 16.0474 23.7833 17.5927 23.8096 20.7971C23.8491 24.6222 27.2938 25.9015 27.3333 25.9141C27.2938 26.0028 26.7811 27.738 25.5189 29.4986ZM18.0114 9.23323C18.9712 8.18197 20.5621 7.38402 21.8769 7.33336C22.0478 8.81526 21.4298 10.3098 20.5095 11.3738C19.6023 12.4504 18.1034 13.2863 16.6308 13.1723C16.4336 11.7157 17.1699 10.1958 18.0114 9.23323Z" fill="white"/>
<path d="M45.48 24C45.416 24 45.36 23.976 45.312 23.928C45.264 23.88 45.24 23.824 45.24 23.76C45.24 23.696 45.244 23.652 45.252 23.628L48.228 15.864C48.292 15.688 48.42 15.6 48.612 15.6H49.428C49.62 15.6 49.748 15.688 49.812 15.864L52.776 23.628L52.8 23.76C52.8 23.824 52.776 23.88 52.728 23.928C52.68 23.976 52.624 24 52.56 24H51.948C51.86 24 51.792 23.98 51.744 23.94C51.696 23.892 51.664 23.844 51.648 23.796L50.988 22.092H47.052L46.392 23.796C46.376 23.844 46.34 23.892 46.284 23.94C46.236 23.98 46.172 24 46.092 24H45.48ZM50.64 21.06L49.02 16.8L47.4 21.06H50.64ZM54.2151 26.28C54.1351 26.28 54.0671 26.252 54.0111 26.196C53.9631 26.148 53.9391 26.084 53.9391 26.004V18.036C53.9391 17.956 53.9631 17.892 54.0111 17.844C54.0671 17.788 54.1351 17.76 54.2151 17.76H54.7671C54.8471 17.76 54.9111 17.788 54.9591 17.844C55.0151 17.892 55.0431 17.956 55.0431 18.036V18.564C55.4911 17.948 56.1471 17.64 57.0111 17.64C57.8511 17.64 58.4791 17.904 58.8951 18.432C59.3191 18.96 59.5471 19.64 59.5791 20.472C59.5871 20.56 59.5911 20.696 59.5911 20.88C59.5911 21.064 59.5871 21.2 59.5791 21.288C59.5471 22.112 59.3191 22.792 58.8951 23.328C58.4711 23.856 57.8431 24.12 57.0111 24.12C56.1791 24.12 55.5311 23.82 55.0671 23.22V26.004C55.0671 26.084 55.0431 26.148 54.9951 26.196C54.9471 26.252 54.8831 26.28 54.8031 26.28H54.2151ZM56.7591 23.148C57.3271 23.148 57.7391 22.972 57.9951 22.62C58.2591 22.268 58.4031 21.804 58.4271 21.228C58.4351 21.148 58.4391 21.032 58.4391 20.88C58.4391 19.368 57.8791 18.612 56.7591 18.612C56.2071 18.612 55.7911 18.796 55.5111 19.164C55.2391 19.524 55.0911 19.956 55.0671 20.46L55.0551 20.916L55.0671 21.384C55.0831 21.856 55.2351 22.268 55.5231 22.62C55.8111 22.972 56.2231 23.148 56.7591 23.148ZM61.3635 26.28C61.2835 26.28 61.2155 26.252 61.1595 26.196C61.1115 26.148 61.0875 26.084 61.0875 26.004V18.036C61.0875 17.956 61.1115 17.892 61.1595 17.844C61.2155 17.788 61.2835 17.76 61.3635 17.76H61.9155C61.9955 17.76 62.0595 17.788 62.1075 17.844C62.1635 17.892 62.1915 17.956 62.1915 18.036V18.564C62.6395 17.948 63.2955 17.64 64.1595 17.64C64.9995 17.64 65.6275 17.904 66.0435 18.432C66.4675 18.96 66.6955 19.64 66.7275 20.472C66.7355 20.56 66.7395 20.696 66.7395 20.88C66.7395 21.064 66.7355 21.2 66.7275 21.288C66.6955 22.112 66.4675 22.792 66.0435 23.328C65.6195 23.856 64.9915 24.12 64.1595 24.12C63.3275 24.12 62.6795 23.82 62.2155 23.22V26.004C62.2155 26.084 62.1915 26.148 62.1435 26.196C62.0955 26.252 62.0315 26.28 61.9515 26.28H61.3635ZM63.9075 23.148C64.4755 23.148 64.8875 22.972 65.1435 22.62C65.4075 22.268 65.5515 21.804 65.5755 21.228C65.5835 21.148 65.5875 21.032 65.5875 20.88C65.5875 19.368 65.0275 18.612 63.9075 18.612C63.3555 18.612 62.9395 18.796 62.6595 19.164C62.3875 19.524 62.2395 19.956 62.2155 20.46L62.2035 20.916L62.2155 21.384C62.2315 21.856 62.3835 22.268 62.6715 22.62C62.9595 22.972 63.3715 23.148 63.9075 23.148ZM71.0799 24.12C70.4159 24.12 69.8399 24.016 69.3519 23.808C68.8719 23.6 68.5039 23.328 68.2479 22.992C67.9919 22.648 67.8559 22.28 67.8399 21.888C67.8399 21.824 67.8639 21.768 67.9119 21.72C67.9679 21.664 68.0319 21.636 68.1039 21.636H68.7159C68.8679 21.636 68.9719 21.716 69.0279 21.876C69.0999 22.212 69.3039 22.5 69.6399 22.74C69.9839 22.98 70.4639 23.1 71.0799 23.1C71.7439 23.1 72.2439 22.984 72.5799 22.752C72.9159 22.512 73.0839 22.18 73.0839 21.756C73.0839 21.484 72.9999 21.264 72.8319 21.096C72.6719 20.928 72.4319 20.78 72.1119 20.652C71.7919 20.524 71.3119 20.364 70.6719 20.172C70.0479 19.996 69.5519 19.808 69.1839 19.608C68.8159 19.408 68.5399 19.16 68.3559 18.864C68.1719 18.568 68.0799 18.196 68.0799 17.748C68.0799 17.316 68.1959 16.928 68.4279 16.584C68.6679 16.24 69.0079 15.972 69.4479 15.78C69.8879 15.58 70.4119 15.48 71.0199 15.48C71.6439 15.48 72.1799 15.592 72.6279 15.816C73.0759 16.032 73.4159 16.308 73.6479 16.644C73.8799 16.98 74.0039 17.316 74.0199 17.652C74.0199 17.716 73.9959 17.772 73.9479 17.82C73.9079 17.868 73.8479 17.892 73.7679 17.892H73.1319C72.9639 17.892 72.8599 17.816 72.8199 17.664C72.7719 17.328 72.5839 17.052 72.2559 16.836C71.9279 16.612 71.5159 16.5 71.0199 16.5C70.4759 16.5 70.0479 16.604 69.7359 16.812C69.4239 17.02 69.2679 17.328 69.2679 17.736C69.2679 18.008 69.3399 18.232 69.4839 18.408C69.6359 18.584 69.8639 18.74 70.1679 18.876C70.4719 19.004 70.9159 19.152 71.4999 19.32C72.1799 19.504 72.7159 19.696 73.1079 19.896C73.4999 20.088 73.7919 20.332 73.9839 20.628C74.1759 20.916 74.2719 21.284 74.2719 21.732C74.2719 22.476 73.9839 23.06 73.4079 23.484C72.8319 23.908 72.0559 24.12 71.0799 24.12ZM78.1248 24C76.8608 24 76.2288 23.296 76.2288 21.888V18.72H75.2928C75.2128 18.72 75.1448 18.696 75.0888 18.648C75.0408 18.592 75.0168 18.524 75.0168 18.444V18.036C75.0168 17.956 75.0408 17.892 75.0888 17.844C75.1448 17.788 75.2128 17.76 75.2928 17.76H76.2288V15.756C76.2288 15.676 76.2528 15.612 76.3008 15.564C76.3568 15.508 76.4248 15.48 76.5048 15.48H77.0688C77.1488 15.48 77.2128 15.508 77.2608 15.564C77.3168 15.612 77.3448 15.676 77.3448 15.756V17.76H78.8328C78.9128 17.76 78.9768 17.788 79.0248 17.844C79.0808 17.892 79.1088 17.956 79.1088 18.036V18.444C79.1088 18.524 79.0808 18.592 79.0248 18.648C78.9768 18.696 78.9128 18.72 78.8328 18.72H77.3448V21.804C77.3448 22.204 77.4128 22.508 77.5488 22.716C77.6848 22.916 77.9088 23.016 78.2208 23.016H78.9528C79.0328 23.016 79.0968 23.044 79.1448 23.1C79.2008 23.148 79.2288 23.212 79.2288 23.292V23.724C79.2288 23.804 79.2008 23.872 79.1448 23.928C79.0968 23.976 79.0328 24 78.9528 24H78.1248ZM82.9323 24.12C82.0523 24.12 81.3683 23.872 80.8803 23.376C80.4003 22.88 80.1443 22.22 80.1123 21.396L80.1003 20.88L80.1123 20.364C80.1443 19.548 80.4043 18.892 80.8923 18.396C81.3803 17.892 82.0603 17.64 82.9323 17.64C83.8043 17.64 84.4843 17.892 84.9723 18.396C85.4603 18.892 85.7203 19.548 85.7523 20.364C85.7603 20.452 85.7643 20.624 85.7643 20.88C85.7643 21.136 85.7603 21.308 85.7523 21.396C85.7203 22.22 85.4603 22.88 84.9723 23.376C84.4923 23.872 83.8123 24.12 82.9323 24.12ZM82.9323 23.196C83.4363 23.196 83.8323 23.036 84.1203 22.716C84.4163 22.396 84.5763 21.936 84.6003 21.336C84.6083 21.256 84.6123 21.104 84.6123 20.88C84.6123 20.656 84.6083 20.504 84.6003 20.424C84.5763 19.824 84.4163 19.364 84.1203 19.044C83.8323 18.724 83.4363 18.564 82.9323 18.564C82.4283 18.564 82.0283 18.724 81.7323 19.044C81.4363 19.364 81.2803 19.824 81.2643 20.424L81.2523 20.88L81.2643 21.336C81.2803 21.936 81.4363 22.396 81.7323 22.716C82.0283 23.036 82.4283 23.196 82.9323 23.196ZM87.5429 24C87.4629 24 87.3949 23.976 87.3389 23.928C87.2909 23.872 87.2669 23.804 87.2669 23.724V18.048C87.2669 17.968 87.2909 17.9 87.3389 17.844C87.3949 17.788 87.4629 17.76 87.5429 17.76H88.0949C88.1749 17.76 88.2429 17.788 88.2989 17.844C88.3549 17.9 88.3829 17.968 88.3829 18.048V18.576C88.7109 18.032 89.2709 17.76 90.0629 17.76H90.5309C90.6109 17.76 90.6749 17.788 90.7229 17.844C90.7789 17.892 90.8069 17.956 90.8069 18.036V18.528C90.8069 18.608 90.7789 18.672 90.7229 18.72C90.6749 18.768 90.6109 18.792 90.5309 18.792H89.8109C89.3789 18.792 89.0389 18.92 88.7909 19.176C88.5429 19.424 88.4189 19.764 88.4189 20.196V23.724C88.4189 23.804 88.3909 23.872 88.3349 23.928C88.2789 23.976 88.2109 24 88.1309 24H87.5429ZM94.2043 24.12C93.3803 24.12 92.7203 23.868 92.2243 23.364C91.7363 22.852 91.4683 22.156 91.4203 21.276L91.4083 20.868L91.4203 20.472C91.4763 19.608 91.7483 18.92 92.2363 18.408C92.7323 17.896 93.3843 17.64 94.1923 17.64C95.0803 17.64 95.7683 17.924 96.2563 18.492C96.7443 19.052 96.9883 19.812 96.9883 20.772V20.976C96.9883 21.056 96.9603 21.124 96.9043 21.18C96.8563 21.228 96.7923 21.252 96.7123 21.252H92.5603V21.36C92.5843 21.88 92.7403 22.324 93.0283 22.692C93.3243 23.052 93.7123 23.232 94.1923 23.232C94.5603 23.232 94.8603 23.16 95.0923 23.016C95.3323 22.864 95.5083 22.708 95.6203 22.548C95.6923 22.452 95.7443 22.396 95.7763 22.38C95.8163 22.356 95.8843 22.344 95.9803 22.344H96.5683C96.6403 22.344 96.7003 22.364 96.7483 22.404C96.7963 22.444 96.8203 22.5 96.8203 22.572C96.8203 22.748 96.7083 22.96 96.4843 23.208C96.2683 23.456 95.9603 23.672 95.5603 23.856C95.1683 24.032 94.7163 24.12 94.2043 24.12ZM95.8483 20.424V20.388C95.8483 19.836 95.6963 19.388 95.3923 19.044C95.0963 18.692 94.6963 18.516 94.1923 18.516C93.6883 18.516 93.2883 18.692 92.9923 19.044C92.7043 19.388 92.5603 19.836 92.5603 20.388V20.424H95.8483Z" fill="white"/>
</svg>
