<svg width="116" height="40" viewBox="0 0 116 40" fill="none" xmlns="http://www.w3.org/2000/svg">
<rect x="0.5" y="0.5" width="115" height="39" rx="4.5" stroke="white"/>
<path d="M47.104 24.12C46.056 24.12 45.24 23.836 44.656 23.268C44.08 22.692 43.772 21.908 43.732 20.916C43.724 20.676 43.72 20.3 43.72 19.788C43.72 19.268 43.724 18.892 43.732 18.66C43.772 17.676 44.084 16.9 44.668 16.332C45.252 15.764 46.064 15.48 47.104 15.48C47.808 15.48 48.404 15.608 48.892 15.864C49.388 16.112 49.76 16.416 50.008 16.776C50.256 17.136 50.388 17.472 50.404 17.784V17.808C50.404 17.872 50.38 17.924 50.332 17.964C50.284 18.004 50.224 18.024 50.152 18.024H49.444C49.364 18.024 49.304 18.012 49.264 17.988C49.232 17.956 49.2 17.896 49.168 17.808C49.048 17.448 48.816 17.14 48.472 16.884C48.136 16.628 47.68 16.5 47.104 16.5C46.44 16.5 45.92 16.68 45.544 17.04C45.168 17.4 44.964 17.96 44.932 18.72C44.924 18.952 44.92 19.308 44.92 19.788C44.92 20.26 44.924 20.616 44.932 20.856C44.964 21.624 45.168 22.192 45.544 22.56C45.92 22.92 46.44 23.1 47.104 23.1C47.776 23.1 48.312 22.916 48.712 22.548C49.112 22.18 49.312 21.628 49.312 20.892V20.388H47.512C47.432 20.388 47.364 20.364 47.308 20.316C47.26 20.26 47.236 20.188 47.236 20.1V19.716C47.236 19.636 47.26 19.568 47.308 19.512C47.364 19.456 47.432 19.428 47.512 19.428H50.224C50.304 19.428 50.368 19.456 50.416 19.512C50.472 19.56 50.5 19.628 50.5 19.716V20.868C50.5 21.524 50.364 22.096 50.092 22.584C49.82 23.072 49.428 23.452 48.916 23.724C48.404 23.988 47.8 24.12 47.104 24.12ZM54.612 24.12C53.732 24.12 53.048 23.872 52.56 23.376C52.08 22.88 51.824 22.22 51.792 21.396L51.78 20.88L51.792 20.364C51.824 19.548 52.084 18.892 52.572 18.396C53.06 17.892 53.74 17.64 54.612 17.64C55.484 17.64 56.164 17.892 56.652 18.396C57.14 18.892 57.4 19.548 57.432 20.364C57.44 20.452 57.444 20.624 57.444 20.88C57.444 21.136 57.44 21.308 57.432 21.396C57.4 22.22 57.14 22.88 56.652 23.376C56.172 23.872 55.492 24.12 54.612 24.12ZM54.612 23.196C55.116 23.196 55.512 23.036 55.8 22.716C56.096 22.396 56.256 21.936 56.28 21.336C56.288 21.256 56.292 21.104 56.292 20.88C56.292 20.656 56.288 20.504 56.28 20.424C56.256 19.824 56.096 19.364 55.8 19.044C55.512 18.724 55.116 18.564 54.612 18.564C54.108 18.564 53.708 18.724 53.412 19.044C53.116 19.364 52.96 19.824 52.944 20.424L52.932 20.88L52.944 21.336C52.96 21.936 53.116 22.396 53.412 22.716C53.708 23.036 54.108 23.196 54.612 23.196ZM61.5026 24.12C60.6226 24.12 59.9386 23.872 59.4506 23.376C58.9706 22.88 58.7146 22.22 58.6826 21.396L58.6706 20.88L58.6826 20.364C58.7146 19.548 58.9746 18.892 59.4626 18.396C59.9506 17.892 60.6306 17.64 61.5026 17.64C62.3746 17.64 63.0546 17.892 63.5426 18.396C64.0306 18.892 64.2906 19.548 64.3226 20.364C64.3306 20.452 64.3346 20.624 64.3346 20.88C64.3346 21.136 64.3306 21.308 64.3226 21.396C64.2906 22.22 64.0306 22.88 63.5426 23.376C63.0626 23.872 62.3826 24.12 61.5026 24.12ZM61.5026 23.196C62.0066 23.196 62.4026 23.036 62.6906 22.716C62.9866 22.396 63.1466 21.936 63.1706 21.336C63.1786 21.256 63.1826 21.104 63.1826 20.88C63.1826 20.656 63.1786 20.504 63.1706 20.424C63.1466 19.824 62.9866 19.364 62.6906 19.044C62.4026 18.724 62.0066 18.564 61.5026 18.564C60.9986 18.564 60.5986 18.724 60.3026 19.044C60.0066 19.364 59.8506 19.824 59.8346 20.424L59.8226 20.88L59.8346 21.336C59.8506 21.936 60.0066 22.396 60.3026 22.716C60.5986 23.036 60.9986 23.196 61.5026 23.196ZM68.3932 26.64C67.7372 26.64 67.2092 26.528 66.8092 26.304C66.4092 26.088 66.1252 25.84 65.9572 25.56C65.7892 25.28 65.6972 25.028 65.6812 24.804C65.6732 24.724 65.6972 24.656 65.7532 24.6C65.8172 24.544 65.8852 24.516 65.9572 24.516H66.5332C66.6052 24.516 66.6652 24.532 66.7132 24.564C66.7612 24.604 66.8012 24.672 66.8332 24.768C66.9292 25.024 67.0852 25.244 67.3012 25.428C67.5252 25.62 67.8692 25.716 68.3332 25.716C68.9252 25.716 69.3612 25.588 69.6412 25.332C69.9212 25.084 70.0612 24.64 70.0612 24V23.184C69.8532 23.448 69.5892 23.66 69.2692 23.82C68.9492 23.972 68.5692 24.048 68.1292 24.048C67.2812 24.048 66.6452 23.78 66.2212 23.244C65.8052 22.7 65.5852 22.012 65.5612 21.18L65.5492 20.844L65.5612 20.52C65.5852 19.696 65.8092 19.012 66.2332 18.468C66.6572 17.916 67.2892 17.64 68.1292 17.64C68.9692 17.64 69.6252 17.948 70.0972 18.564V18.048C70.0972 17.968 70.1212 17.9 70.1692 17.844C70.2252 17.788 70.2932 17.76 70.3732 17.76H70.9252C71.0052 17.76 71.0732 17.788 71.1292 17.844C71.1852 17.9 71.2132 17.968 71.2132 18.048V23.868C71.2132 25.716 70.2732 26.64 68.3932 26.64ZM68.3692 23.088C68.9132 23.088 69.3252 22.908 69.6052 22.548C69.8852 22.188 70.0372 21.76 70.0612 21.264C70.0692 21.192 70.0732 21.052 70.0732 20.844C70.0732 20.644 70.0692 20.508 70.0612 20.436C70.0372 19.94 69.8852 19.512 69.6052 19.152C69.3332 18.792 68.9212 18.612 68.3692 18.612C67.8012 18.612 67.3892 18.788 67.1332 19.14C66.8772 19.492 66.7372 19.956 66.7132 20.532L66.7012 20.844L66.7132 21.168C66.7372 21.736 66.8772 22.2 67.1332 22.56C67.3892 22.912 67.8012 23.088 68.3692 23.088ZM73.2854 24C73.2054 24 73.1374 23.976 73.0814 23.928C73.0334 23.872 73.0094 23.804 73.0094 23.724V15.756C73.0094 15.676 73.0334 15.612 73.0814 15.564C73.1374 15.508 73.2054 15.48 73.2854 15.48H73.8494C73.9294 15.48 73.9934 15.508 74.0414 15.564C74.0974 15.612 74.1254 15.676 74.1254 15.756V23.724C74.1254 23.804 74.0974 23.872 74.0414 23.928C73.9934 23.976 73.9294 24 73.8494 24H73.2854ZM78.4113 24.12C77.5873 24.12 76.9273 23.868 76.4313 23.364C75.9433 22.852 75.6753 22.156 75.6273 21.276L75.6153 20.868L75.6273 20.472C75.6833 19.608 75.9553 18.92 76.4433 18.408C76.9393 17.896 77.5913 17.64 78.3993 17.64C79.2873 17.64 79.9753 17.924 80.4633 18.492C80.9513 19.052 81.1953 19.812 81.1953 20.772V20.976C81.1953 21.056 81.1673 21.124 81.1113 21.18C81.0633 21.228 80.9993 21.252 80.9193 21.252H76.7673V21.36C76.7913 21.88 76.9473 22.324 77.2353 22.692C77.5313 23.052 77.9193 23.232 78.3993 23.232C78.7673 23.232 79.0673 23.16 79.2993 23.016C79.5393 22.864 79.7153 22.708 79.8273 22.548C79.8993 22.452 79.9513 22.396 79.9833 22.38C80.0233 22.356 80.0913 22.344 80.1873 22.344H80.7753C80.8473 22.344 80.9073 22.364 80.9553 22.404C81.0033 22.444 81.0273 22.5 81.0273 22.572C81.0273 22.748 80.9153 22.96 80.6913 23.208C80.4753 23.456 80.1673 23.672 79.7673 23.856C79.3753 24.032 78.9233 24.12 78.4113 24.12ZM80.0553 20.424V20.388C80.0553 19.836 79.9033 19.388 79.5993 19.044C79.3033 18.692 78.9033 18.516 78.3993 18.516C77.8953 18.516 77.4953 18.692 77.1993 19.044C76.9113 19.388 76.7673 19.836 76.7673 20.388V20.424H80.0553ZM83.0622 24C82.9822 24 82.9142 23.976 82.8582 23.928C82.8102 23.872 82.7862 23.804 82.7862 23.724V15.888C82.7862 15.8 82.8102 15.732 82.8582 15.684C82.9142 15.628 82.9822 15.6 83.0622 15.6H86.1102C87.0142 15.6 87.7262 15.82 88.2462 16.26C88.7662 16.7 89.0262 17.336 89.0262 18.168C89.0262 19 88.7662 19.636 88.2462 20.076C87.7342 20.508 87.0222 20.724 86.1102 20.724H83.9862V23.724C83.9862 23.804 83.9582 23.872 83.9022 23.928C83.8462 23.976 83.7782 24 83.6982 24H83.0622ZM86.0502 19.716C86.6342 19.716 87.0742 19.584 87.3702 19.32C87.6742 19.056 87.8262 18.672 87.8262 18.168C87.8262 17.664 87.6782 17.28 87.3822 17.016C87.0862 16.744 86.6422 16.608 86.0502 16.608H83.9742V19.716H86.0502ZM90.6174 24C90.5374 24 90.4694 23.976 90.4134 23.928C90.3654 23.872 90.3414 23.804 90.3414 23.724V15.756C90.3414 15.676 90.3654 15.612 90.4134 15.564C90.4694 15.508 90.5374 15.48 90.6174 15.48H91.1814C91.2614 15.48 91.3254 15.508 91.3734 15.564C91.4294 15.612 91.4574 15.676 91.4574 15.756V23.724C91.4574 23.804 91.4294 23.872 91.3734 23.928C91.3254 23.976 91.2614 24 91.1814 24H90.6174ZM94.9874 24.12C94.5954 24.12 94.2314 24.04 93.8954 23.88C93.5594 23.72 93.2914 23.504 93.0914 23.232C92.8994 22.952 92.8034 22.644 92.8034 22.308C92.8034 21.78 93.0194 21.348 93.4514 21.012C93.8914 20.668 94.4834 20.444 95.2274 20.34L97.0154 20.088V19.74C97.0154 18.924 96.5474 18.516 95.6114 18.516C95.2594 18.516 94.9714 18.592 94.7474 18.744C94.5234 18.888 94.3554 19.06 94.2434 19.26C94.2194 19.332 94.1874 19.384 94.1474 19.416C94.1154 19.448 94.0674 19.464 94.0034 19.464H93.4874C93.4154 19.464 93.3514 19.44 93.2954 19.392C93.2474 19.336 93.2234 19.272 93.2234 19.2C93.2314 19.008 93.3194 18.792 93.4874 18.552C93.6634 18.304 93.9314 18.092 94.2914 17.916C94.6514 17.732 95.0954 17.64 95.6234 17.64C96.5194 17.64 97.1634 17.852 97.5554 18.276C97.9474 18.692 98.1434 19.212 98.1434 19.836V23.724C98.1434 23.804 98.1154 23.872 98.0594 23.928C98.0114 23.976 97.9474 24 97.8674 24H97.3154C97.2354 24 97.1674 23.976 97.1114 23.928C97.0634 23.872 97.0394 23.804 97.0394 23.724V23.208C96.8634 23.464 96.6074 23.68 96.2714 23.856C95.9354 24.032 95.5074 24.12 94.9874 24.12ZM95.2394 23.22C95.7594 23.22 96.1834 23.052 96.5114 22.716C96.8474 22.372 97.0154 21.88 97.0154 21.24V20.904L95.6234 21.108C95.0554 21.188 94.6274 21.324 94.3394 21.516C94.0514 21.7 93.9074 21.936 93.9074 22.224C93.9074 22.544 94.0394 22.792 94.3034 22.968C94.5674 23.136 94.8794 23.22 95.2394 23.22ZM100.832 26.28C100.768 26.28 100.712 26.256 100.664 26.208C100.616 26.16 100.592 26.104 100.592 26.04C100.592 25.984 100.612 25.912 100.652 25.824L101.576 23.628L99.2836 18.216C99.2436 18.112 99.2236 18.044 99.2236 18.012C99.2236 17.94 99.2476 17.88 99.2956 17.832C99.3436 17.784 99.4036 17.76 99.4756 17.76H100.064C100.192 17.76 100.288 17.828 100.352 17.964L102.176 22.332L104.048 17.964C104.112 17.828 104.212 17.76 104.348 17.76H104.912C104.984 17.76 105.044 17.784 105.092 17.832C105.14 17.88 105.164 17.936 105.164 18C105.164 18.024 105.144 18.096 105.104 18.216L101.696 26.076C101.632 26.212 101.532 26.28 101.396 26.28H100.832Z" fill="white"/>
<path d="M8 30.5942V8.73581C8 7.9772 8.43128 7.30859 9.06552 7L21.5601 19.665L9.06552 32.33C8.43128 32.0086 8 31.3528 8 30.5942ZM25.5177 23.6767L11.8689 31.6742L22.6383 20.7579L25.5177 23.6767ZM29.7672 18.1349C30.1984 18.4821 30.5156 19.0221 30.5156 19.665C30.5156 20.3079 30.2365 20.8222 29.7925 21.1822L26.8877 22.8795L23.7165 19.665L26.8877 16.4505L29.7672 18.1349ZM11.8689 7.65575L25.5177 15.6533L22.6383 18.5721L11.8689 7.65575Z" fill="white"/>
</svg>
