<svg width="25" height="25" viewBox="0 0 25 25" fill="none" xmlns="http://www.w3.org/2000/svg">
<path d="M20.7059 7.93833C20.828 7.52579 20.7059 7.22217 20.1185 7.22217H18.1746C17.6796 7.22217 17.4519 7.48289 17.3298 7.77331C17.3298 7.77331 16.3397 10.1858 14.9404 11.7501C14.4882 12.2023 14.2803 12.3475 14.0328 12.3475C13.9107 12.3475 13.7226 12.2023 13.7226 11.7897V7.93833C13.7226 7.44329 13.5839 7.22217 13.1747 7.22217H10.1187C9.80844 7.22217 9.62362 7.45319 9.62362 7.6677C9.62362 8.13634 10.3233 8.24525 10.3959 9.56536V12.43C10.3959 13.057 10.2837 13.1726 10.0362 13.1726C9.3761 13.1726 7.77217 10.7502 6.8217 7.97793C6.63028 7.43999 6.44217 7.22217 5.94383 7.22217H3.99997C3.44552 7.22217 3.33331 7.48289 3.33331 7.77331C3.33331 8.28815 3.99337 10.8459 6.40586 14.2253C8.01309 16.5322 10.2771 17.783 12.3364 17.783C13.574 17.783 13.7259 17.5058 13.7259 17.0273C13.7259 14.8227 13.6136 14.6148 14.2341 14.6148C14.5212 14.6148 15.0163 14.76 16.1714 15.8722C17.4915 17.1923 17.7093 17.783 18.4485 17.783H20.3924C20.9468 17.783 21.2274 17.5058 21.0657 16.958C20.696 15.8062 18.1977 13.4366 18.0855 13.2782C17.7984 12.9085 17.8809 12.7435 18.0855 12.4135C18.0888 12.4102 20.4617 9.07032 20.7059 7.93833Z" fill="white"/>
<path fill-rule="evenodd" clip-rule="evenodd" d="M0 3.33333C0 1.49238 1.49238 0 3.33333 0H21.6667C23.5076 0 25 1.49238 25 3.33333V21.6667C25 23.5076 23.5076 25 21.6667 25H3.33333C1.49238 25 0 23.5076 0 21.6667V3.33333ZM3.33333 1.11111C2.10603 1.11111 1.11111 2.10603 1.11111 3.33333V21.6667C1.11111 22.894 2.10603 23.8889 3.33333 23.8889H21.6667C22.894 23.8889 23.8889 22.894 23.8889 21.6667V3.33333C23.8889 2.10603 22.894 1.11111 21.6667 1.11111H3.33333Z" fill="white"/>
</svg>
