<svg width="25" height="25" viewBox="0 0 25 25" fill="none" xmlns="http://www.w3.org/2000/svg">
<path d="M12.2242 8.21884C9.70178 8.21884 7.6672 10.2534 7.6672 12.7758C7.6672 15.2982 9.70178 17.3328 12.2242 17.3328C14.7466 17.3328 16.7812 15.2982 16.7812 12.7758C16.7812 10.2534 14.7466 8.21884 12.2242 8.21884ZM12.2242 15.7385C10.5941 15.7385 9.26155 14.4098 9.26155 12.7758C9.26155 11.1418 10.5902 9.81319 12.2242 9.81319C13.8582 9.81319 15.1868 11.1418 15.1868 12.7758C15.1868 14.4098 13.8542 15.7385 12.2242 15.7385ZM18.0305 8.03244C18.0305 8.62338 17.5545 9.09534 16.9676 9.09534C16.3766 9.09534 15.9047 8.61941 15.9047 8.03244C15.9047 7.44546 16.3806 6.96954 16.9676 6.96954C17.5545 6.96954 18.0305 7.44546 18.0305 8.03244ZM21.0486 9.1112C20.9812 7.68739 20.656 6.42619 19.6129 5.38709C18.5738 4.34799 17.3126 4.02277 15.8888 3.95138C14.4214 3.86809 10.023 3.86809 8.5556 3.95138C7.13575 4.0188 5.87455 4.34402 4.83149 5.38312C3.78842 6.42222 3.46717 7.68343 3.39578 9.10723C3.31249 10.5747 3.31249 14.973 3.39578 16.4404C3.4632 17.8643 3.78842 19.1255 4.83149 20.1646C5.87455 21.2037 7.13179 21.5289 8.5556 21.6003C10.023 21.6836 14.4214 21.6836 15.8888 21.6003C17.3126 21.5328 18.5738 21.2076 19.6129 20.1646C20.652 19.1255 20.9772 17.8643 21.0486 16.4404C21.1319 14.973 21.1319 10.5786 21.0486 9.1112ZM19.1529 18.015C18.8435 18.7923 18.2446 19.3912 17.4633 19.7045C16.2933 20.1685 13.5171 20.0614 12.2242 20.0614C10.9313 20.0614 8.15106 20.1646 6.98504 19.7045C6.2077 19.3951 5.60883 18.7963 5.29551 18.015C4.83149 16.845 4.93857 14.0688 4.93857 12.7758C4.93857 11.4829 4.83545 8.7027 5.29551 7.53668C5.60486 6.75934 6.20373 6.16047 6.98504 5.84715C8.15503 5.38312 10.9313 5.49021 12.2242 5.49021C13.5171 5.49021 16.2973 5.38709 17.4633 5.84715C18.2407 6.1565 18.8395 6.75537 19.1529 7.53668C19.6169 8.70667 19.5098 11.4829 19.5098 12.7758C19.5098 14.0688 19.6169 16.8489 19.1529 18.015Z" fill="white"/>
<path fill-rule="evenodd" clip-rule="evenodd" d="M0 3.33333C0 1.49238 1.49238 0 3.33333 0H21.6667C23.5076 0 25 1.49238 25 3.33333V21.6667C25 23.5076 23.5076 25 21.6667 25H3.33333C1.49238 25 0 23.5076 0 21.6667V3.33333ZM3.33333 1.11111C2.10603 1.11111 1.11111 2.10603 1.11111 3.33333V21.6667C1.11111 22.894 2.10603 23.8889 3.33333 23.8889H21.6667C22.894 23.8889 23.8889 22.894 23.8889 21.6667V3.33333C23.8889 2.10603 22.894 1.11111 21.6667 1.11111H3.33333Z" fill="white"/>
</svg>
