<svg width="25" height="25" viewBox="0 0 25 25" fill="none" xmlns="http://www.w3.org/2000/svg">
<path d="M16.5611 15.4825C15.61 16.0865 14.3014 16.326 13.4371 16.4163L14.1626 17.1313L16.811 19.7798C17.7795 20.7725 16.2036 22.3241 15.2247 21.3661C14.5617 20.6927 13.5898 19.7208 12.5762 18.7072L9.92776 21.3626C8.9489 22.3172 7.373 20.7517 8.35186 19.7763C9.02526 19.1029 9.98677 18.131 11.0003 17.1279L11.7154 16.4128C10.8615 16.3225 9.53205 16.0969 8.57054 15.4791C7.43895 14.7501 6.94258 14.3232 7.37994 13.4311C7.63681 12.9243 8.34145 12.4973 9.27519 13.2332C9.27519 13.2332 10.5352 14.2364 12.5693 14.2364C14.6034 14.2364 15.8634 13.2332 15.8634 13.2332C16.7971 12.5008 17.4983 12.9243 17.7587 13.4311C18.1891 14.3232 17.6927 14.7501 16.5611 15.4825ZM8.06376 8.39099C8.06376 5.90218 10.0874 3.88892 12.5658 3.88892C15.0442 3.88892 17.0679 5.90218 17.0679 8.39099C17.0679 10.8694 15.0442 12.8826 12.5658 12.8826C10.0874 12.8826 8.06376 10.8694 8.06376 8.39099V8.39099ZM10.3547 8.39099C10.3547 9.60936 11.3475 10.6021 12.5658 10.6021C13.7842 10.6021 14.7769 9.60936 14.7769 8.39099C14.7769 7.1622 13.7842 6.16946 12.5658 6.16946C11.3475 6.16946 10.3547 7.1622 10.3547 8.39099Z" fill="white"/>
<path fill-rule="evenodd" clip-rule="evenodd" d="M0 3.33333C0 1.49238 1.49238 0 3.33333 0H21.6667C23.5076 0 25 1.49238 25 3.33333V21.6667C25 23.5076 23.5076 25 21.6667 25H3.33333C1.49238 25 0 23.5076 0 21.6667V3.33333ZM3.33333 1.11111C2.10603 1.11111 1.11111 2.10603 1.11111 3.33333V21.6667C1.11111 22.894 2.10603 23.8889 3.33333 23.8889H21.6667C22.894 23.8889 23.8889 22.894 23.8889 21.6667V3.33333C23.8889 2.10603 22.894 1.11111 21.6667 1.11111H3.33333Z" fill="white"/>
</svg>
