<svg width="25" height="25" viewBox="0 0 25 25" fill="none" xmlns="http://www.w3.org/2000/svg">
<path d="M12.8218 3.88892C9.16732 3.88892 5.55554 6.32526 5.55554 10.2683C5.55554 12.7759 6.96606 14.2007 7.82092 14.2007C8.17355 14.2007 8.37658 13.2176 8.37658 12.9397C8.37658 12.6085 7.5324 11.9032 7.5324 10.5248C7.5324 7.66098 9.71229 5.63069 12.5333 5.63069C14.959 5.63069 16.7542 7.00915 16.7542 9.54167C16.7542 11.433 15.9955 14.9807 13.5378 14.9807C12.6509 14.9807 11.8922 14.3396 11.8922 13.4206C11.8922 12.0742 12.8325 10.7705 12.8325 9.38138C12.8325 7.0234 9.48789 7.45083 9.48789 10.3004C9.48789 10.8988 9.56269 11.5613 9.82984 12.1062C9.33829 14.222 8.33383 17.3743 8.33383 19.5542C8.33383 20.2274 8.43001 20.8899 8.49412 21.5631C8.61522 21.6985 8.55467 21.6842 8.73989 21.6166C10.5351 19.1588 10.471 18.678 11.2831 15.4616C11.7212 16.2951 12.8539 16.7439 13.7515 16.7439C17.5343 16.7439 19.2333 13.0573 19.2333 9.73401C19.2333 6.19703 16.1772 3.88892 12.8218 3.88892Z" fill="white"/>
<path fill-rule="evenodd" clip-rule="evenodd" d="M0 3.33333C0 1.49238 1.49238 0 3.33333 0H21.6667C23.5076 0 25 1.49238 25 3.33333V21.6667C25 23.5076 23.5076 25 21.6667 25H3.33333C1.49238 25 0 23.5076 0 21.6667V3.33333ZM3.33333 1.11111C2.10603 1.11111 1.11111 2.10603 1.11111 3.33333V21.6667C1.11111 22.894 2.10603 23.8889 3.33333 23.8889H21.6667C22.894 23.8889 23.8889 22.894 23.8889 21.6667V3.33333C23.8889 2.10603 22.894 1.11111 21.6667 1.11111H3.33333Z" fill="white"/>
</svg>
