<svg width="25" height="25" viewBox="0 0 25 25" fill="none" xmlns="http://www.w3.org/2000/svg">
<path d="M19.2837 9.15408C19.295 9.312 19.295 9.46995 19.295 9.62787C19.295 14.4446 15.6289 19.9945 8.92837 19.9945C6.86406 19.9945 4.94641 19.3966 3.33331 18.3589C3.62661 18.3927 3.90859 18.404 4.21318 18.404C5.91648 18.404 7.48448 17.8287 8.7366 16.8473C7.13479 16.8135 5.79242 15.7644 5.32992 14.3205C5.55554 14.3543 5.78114 14.3769 6.01805 14.3769C6.34517 14.3769 6.67232 14.3317 6.97687 14.2528C5.30738 13.9144 4.05523 12.4479 4.05523 10.6769V10.6318C4.54026 10.9026 5.10433 11.0718 5.70214 11.0943C4.72075 10.44 4.0778 9.32328 4.0778 8.05988C4.0778 7.38307 4.25825 6.76265 4.57412 6.22119C6.3677 8.43213 9.06372 9.87599 12.0868 10.0339C12.0304 9.76322 11.9966 9.48124 11.9966 9.19922C11.9966 7.1913 13.621 5.55566 15.6401 5.55566C16.6892 5.55566 17.6367 5.9956 18.3023 6.70626C19.1257 6.54834 19.9154 6.24376 20.6148 5.82639C20.344 6.67244 19.7687 7.3831 19.013 7.83428C19.7462 7.75536 20.4569 7.55227 21.1111 7.27029C20.6148 7.9922 19.9944 8.63516 19.2837 9.15408Z" fill="white"/>
<path fill-rule="evenodd" clip-rule="evenodd" d="M0 3.33333C0 1.49238 1.49238 0 3.33333 0H21.6667C23.5076 0 25 1.49238 25 3.33333V21.6667C25 23.5076 23.5076 25 21.6667 25H3.33333C1.49238 25 0 23.5076 0 21.6667V3.33333ZM3.33333 1.11111C2.10603 1.11111 1.11111 2.10603 1.11111 3.33333V21.6667C1.11111 22.894 2.10603 23.8889 3.33333 23.8889H21.6667C22.894 23.8889 23.8889 22.894 23.8889 21.6667V3.33333C23.8889 2.10603 22.894 1.11111 21.6667 1.11111H3.33333Z" fill="white"/>
</svg>
