<svg width="25" height="25" viewBox="0 0 25 25" fill="none" xmlns="http://www.w3.org/2000/svg">
<path d="M21.0604 6.35729L18.3777 19.0092C18.1753 19.9021 17.6474 20.1244 16.8974 19.7037L12.8097 16.6915L10.8373 18.5885C10.619 18.8068 10.4365 18.9894 10.0158 18.9894L10.3095 14.8263L17.8855 7.98045C18.2149 7.68677 17.8141 7.52406 17.3736 7.81773L8.00769 13.7151L3.97558 12.4531C3.09852 12.1792 3.08264 11.576 4.15814 11.1553L19.9294 5.0794C20.6596 4.80556 21.2986 5.24211 21.0604 6.35729Z" fill="white"/>
<path fill-rule="evenodd" clip-rule="evenodd" d="M0 3.33333C0 1.49238 1.49238 0 3.33333 0H21.6667C23.5076 0 25 1.49238 25 3.33333V21.6667C25 23.5076 23.5076 25 21.6667 25H3.33333C1.49238 25 0 23.5076 0 21.6667V3.33333ZM3.33333 1.11111C2.10603 1.11111 1.11111 2.10603 1.11111 3.33333V21.6667C1.11111 22.894 2.10603 23.8889 3.33333 23.8889H21.6667C22.894 23.8889 23.8889 22.894 23.8889 21.6667V3.33333C23.8889 2.10603 22.894 1.11111 21.6667 1.11111H3.33333Z" fill="white"/>
</svg>
