<svg width="25" height="25" viewBox="0 0 25 25" fill="none" xmlns="http://www.w3.org/2000/svg">
<path d="M10.441 21.6667V13.7153H7.77777V10.5556H10.441V8.066C10.441 5.36114 12.0937 3.88892 14.5069 3.88892C15.6632 3.88892 16.6562 3.97572 16.9444 4.01392V6.8403H15.2708C13.9583 6.8403 13.7049 7.4653 13.7049 8.3785V10.5556H16.6667L16.2604 13.7153H13.7049V21.6667" fill="white"/>
<path fill-rule="evenodd" clip-rule="evenodd" d="M0 3.33333C0 1.49238 1.49238 0 3.33333 0H21.6667C23.5076 0 25 1.49238 25 3.33333V21.6667C25 23.5076 23.5076 25 21.6667 25H3.33333C1.49238 25 0 23.5076 0 21.6667V3.33333ZM3.33333 1.11111C2.10603 1.11111 1.11111 2.10603 1.11111 3.33333V21.6667C1.11111 22.894 2.10603 23.8889 3.33333 23.8889H21.6667C22.894 23.8889 23.8889 22.894 23.8889 21.6667V3.33333C23.8889 2.10603 22.894 1.11111 21.6667 1.11111H3.33333Z" fill="white"/>
</svg>
